<svg width="50" height="44" viewBox="0 0 50 44" fill="none" xmlns="http://www.w3.org/2000/svg">
<path d="M26.3782 35.8433H28.1646V38.3337H26.3782V35.8433Z" fill="#AAB9C1"/>
<path d="M26.3781 41.7174H25.4851V43.503H28.1641V40.824H26.3781L26.3781 41.7174Z" fill="#AAB9C1"/>
<path d="M18.9692 41.7174H22.2272V43.5038H18.9692V41.7174Z" fill="#AAB9C1"/>
<path d="M5.93774 41.7174H9.19576V43.5038H5.93774V41.7174Z" fill="#AAB9C1"/>
<path d="M12.4533 41.7174H15.7113V43.5038H12.4533V41.7174Z" fill="#AAB9C1"/>
<path d="M1.786 40.824H0V43.503H2.67899V41.7174H1.78597L1.786 40.824Z" fill="#AAB9C1"/>
<path d="M0 21.276H1.78643V24.534H0V21.276Z" fill="#AAB9C1"/>
<path d="M0 27.7916H1.78643V31.0496H0V27.7916Z" fill="#AAB9C1"/>
<path d="M0 34.3084H1.78643V37.5664H0V34.3084Z" fill="#AAB9C1"/>
<path d="M0 18.0189H1.786V17.1255H2.67902V15.3395H2.13807e-05L0 18.0189Z" fill="#AAB9C1"/>
<path d="M5.69525 15.3392H8.71107V17.1256H5.69525V15.3392Z" fill="#AAB9C1"/>
<path d="M49.8817 26.7354C49.8054 26.4272 49.573 26.1813 49.2699 26.0878L39.7718 23.2475L39.7714 7.86874C39.7722 7.6317 39.677 7.40476 39.5078 7.23887L32.5371 0.263567C32.3712 0.0943129 32.1443 -0.000418968 31.9073 1.39302e-06H13.5138C13.0212 0.00168542 12.6224 0.400401 12.6207 0.893441V15.3398H11.7277V17.1263L12.6207 17.1259V32.4604H26.3795V33.3534H28.1659V32.4604H34.5294L36.4762 38.44C36.5739 38.7313 36.8126 38.9532 37.1103 39.0294C37.1802 39.0471 37.2522 39.056 37.3246 39.0564C37.5558 39.0551 37.7781 38.9659 37.9452 38.8063L41.6962 35.2026L45.0632 38.5696H45.0636C45.4127 38.9178 45.9781 38.9178 46.3272 38.5696L49.1852 35.7116C49.3536 35.5436 49.4488 35.3154 49.4488 35.0771C49.4496 34.8405 49.3545 34.6135 49.1852 34.4476L45.9075 31.1653L49.632 27.5881V27.5885C49.861 27.3687 49.9566 27.0441 49.8821 26.7355L49.8817 26.7354ZM32.676 2.92462L36.8425 7.09536H32.676V2.92462ZM37.9856 22.7118L32.2697 21.0015V21.002C31.951 20.9072 31.6066 20.9973 31.375 21.2352C31.1434 21.4735 31.063 21.8205 31.1666 22.1362L33.9487 30.6744H14.4073V1.78592H30.8898V7.98862C30.8915 8.48123 31.2902 8.88037 31.7832 8.88164H37.9859V22.7115L37.9856 22.7118Z" fill="#AAB9C1"/>
<path d="M34.5646 11.7844C34.565 11.9621 34.4943 12.1326 34.3688 12.2585C34.2429 12.384 34.0724 12.4547 33.8947 12.4543H18.1538C17.785 12.453 17.4861 12.1537 17.4861 11.7844C17.4861 11.4156 17.785 11.1158 18.1538 11.1146H33.8947C34.0724 11.1146 34.2429 11.1849 34.3688 11.3108C34.4943 11.4362 34.565 11.6068 34.5646 11.7844Z" fill="#AAB9C1"/>
<path d="M34.5645 15.0267C34.565 15.2048 34.4942 15.3753 34.3688 15.5008C34.2429 15.6262 34.0723 15.697 33.8947 15.6965H18.1538C17.9757 15.6974 17.8047 15.6271 17.6789 15.5012C17.553 15.3757 17.4818 15.2048 17.4818 15.0267C17.4818 14.849 17.553 14.6781 17.6789 14.5526C17.8047 14.4267 17.9757 14.3564 18.1538 14.3568H33.8947C34.0723 14.3568 34.2429 14.4271 34.3688 14.553C34.4942 14.6785 34.565 14.849 34.5645 15.0267Z" fill="#AAB9C1"/>
<path d="M34.5646 18.2732C34.565 18.4509 34.4943 18.6214 34.3688 18.7473C34.2429 18.8728 34.0724 18.9435 33.8947 18.9431H18.1538C17.785 18.9418 17.4861 18.6424 17.4861 18.2732C17.4861 17.9039 17.785 17.6046 18.1538 17.6033H33.8947C34.0724 17.6033 34.2429 17.6736 34.3688 17.7995C34.4943 17.925 34.565 18.0955 34.5646 18.2732Z" fill="#AAB9C1"/>
</svg>
