<svg width="40" height="40" viewBox="0 0 40 40" fill="none" xmlns="http://www.w3.org/2000/svg">
<path d="M15.1168 18.8585C14.7451 18.4868 14.2409 18.278 13.7152 18.278C13.1896 18.278 12.6854 18.4868 12.3137 18.8585C11.942 19.2302 11.7332 19.7344 11.7332 20.2601C11.7332 20.7857 11.942 21.2899 12.3137 21.6616L18.2357 27.5836C18.4201 27.7666 18.6389 27.9113 18.8794 28.0095C19.1199 28.1078 19.3774 28.1576 19.6372 28.1561C19.9075 28.1475 20.1731 28.0835 20.4176 27.968C20.662 27.8526 20.8802 27.6881 21.0585 27.4849L34.8765 11.6929C35.1956 11.2968 35.3494 10.7928 35.306 10.286C35.2625 9.77921 35.0251 9.30877 34.6432 8.97274C34.2614 8.63672 33.7646 8.46106 33.2564 8.48239C32.7482 8.50372 32.2679 8.72039 31.9155 9.08722L19.6372 23.3L15.1168 18.8585Z" fill="#1EDD6B"/>
<path d="M37.4035 18.286C36.8799 18.286 36.3778 18.494 36.0076 18.8642C35.6374 19.2344 35.4295 19.7365 35.4295 20.26C35.4295 24.4483 33.7657 28.4651 30.8041 31.4267C27.8425 34.3882 23.8258 36.052 19.6375 36.052C16.5187 36.0506 13.4702 35.1257 10.8764 33.3941C8.28254 31.6625 6.25951 29.2016 5.06239 26.3217C3.86528 23.4419 3.54767 20.2721 4.14963 17.212C4.75159 14.1518 6.24616 11.3385 8.44488 9.12666C9.90703 7.64494 11.65 6.46974 13.5719 5.66982C15.4937 4.8699 17.5558 4.46133 19.6375 4.46802C20.8997 4.47592 22.1574 4.62154 23.3881 4.9023C23.6456 4.98196 23.9167 5.00803 24.1847 4.97889C24.4527 4.94975 24.7119 4.86603 24.9463 4.73289C25.1807 4.59974 25.3854 4.42 25.5477 4.20473C25.7099 3.98947 25.8264 3.74324 25.8899 3.48124C25.9534 3.21924 25.9625 2.94702 25.9167 2.68135C25.871 2.41569 25.7713 2.16221 25.6238 1.93655C25.4763 1.71088 25.2842 1.51782 25.0592 1.36926C24.8343 1.22069 24.5813 1.11978 24.3158 1.07274C22.7823 0.711977 21.2128 0.526548 19.6375 0.52002C15.7375 0.54028 11.9309 1.71532 8.69814 3.89685C5.46534 6.07838 2.95118 9.16863 1.47295 12.7776C-0.00528539 16.3866 -0.38135 20.3526 0.392214 24.1752C1.16578 27.9977 3.0543 31.5054 5.81946 34.2557C9.48457 37.9225 14.453 39.9879 19.6375 40C24.8728 40 29.8938 37.9203 33.5957 34.2183C37.2977 30.5163 39.3775 25.4954 39.3775 20.26C39.3775 19.7365 39.1695 19.2344 38.7993 18.8642C38.4291 18.494 37.927 18.286 37.4035 18.286Z" fill="#1EDD6B"/>
</svg>
