<svg width="2944" height="2801" viewBox="0 0 2944 2801" fill="none" xmlns="http://www.w3.org/2000/svg">
<path d="M1359.8 1.19998C986.9 7.79998 409.9 149.6 243.8 514C185.8 641.3 189.699 828.4 197.599 1202.5C199.899 1312.5 203.699 1472.8 230.599 1671.7C286.399 2084.9 324.499 2366.1 468.299 2529.9C828.799 2940.3 2131 2928.4 2687 2189.6C2990.3 1786.6 3037 1213.2 2759.6 739.4C2454.4 217.8 1859.1 -7.60002 1359.8 1.19998Z" fill="transparent"/>
<path d="M2224.9 481.4C2252 483.7 2275.9 461.8 2278.4 432.5C2280.9 403.2 2260.9 377.6 2233.9 375.3C2232.5 375.2 2231.1 375.2 2229.7 375.2C2228.4 360.1 2226.1 345.3 2222.7 330.8C2224 330.3 2225.3 329.7 2226.5 329.1C2251.2 316.4 2261.9 284.7 2250.5 258.2C2239.1 231.7 2209.9 220.5 2185.2 233.1C2183.9 233.8 2182.7 234.5 2181.5 235.3C2173.4 223.1 2164.5 211.7 2154.8 201C2155.7 199.8 2156.6 198.6 2157.4 197.4C2173.1 173.2 2167.8 140.1 2145.6 123.4C2123.4 106.8 2092.7 112.9 2077.1 137.2C2076.3 138.4 2075.6 139.7 2074.9 141C2062.4 135 2049.3 129.9 2035.7 126C2035.9 124.5 2036.2 123 2036.3 121.5C2038.8 92.2 2044.1 59.1 2017 57.3C1954.3 52.9999 1940.8 84 1938.3 113.3C1938.2 114.8 1938.1 116.3 1938.1 117.8C1924.1 119.4 1910.4 122.1 1897 126C1896.5 124.6 1896 123.2 1895.5 121.9C1884.1 95.4 1886.2 77.6999 1860.3 87.5999C1803.8 109.3 1794.8 141.2 1806.2 167.8C1806.8 169.2 1807.5 170.5 1808.2 171.8C1796.9 180.7 1786.1 190.5 1776.2 201.1C1775.1 200.1 1774 199.2 1772.9 198.3C1750.7 181.7 1720 187.8 1704.4 212.1C1688.7 236.3 1694 269.4 1716.2 286.1C1717.3 287 1718.5 287.7 1719.7 288.4C1713.9 302 1709.1 316.2 1705.3 331C1703.9 330.8 1702.6 330.5 1701.2 330.4C1674.1 328.1 1650.2 350 1647.7 379.3C1645.2 408.6 1665.2 434.2 1692.2 436.5C1693.6 436.6 1695 436.6 1696.4 436.6C1697.7 451.7 1700 466.5 1703.4 481C1702.1 481.5 1700.8 482.1 1699.6 482.7C1674.9 495.4 1664.2 527.1 1675.6 553.6C1687 580.1 1716.2 591.3 1740.9 578.6C1742.2 577.9 1743.4 577.2 1744.6 576.4C1752.7 588.6 1761.6 600 1771.3 610.7C1770.4 611.9 1769.5 613.1 1768.7 614.3C1753 638.5 1758.3 671.6 1780.5 688.3C1802.7 704.9 1850.7 697.3 1866.4 673.1C1867.2 671.9 1850.6 672 1851.3 670.7C1863.8 676.7 1876.9 681.8 1890.5 685.7C1890.3 687.2 1890 688.7 1889.9 690.2C1887.4 719.5 1907.4 745.1 1934.4 747.4C1961.5 749.7 1985.4 727.8 1987.9 698.5C1988 697 1988.1 695.5 1988.1 694C2002.1 692.4 2015.8 689.7 2029.2 685.8C2029.7 687.2 2030.2 688.6 2030.7 689.9C2042.1 716.4 2071.3 727.6 2096 714.9C2120.7 702.2 2131.4 670.5 2120 644C2119.4 642.6 2118.7 641.3 2118 640C2129.3 631.1 2140.1 621.3 2150 610.7C2151.1 611.7 2152.2 612.6 2153.3 613.5C2175.5 630.1 2206.2 624 2221.8 599.7C2237.5 575.5 2232.2 542.4 2210 525.7C2208.9 524.9 2207.7 524.1 2206.5 523.4C2212.3 509.8 2217.1 495.6 2220.9 480.8C2222.1 481.1 2223.5 481.3 2224.9 481.4ZM1946.8 598.5C1848.6 590.2 1776.2 497.3 1785.2 390.9C1794.2 284.5 1881 205 1979.3 213.3C2077.5 221.6 2149.9 314.5 2140.9 420.9C2131.9 527.3 2045 606.8 1946.8 598.5Z" fill="#BFC6D1"/>
<path d="M2226.5 329.1C2251.2 316.4 2261.9 284.7 2250.5 258.2C2239.1 231.7 2209.9 220.5 2185.2 233.2C2183.9 233.9 2182.7 234.6 2181.5 235.4C2173.4 223.2 2164.5 211.8 2154.8 201.1C2155.7 199.9 2156.6 198.7 2157.4 197.5C2173.1 173.3 2185.1 125.2 2161.3 111C2116.2 83.9 2092.7 113.1 2077 137.4C2076.2 138.6 2075.5 139.9 2074.8 141.2C2062.3 135.2 2049.2 130.1 2035.6 126.2C2035.8 124.7 2036.1 123.2 2036.2 121.7C2037.5 105.8 2032.2 90.9 2022.8 80.4C2016.8 126.2 2011.1 172.1 2005.9 217.9C2090.2 239.1 2149 324.5 2140.9 421C2134 502.8 2081.1 568.6 2012.3 590.9C2012.5 599.8 2012.7 608.8 2012.6 617.7C2012.4 642 2010.8 666.3 2009.2 690.6C2015.9 689.3 2022.5 687.6 2029 685.8C2029.5 687.2 2030 688.6 2030.5 689.9C2041.9 716.4 2067.3 732.5 2112.7 711.2C2137.8 699.4 2131.2 670.5 2119.8 644C2119.2 642.6 2118.5 641.3 2117.8 640C2129.1 631.1 2139.9 621.3 2149.8 610.7C2150.9 611.7 2152 612.6 2153.1 613.5C2175.3 630.1 2225.1 620.8 2240.8 596.6C2256.5 572.4 2232.1 542.4 2209.9 525.8C2208.8 524.9 2207.6 524.2 2206.4 523.5C2212.2 509.9 2217 495.7 2220.8 481C2222.2 481.2 2223.5 481.5 2224.9 481.6C2252 483.9 2275.9 462 2278.4 432.7C2280.9 403.4 2260.9 377.8 2233.9 375.5C2232.5 375.4 2231.1 375.4 2229.7 375.4C2228.4 360.3 2226.1 345.5 2222.7 331C2223.9 330.3 2225.2 329.8 2226.5 329.1Z" fill="#BFC6D1"/>
<path d="M2250.1 474.4C2277.2 476.7 2301.1 454.8 2303.6 425.5C2306.1 396.2 2286.1 370.6 2259.1 368.3C2257.7 368.2 2256.3 368.2 2254.9 368.2C2253.6 353.1 2251.3 338.2 2247.9 323.8C2249.2 323.3 2250.5 322.7 2251.7 322.1C2276.4 309.4 2287.1 277.7 2275.7 251.2C2264.3 224.7 2235.1 213.5 2210.4 226.1C2209.1 226.8 2207.9 227.5 2206.7 228.3C2198.6 216.1 2189.7 204.7 2180 194C2180.9 192.8 2181.8 191.6 2182.6 190.4C2198.3 166.2 2193 133.1 2170.8 116.4C2148.6 99.8 2117.9 105.9 2102.3 130.2C2101.5 131.4 2100.8 132.7 2100.1 134C2087.6 128 2074.5 122.9 2060.9 119C2061.1 117.5 2061.4 116 2061.5 114.5C2064 85.2 2044 59.6 2017 57.3C1989.9 55 1966 76.9 1963.5 106.2C1963.4 107.7 1963.3 109.2 1963.3 110.7C1949.3 112.3 1935.6 115 1922.2 118.9C1921.7 117.5 1921.2 116.1 1920.7 114.8C1909.3 88.2999 1880.1 77.0999 1855.4 89.7999C1830.7 102.5 1820 134.2 1831.4 160.7C1832 162.1 1832.7 163.4 1833.4 164.7C1822 173.6 1811.3 183.4 1801.4 194C1800.3 193 1799.2 192.1 1798.1 191.2C1775.9 174.6 1745.2 180.7 1729.6 205C1713.9 229.2 1719.2 262.3 1741.4 279C1742.5 279.9 1743.7 280.6 1744.9 281.3C1739.1 294.9 1734.3 309.1 1730.5 323.9C1729.1 323.7 1727.8 323.4 1726.4 323.3C1699.3 321 1675.4 342.9 1672.9 372.2C1670.4 401.5 1690.4 427.1 1717.4 429.4C1718.8 429.5 1720.2 429.5 1721.6 429.5C1722.9 444.6 1725.2 459.4 1728.6 473.9C1727.3 474.4 1726 475 1724.8 475.6C1700.1 488.3 1689.4 520 1700.8 546.5C1712.2 573 1741.4 584.2 1766.1 571.5C1767.4 570.8 1768.6 570.1 1769.8 569.3C1777.9 581.5 1786.8 592.9 1796.5 603.6C1795.6 604.8 1794.7 606 1793.9 607.2C1778.2 631.4 1783.5 664.5 1805.7 681.2C1827.9 697.8 1858.6 691.7 1874.2 667.4C1875 666.2 1875.7 664.9 1876.4 663.6C1888.9 669.6 1902 674.7 1915.6 678.6C1915.4 680.1 1915.1 681.6 1915 683.1C1912.5 712.4 1932.5 738 1959.5 740.3C1986.6 742.6 2010.5 720.7 2013 691.4C2013.1 689.9 2013.2 688.4 2013.2 686.9C2027.2 685.3 2040.9 682.6 2054.3 678.7C2054.8 680.1 2055.3 681.5 2055.8 682.8C2067.2 709.3 2096.4 720.5 2121.1 707.8C2145.8 695.1 2156.5 663.4 2145.1 636.9C2144.5 635.5 2143.8 634.2 2143.1 632.9C2154.4 624 2165.2 614.2 2175.1 603.6C2176.2 604.6 2177.3 605.5 2178.4 606.4C2200.6 623 2231.3 616.9 2246.9 592.6C2262.6 568.4 2257.3 535.3 2235.1 518.6C2234 517.8 2232.8 517 2231.6 516.3C2237.4 502.7 2242.2 488.5 2246 473.8C2247.4 474 2248.7 474.3 2250.1 474.4ZM1972 591.5C1873.8 583.2 1801.4 490.3 1810.4 383.9C1819.4 277.5 1906.2 198 2004.5 206.3C2102.7 214.6 2175.1 307.5 2166.1 413.9C2157.1 520.2 2070.2 599.7 1972 591.5Z" fill="#D8DEE8"/>
<path d="M2721.1 522.2C2737.2 523.6 2751.4 510.5 2752.8 493.1C2754.3 475.7 2742.4 460.5 2726.4 459.1C2725.6 459 2724.7 459 2723.9 459C2723.1 450 2721.7 441.2 2719.7 432.7C2720.5 432.4 2721.2 432.1 2722 431.7C2736.6 424.2 2743 405.3 2736.3 389.6C2729.5 373.9 2712.2 367.2 2697.5 374.7C2696.7 375.1 2696 375.5 2695.3 376C2690.5 368.8 2685.2 362 2679.5 355.7C2680 355 2680.6 354.3 2681 353.5C2690.3 339.1 2687.2 319.4 2674 309.6C2660.8 299.7 2642.6 303.4 2633.3 317.8C2632.8 318.5 2632.4 319.3 2632 320.1C2624.6 316.5 2616.8 313.5 2608.7 311.2C2608.8 310.3 2609 309.4 2609 308.5C2610.5 291.1 2613.6 271.5 2597.5 270.4C2560.3 267.9 2552.2 286.2 2550.8 303.6C2550.7 304.5 2550.7 305.4 2550.7 306.3C2542.4 307.2 2534.2 308.9 2526.3 311.2C2526 310.4 2525.7 309.6 2525.4 308.8C2518.6 293.1 2519.9 282.6 2504.5 288.5C2471 301.4 2465.6 320.4 2472.4 336.1C2472.8 336.9 2473.2 337.7 2473.6 338.5C2466.9 343.8 2460.5 349.6 2454.6 355.9C2454 355.3 2453.3 354.8 2452.6 354.3C2439.4 344.4 2421.2 348.1 2411.9 362.5C2402.6 376.9 2405.7 396.6 2418.9 406.4C2419.6 406.9 2420.3 407.4 2421 407.8C2417.6 415.9 2414.7 424.3 2412.5 433.1C2411.7 433 2410.9 432.8 2410 432.8C2393.9 431.4 2379.7 444.5 2378.3 461.9C2376.8 479.3 2388.7 494.5 2404.7 495.9C2405.5 496 2406.4 496 2407.2 496C2408 505 2409.4 513.8 2411.4 522.3C2410.6 522.6 2409.9 522.9 2409.1 523.3C2394.5 530.8 2388.1 549.7 2394.8 565.4C2401.6 581.1 2418.9 587.8 2433.6 580.3C2434.4 579.9 2435.1 579.5 2435.8 579C2440.6 586.2 2445.9 593 2451.6 599.3C2451.1 600 2450.5 600.7 2450.1 601.5C2440.8 615.9 2443.9 635.6 2457.1 645.4C2470.3 655.3 2498.8 650.8 2508.1 636.4C2508.6 635.7 2498.7 635.8 2499.1 635C2506.5 638.6 2514.3 641.6 2522.4 643.9C2522.3 644.8 2522.1 645.7 2522.1 646.6C2520.6 664 2532.5 679.2 2548.5 680.6C2564.6 682 2578.8 668.9 2580.2 651.5C2580.3 650.6 2580.3 649.7 2580.3 648.8C2588.6 647.9 2596.8 646.2 2604.7 643.9C2605 644.7 2605.3 645.5 2605.6 646.3C2612.4 662 2629.7 668.7 2644.4 661.2C2659 653.7 2665.4 634.8 2658.7 619.1C2658.3 618.3 2657.9 617.5 2657.5 616.7C2664.2 611.4 2670.6 605.6 2676.5 599.3C2677.1 599.9 2677.8 600.4 2678.5 600.9C2691.7 610.8 2709.9 607.1 2719.2 592.7C2728.5 578.3 2725.4 558.6 2712.2 548.8C2711.5 548.3 2710.8 547.8 2710.1 547.4C2713.5 539.3 2716.4 530.9 2718.6 522.1C2719.4 522 2720.3 522.2 2721.1 522.2ZM2555.9 591.8C2497.6 586.9 2454.6 531.7 2459.9 468.5C2465.2 405.3 2516.8 358.1 2575.2 363C2633.5 367.9 2676.5 423.1 2671.2 486.3C2665.8 549.5 2614.2 596.7 2555.9 591.8Z" fill="#BFC6D1"/>
<path d="M2722 431.8C2736.6 424.3 2743 405.4 2736.3 389.7C2729.5 374 2712.2 367.3 2697.5 374.8C2696.7 375.2 2696 375.6 2695.3 376.1C2690.5 368.9 2685.2 362.1 2679.5 355.8C2680 355.1 2680.6 354.4 2681 353.6C2690.3 339.2 2697.4 310.7 2683.3 302.2C2656.5 286.1 2642.5 303.5 2633.2 317.9C2632.7 318.6 2632.3 319.4 2631.9 320.2C2624.5 316.6 2616.7 313.6 2608.6 311.3C2608.7 310.4 2608.9 309.5 2608.9 308.6C2609.7 299.1 2606.5 290.3 2600.9 284C2597.3 311.2 2593.9 338.4 2590.8 365.7C2640.9 378.3 2675.8 429 2671 486.3C2666.9 534.9 2635.5 574 2594.6 587.2C2594.7 592.5 2594.8 597.8 2594.8 603.1C2594.7 617.5 2593.7 632 2592.8 646.4C2596.8 645.6 2600.7 644.6 2604.5 643.5C2604.8 644.3 2605.1 645.1 2605.4 645.9C2612.2 661.6 2627.3 671.2 2654.2 658.6C2669.1 651.6 2665.2 634.4 2658.4 618.7C2658 617.9 2657.6 617.1 2657.2 616.3C2663.9 611 2670.3 605.2 2676.2 598.9C2676.8 599.5 2677.5 600 2678.2 600.5C2691.4 610.4 2721 604.8 2730.3 590.4C2739.6 576 2725.1 558.2 2711.9 548.3C2711.2 547.8 2710.5 547.3 2709.8 546.9C2713.2 538.8 2716.1 530.4 2718.3 521.6C2719.1 521.7 2719.9 521.9 2720.8 521.9C2736.9 523.3 2751.1 510.2 2752.5 492.8C2754 475.4 2742.1 460.2 2726.1 458.8C2725.3 458.7 2724.4 458.7 2723.6 458.7C2722.8 449.7 2721.4 440.9 2719.4 432.4C2720.5 432.5 2721.3 432.2 2722 431.8Z" fill="#BFC6D1"/>
<path d="M2736.1 518C2752.2 519.4 2766.4 506.3 2767.8 488.9C2769.3 471.5 2757.4 456.3 2741.4 454.9C2740.6 454.8 2739.7 454.8 2738.9 454.8C2738.1 445.8 2736.7 437 2734.7 428.5C2735.5 428.2 2736.2 427.9 2737 427.5C2751.6 420 2758 401.1 2751.3 385.4C2744.5 369.7 2727.2 363 2712.5 370.5C2711.7 370.9 2711 371.3 2710.3 371.8C2705.5 364.6 2700.2 357.8 2694.5 351.5C2695 350.8 2695.6 350.1 2696 349.3C2705.3 334.9 2702.2 315.2 2689 305.4C2675.8 295.5 2657.6 299.2 2648.3 313.6C2647.8 314.3 2647.4 315.1 2647 315.9C2639.6 312.3 2631.8 309.3 2623.7 307C2623.8 306.1 2624 305.2 2624 304.3C2625.5 286.9 2613.6 271.7 2597.6 270.3C2581.5 268.9 2567.3 282 2565.9 299.4C2565.8 300.3 2565.8 301.2 2565.8 302.1C2557.5 303 2549.3 304.7 2541.4 307C2541.1 306.2 2540.8 305.4 2540.5 304.6C2533.7 288.9 2516.4 282.2 2501.7 289.7C2487.1 297.2 2480.7 316.1 2487.4 331.8C2487.8 332.6 2488.2 333.4 2488.6 334.2C2481.9 339.5 2475.5 345.3 2469.6 351.6C2469 351 2468.3 350.5 2467.6 350C2454.4 340.1 2436.2 343.8 2426.9 358.2C2417.6 372.6 2420.7 392.3 2433.9 402.1C2434.6 402.6 2435.3 403.1 2436 403.5C2432.6 411.6 2429.7 420 2427.5 428.8C2426.7 428.7 2425.9 428.5 2425 428.5C2408.9 427.1 2394.7 440.2 2393.3 457.6C2391.8 475 2403.7 490.2 2419.7 491.6C2420.5 491.7 2421.4 491.7 2422.2 491.7C2423 500.7 2424.4 509.5 2426.4 518C2425.6 518.3 2424.9 518.6 2424.1 519C2409.5 526.5 2403.1 545.4 2409.8 561.1C2416.6 576.8 2433.9 583.5 2448.6 576C2449.4 575.6 2450.1 575.2 2450.8 574.7C2455.6 581.9 2460.9 588.7 2466.6 595C2466.1 595.7 2465.5 596.4 2465.1 597.2C2455.8 611.6 2458.9 631.3 2472.1 641.1C2485.3 651 2503.5 647.3 2512.8 632.9C2513.3 632.2 2513.7 631.4 2514.1 630.6C2521.5 634.2 2529.3 637.2 2537.4 639.5C2537.3 640.4 2537.1 641.3 2537.1 642.2C2535.6 659.6 2547.5 674.8 2563.5 676.2C2579.6 677.6 2593.8 664.5 2595.2 647.1C2595.3 646.2 2595.3 645.3 2595.3 644.4C2603.6 643.5 2611.8 641.8 2619.7 639.5C2620 640.3 2620.3 641.1 2620.6 641.9C2627.4 657.6 2644.7 664.3 2659.4 656.8C2674 649.3 2680.4 630.4 2673.7 614.7C2673.3 613.9 2672.9 613.1 2672.5 612.3C2679.2 607 2685.6 601.2 2691.5 594.9C2692.1 595.5 2692.8 596 2693.5 596.5C2706.7 606.4 2724.9 602.7 2734.2 588.3C2743.5 573.9 2740.4 554.2 2727.2 544.4C2726.5 543.9 2725.8 543.4 2725.1 543C2728.5 534.9 2731.4 526.5 2733.6 517.7C2734.4 517.8 2735.2 518 2736.1 518ZM2570.9 587.6C2512.6 582.7 2469.6 527.5 2474.9 464.3C2480.2 401.1 2531.8 353.9 2590.2 358.8C2648.5 363.7 2691.5 418.9 2686.2 482.1C2680.8 545.3 2629.2 592.5 2570.9 587.6Z" fill="#D8DEE8"/>
<path d="M1734.9 2328.5C1701.4 2317.4 1676.3 2288.9 1669.2 2254L1620.4 2012.5L1203 2027.3L1151.6 2278.9C1144.4 2314.1 1173.2 2349.5 1206.4 2362.5L1381 2430.8C1413.5 2443.5 1448.4 2448.6 1483.1 2445.6L1852.2 2414C1863 2413.1 1871.6 2404.6 1872.9 2393.7C1874.2 2382.8 1881.7 2370.6 1871.4 2367.2L1734.9 2328.5Z" fill="#97A6B7"/>
<path d="M1739 2313.8C1705.5 2302.8 1680.5 2274.7 1673.4 2240.2L1624.7 2001.7L1217.4 2016.4L1166.1 2264.8C1158.9 2299.6 1177.9 2334.5 1211.1 2347.3L1385.6 2414.8C1418 2427.3 1452.9 2432.3 1487.6 2429.4L1856.3 2398.2C1867.1 2397.3 1875.7 2388.9 1877 2378.2C1878.3 2367.5 1871.8 2357.3 1861.5 2353.9L1739 2313.8Z" fill="url(#paint0_linear_333_1047)"/>
<path d="M349.999 2173C304.699 2175.7 267.699 2146.3 267.699 2107.5V708.7C267.699 669.9 304.699 639.9 349.999 641.9L2443.4 732.6C2476.6 734 2503.5 762.1 2503.5 795.1V1984.7C2503.5 2017.7 2476.6 2046.2 2443.4 2048.1L349.999 2173Z" fill="url(#paint1_linear_333_1047)"/>
<path d="M368.799 2173C323.499 2175.7 286.499 2146.3 286.499 2107.5V708.7C286.499 669.9 323.499 639.9 368.799 641.9L2462.2 732.6C2495.4 734 2522.3 762.1 2522.3 795.1V1984.7C2522.3 2017.7 2495.4 2046.2 2462.2 2048.1L368.799 2173Z" fill="url(#paint2_linear_333_1047)"/>
<path opacity="0.3" d="M2462.3 760.6L368.899 674.5C344.699 673.5 324.999 689.5 324.999 710.2V1798.1V2105.4C324.999 2126.1 344.699 2141.8 368.899 2140.4L2462.3 2020.2C2480.1 2019.2 2494.5 2004 2494.5 1986.3V1714.4V794C2494.5 776.3 2480.1 761.3 2462.3 760.6Z" fill="#D8DEE8"/>
<path d="M368.799 2021.6C359.399 2022.1 351.699 2015.9 351.699 2007.8V711.2C351.699 703.1 359.399 696.9 368.799 697.3L2462.2 780.2C2469.1 780.5 2474.8 786.3 2474.8 793.2V1904.9C2474.8 1911.8 2469.2 1917.7 2462.2 1918.1L368.799 2021.6Z" fill="#F4F7FA"/>
<path opacity="0.3" d="M2243.7 1961.6C2067.6 1852.7 2190.6 1542.9 1992.8 1387.3C1793.4 1230.4 1512.8 1422.8 1373.1 1260.3C1269.1 1139.3 1390.8 993.2 1291.5 879.4C1135.8 701 737.099 946.4 553.899 770.6C527.899 745.6 501.699 707.8 486.699 647L368.699 641.9C323.399 639.9 286.399 669.9 286.399 708.7V2107.5C286.399 2146.3 323.399 2175.7 368.699 2173L2462.1 2048.2C2495.3 2046.2 2522.2 2017.8 2522.2 1984.8V1963.6C2383.4 2010.7 2298.5 1995.4 2243.7 1961.6Z" fill="#F4F7FA"/>
<path d="M2135.4 1863.4V431.1L847.699 366.7V1935.4C847.699 1968.3 823.799 1996.4 791.399 2001.7L2066.2 1937.3C2105.2 1934.8 2135.4 1902.4 2135.4 1863.4Z" fill="white"/>
<path d="M2135.4 720.7C2133.8 720.7 2132.5 719.4 2132.5 717.8V433.9L850.6 369.8V662C850.6 663.6 849.3 664.9 847.7 664.9C846.1 664.9 844.8 663.6 844.8 662V363.7L847.8 363.9L2138.2 428.4V717.8C2138.3 719.4 2137 720.7 2135.4 720.7Z" fill="#D8DEE8"/>
<path d="M2008.4 1322.8L1003.6 1326.1V951.9L2008.4 969.7V1322.8Z" fill="#D8DEE8"/>
<path d="M2008.4 932.4L1003.6 909.7V518.2L2008.4 565.6V932.4Z" fill="#D8DEE8"/>
<path d="M2008.4 1714.3L1003.6 1741.1V1366.8L2008.4 1361.2V1714.3Z" fill="#D8DEE8"/>
<path d="M702.6 1533.2C703.6 1533.4 704.6 1533.6 705.6 1533.8C764.3 1545 830.4 1546.8 904.2 1533.3C918.4 1529.7 932.6 1526 946.8 1522.4C951.3 1485.8 949 1450.1 902.6 1446.5C830.4 1440.9 803 1322 812.4 1275.8C824.1 1218.6 848.6 1084.9 737.2 1074.5C644.4 1065.8 582.7 1079.2 552.5 968.7C522.1 858.1 446 801.6 346 830.2C240.8 860.3 122.5 737.2 45.3997 803.6C-89.0003 919.4 102.3 1135.9 303.1 1167.2C503.8 1198.5 412 1288.3 426.8 1380.8C447 1507.2 610.1 1444 665.4 1483.4C684.1 1496.8 695.6 1514.5 702.6 1533.2Z" fill="url(#paint3_linear_333_1047)"/>
<path d="M807.399 1440.9L809.599 1439.3C800.899 1427.1 791.899 1415 782.899 1403.2C716.599 1315.8 643.899 1238.4 566.799 1172.9C501.499 1117.5 432.199 1069.9 360.799 1031.5C303.399 1000.6 244.299 975.5 185.099 956.8C143.499 943.6 102.399 933.8 62.7994 927.5C55.8994 926.4 48.7994 925.7 41.7994 925C32.5994 924.1 23.0994 923.1 14.0994 921.2L13.3994 923.7C22.4994 925.6 32.0994 926.6 41.3994 927.5C48.2994 928.2 55.3994 928.9 62.1994 930C101.699 936.3 142.699 946.1 184.099 959.2C243.099 977.9 301.999 1002.9 359.299 1033.8C430.599 1072.1 499.799 1119.6 564.899 1174.9C641.799 1240.2 714.399 1317.6 780.599 1404.8C789.799 1416.6 798.699 1428.7 807.399 1440.9Z" fill="white"/>
<path d="M444.099 1084.2L445.699 1082C356.799 1020 309.399 838.8 308.999 837L306.399 837.8C306.899 839.7 354.499 1021.7 444.099 1084.2Z" fill="white"/>
<path d="M675.699 1280.5L677.599 1278.5C622.699 1229 474.499 1250.9 472.999 1251.1L473.199 1253.7C474.699 1253.5 621.699 1231.7 675.699 1280.5Z" fill="white"/>
<path d="M704.199 1311.4L706.399 1309.8C677.399 1271.3 660.099 1201.9 657.499 1114.5C657.399 1110.1 657.399 1110.1 657.099 1109.7L654.899 1111.3L655.999 1110.5L654.699 1110.9C654.699 1111.2 654.799 1112.8 654.799 1114.8C657.399 1202.7 674.899 1272.5 704.199 1311.4Z" fill="white"/>
<path d="M791.199 1418.9L792.799 1416.8C749.199 1386.1 668.699 1409.9 667.899 1410.2L668.499 1412.7C669.299 1412.4 748.599 1388.9 791.199 1418.9Z" fill="white"/>
<path d="M218.799 970.8L220.299 968.6C168.699 937 122.799 891.4 107.799 876.4C104.199 872.8 102.899 871.5 102.299 871.1L100.699 873.3C101.099 873.6 103.199 875.7 105.799 878.3C120.999 893.3 166.999 939 218.799 970.8Z" fill="white"/>
<path d="M311.4 1009.4L312.2 1006.9C256 993.3 151.1 1054.4 146.6 1057L147.8 1059.2C149 1058.5 256.2 996.1 311.4 1009.4Z" fill="white"/>
<g opacity="0.4">
<path opacity="0.4" d="M1525.2 1665.1C1516.6 1677.1 1458.3 1626 1352.9 1617.6C1326.6 1615.5 1183.8 1594 1128.9 1687.7C1118.2 1705.9 1107.6 1724.1 1096.9 1742.2C1046.7 1735.7 1000.5 1720.2 1014.9 1655.4C1037.3 1554.7 891.5 1476 826.6 1472.9C746.2 1469.1 559.5 1456.3 591.7 1300.2C618.5 1170.2 661.6 1090.5 528.1 1010.8C394.6 931.1 351.3 807.4 430.3 680.5C513.4 547 399.6 342.6 519.1 260.1C727.4 116.3 934.6 453.1 893.1 738.5C851.7 1023.9 1008.1 929.4 1124.3 981.7C1134.8 987.2 1150.7 996.5 1167.3 1011C1269.8 1100.4 1224.2 1233.2 1272.7 1371.9C1339.2 1561.2 1539.7 1644.9 1525.2 1665.1Z" fill="url(#paint4_linear_333_1047)"/>
<g opacity="0.4">
<path opacity="0.4" d="M1177.8 1566.9L1173.1 1572.6C780.299 1245.1 555.899 715.7 587.499 191.2L594.599 191.3C563.199 713.6 786.599 1240.7 1177.8 1566.9Z" fill="#FCFDFE"/>
<path opacity="0.4" d="M979.699 1368.7L976.199 1375.2C798.199 1281.5 572.499 1368.5 570.199 1369.4L567.999 1362.6C570.099 1361.8 798.899 1273.6 979.699 1368.7Z" fill="#FCFDFE"/>
<path opacity="0.4" d="M1107.3 1504.5L1101.2 1508.7C991.4 1335.2 1156.2 979.1 1157.9 975.5L1164.3 978.3C1162.7 981.9 999.5 1334.3 1107.3 1504.5Z" fill="#FCFDFE"/>
<path opacity="0.4" d="M719.899 934.8L714.199 939.5C615.399 810.6 364.399 794.3 361.899 794.1L362.699 786.8C365.199 787 619.299 803.5 719.899 934.8Z" fill="#FCFDFE"/>
<path opacity="0.4" d="M623.8 617.4L616.7 618C610.7 427.1 780.9 226 782.6 224L787.9 228.6C786.1 230.6 617.9 429.5 623.8 617.4Z" fill="#FCFDFE"/>
</g>
</g>
<path d="M1914.5 1064.4V1336.9C1914.5 1357.8 1897.6 1374.7 1876.7 1374.7H1640.2C1619.3 1374.7 1602.4 1357.8 1602.4 1336.9V989.4C1602.4 968.5 1619.3 951.6 1640.2 951.6H1804L1806.3 954L1912.8 1062.8L1914.5 1064.4Z" fill="url(#paint5_linear_333_1047)"/>
<path d="M1923.9 1054V1326.5C1923.9 1347.4 1907 1364.3 1886.1 1364.3H1649.6C1628.7 1364.3 1611.8 1347.4 1611.8 1326.5V979C1611.8 958.1 1628.7 941.2 1649.6 941.2H1813.4L1815.7 943.6L1922.2 1052.4L1923.9 1054Z" fill="url(#paint6_linear_333_1047)"/>
<path d="M1809.1 951.5L1913.6 1058.2V1326.5C1913.6 1341.7 1901.3 1354 1886.1 1354H1649.6C1634.4 1354 1622.1 1341.7 1622.1 1326.5V979C1622.1 963.8 1634.4 951.5 1649.6 951.5H1809.1ZM1813.5 941.2H1649.7C1628.8 941.2 1611.9 958.1 1611.9 979V1326.5C1611.9 1347.4 1628.8 1364.3 1649.7 1364.3H1886.2C1907.1 1364.3 1924 1347.4 1924 1326.5V1054L1922.4 1052.3L1815.9 943.5L1813.5 941.2Z" fill="white"/>
<path d="M1922.3 1052.3H1841.5C1827.3 1052.3 1815.8 1040.8 1815.8 1026.6V943.6L1922.3 1052.3Z" fill="url(#paint7_linear_333_1047)"/>
<path d="M1826.1 968.8L1897.8 1042H1841.5C1833 1042 1826.1 1035.1 1826.1 1026.6V968.8V968.8ZM1815.8 943.5V1026.5C1815.8 1040.7 1827.3 1052.2 1841.5 1052.2H1922.3L1815.8 943.5Z" fill="white"/>
<path d="M1841.4 1300.5H1681.3C1678.5 1300.5 1676.1 1298.2 1676.1 1295.3V1123.5C1676.1 1120.7 1678.4 1118.3 1681.3 1118.3H1841.4C1844.2 1118.3 1846.6 1120.6 1846.6 1123.5V1295.3C1846.6 1298.2 1844.3 1300.5 1841.4 1300.5ZM1686.4 1290.2H1836.2V1128.7H1686.4V1290.2Z" fill="white"/>
<path d="M1722 1300.5C1719.2 1300.5 1716.8 1298.2 1716.8 1295.3V1123.5C1716.8 1120.7 1719.1 1118.3 1722 1118.3C1724.9 1118.3 1727.2 1120.6 1727.2 1123.5V1295.3C1727.2 1298.2 1724.8 1300.5 1722 1300.5Z" fill="white"/>
<path d="M1841.4 1170.4H1681.3C1678.5 1170.4 1676.1 1168.1 1676.1 1165.2C1676.1 1162.4 1678.4 1160 1681.3 1160H1841.4C1844.2 1160 1846.6 1162.3 1846.6 1165.2C1846.6 1168.1 1844.3 1170.4 1841.4 1170.4Z" fill="white"/>
<path d="M1841.4 1214.5H1681.3C1678.5 1214.5 1676.1 1212.2 1676.1 1209.3C1676.1 1206.5 1678.4 1204.1 1681.3 1204.1H1841.4C1844.2 1204.1 1846.6 1206.4 1846.6 1209.3C1846.6 1212.1 1844.3 1214.5 1841.4 1214.5Z" fill="white"/>
<path d="M1841.4 1257.3H1681.3C1678.5 1257.3 1676.1 1255 1676.1 1252.1C1676.1 1249.2 1678.4 1246.9 1681.3 1246.9H1841.4C1844.2 1246.9 1846.6 1249.2 1846.6 1252.1C1846.6 1255 1844.3 1257.3 1841.4 1257.3Z" fill="white"/>
<path d="M1795.6 1300.5C1792.8 1300.5 1790.4 1298.2 1790.4 1295.3V1123.5C1790.4 1120.7 1792.7 1118.3 1795.6 1118.3C1798.5 1118.3 1800.8 1120.6 1800.8 1123.5V1295.3C1800.8 1298.2 1798.5 1300.5 1795.6 1300.5Z" fill="white"/>
<path d="M2748.8 1893.5V2257.8C2748.8 2285.7 2726.2 2308.4 2698.2 2308.4H2382.1C2354.2 2308.4 2331.5 2285.8 2331.5 2257.8V1793.2C2331.5 1765.3 2354.1 1742.6 2382.1 1742.6H2601.1L2604.2 1745.8L2746.6 1891.2L2748.8 1893.5Z" fill="url(#paint8_linear_333_1047)"/>
<path d="M2761.3 1879.6V2243.9C2761.3 2271.8 2738.7 2294.5 2710.7 2294.5H2394.6C2366.7 2294.5 2344 2271.9 2344 2243.9V1779.3C2344 1751.4 2366.6 1728.7 2394.6 1728.7H2613.6L2616.7 1731.9L2759.1 1877.3L2761.3 1879.6Z" fill="url(#paint9_linear_333_1047)"/>
<path d="M2607.8 1742.5L2747.5 1885.2V2244C2747.5 2264.3 2731 2280.8 2710.7 2280.8H2394.6C2374.3 2280.8 2357.8 2264.3 2357.8 2244V1779.4C2357.8 1759.1 2374.3 1742.6 2394.6 1742.6H2607.8V1742.5ZM2613.6 1728.7H2394.6C2366.7 1728.7 2344 1751.3 2344 1779.3V2243.9C2344 2271.8 2366.6 2294.5 2394.6 2294.5H2710.7C2738.6 2294.5 2761.3 2271.9 2761.3 2243.9V1879.6L2759.1 1877.3L2616.7 1731.9L2613.6 1728.7Z" fill="white"/>
<path d="M2759.1 1877.3H2651.1C2632.1 1877.3 2616.7 1861.9 2616.7 1842.9V1731.9L2759.1 1877.3Z" fill="url(#paint10_linear_333_1047)"/>
<path d="M2630.4 1765.6L2726.3 1863.5H2651C2639.6 1863.5 2630.4 1854.2 2630.4 1842.9V1765.6ZM2616.7 1731.9V1842.9C2616.7 1861.9 2632.1 1877.3 2651.1 1877.3H2759.1L2616.7 1731.9Z" fill="white"/>
<path d="M2541 2208.7C2475.1 2208.7 2421.5 2155.1 2421.5 2089.2C2421.5 2024.2 2474.4 1970.6 2539.3 1969.7C2541.3 1969.7 2543 1970.4 2544.3 1971.7C2545.6 1973 2546.4 1974.8 2546.4 1976.7V2083.8H2653.5C2655.4 2083.8 2657.1 2084.5 2658.5 2085.9C2661.2 2088.6 2661.2 2093.1 2658.5 2095.9C2657.2 2097.2 2655.4 2098 2653.5 2098H2554.2L2616 2173.3C2617.2 2174.8 2617.8 2176.6 2617.6 2178.5C2617.4 2180.4 2616.5 2182.1 2615 2183.2C2593.7 2199.8 2568.1 2208.7 2541 2208.7ZM2532.4 1984C2478.4 1988.4 2435.5 2034.2 2435.5 2089.2C2435.5 2147.4 2482.8 2194.7 2541 2194.7C2562.6 2194.7 2583 2188.4 2600.5 2176.3L2533.9 2095.2C2532.7 2093.7 2532.1 2091.8 2532.4 2089.9V1984Z" fill="white"/>
<path d="M2696.1 2058.4H2582C2578.1 2058.4 2575 2055.3 2575 2051.4V1937.3C2575 1933.6 2578 1930.5 2581.7 1930.3C2582.3 1930.3 2583 1930.3 2583.6 1930.3C2649.5 1930.3 2703.1 1983.9 2703.1 2049.8C2703.1 2050.4 2703.1 2051.1 2703.1 2051.7C2702.9 2055.4 2699.8 2058.4 2696.1 2058.4ZM2589 2044.4H2689C2686.3 1990.5 2642.9 1947.2 2589 1944.4V2044.4Z" fill="white"/>
<path d="M2610.6 2186C2608.2 2186 2605.7 2184.9 2604.1 2182.9L2532.9 2096.1C2530.8 2093.6 2530.4 2090.1 2531.8 2087.1C2533.2 2084.2 2536.2 2082.3 2539.4 2082.3H2653.5C2655.8 2082.3 2657.9 2083.2 2659.5 2084.8C2661.1 2086.4 2662 2088.6 2661.9 2090.8C2661.4 2127.4 2644.6 2161.4 2615.8 2184C2614.3 2185.4 2612.4 2186 2610.6 2186ZM2557.2 2099.2L2611.7 2165.5C2630.5 2148.1 2642.2 2124.6 2644.6 2099.2H2557.2Z" fill="white"/>
<path d="M2268.5 998.5V1184.5C2268.5 1198.8 2256.9 1210.3 2242.7 1210.3H2081.3C2067 1210.3 2055.5 1198.7 2055.5 1184.5V947.3C2055.5 933 2067.1 921.5 2081.3 921.5H2193.1L2194.7 923.1L2267.4 997.3L2268.5 998.5Z" fill="url(#paint11_linear_333_1047)"/>
<path d="M2274.9 991.4V1177.4C2274.9 1191.7 2263.3 1203.2 2249.1 1203.2H2087.7C2073.4 1203.2 2061.9 1191.6 2061.9 1177.4V940.2C2061.9 925.9 2073.5 914.4 2087.7 914.4H2199.5L2201.1 916L2273.8 990.2L2274.9 991.4Z" fill="url(#paint12_linear_333_1047)"/>
<path d="M2195.9 923L2266.3 994.9V1177.4C2266.3 1186.9 2258.6 1194.6 2249.1 1194.6H2087.7C2078.2 1194.6 2070.5 1186.9 2070.5 1177.4V940.2C2070.5 930.7 2078.2 923 2087.7 923H2195.9ZM2199.5 914.4H2087.7C2073.4 914.4 2061.9 926 2061.9 940.2V1177.4C2061.9 1191.7 2073.5 1203.2 2087.7 1203.2H2249.1C2263.4 1203.2 2274.9 1191.6 2274.9 1177.4V991.4L2273.8 990.2L2201.1 916L2199.5 914.4Z" fill="white"/>
<path d="M2273.8 990.2H2218.6C2208.9 990.2 2201 982.3 2201 972.6V916L2273.8 990.2Z" fill="url(#paint13_linear_333_1047)"/>
<path d="M2209.6 936.9L2253.5 981.7H2218.6C2213.6 981.7 2209.6 977.6 2209.6 972.7V936.9ZM2201.1 916V972.7C2201.1 982.4 2209 990.3 2218.7 990.3H2273.9L2201.1 916Z" fill="white"/>
<path d="M2229.6 1149.9H2110.3C2107.8 1149.9 2105.8 1147.9 2105.8 1145.4V1046C2105.8 1043.5 2107.8 1041.5 2110.3 1041.5H2229.6C2232.1 1041.5 2234.1 1043.5 2234.1 1046V1145.5C2234.1 1147.9 2232.1 1149.9 2229.6 1149.9ZM2114.7 1141H2225.1V1050.5H2114.7V1141Z" fill="white"/>
<path d="M2110.3 1131.1C2109.2 1131.1 2108.1 1130.7 2107.2 1129.9C2105.4 1128.2 2105.3 1125.4 2107 1123.6L2139.7 1089.3C2140.5 1088.4 2141.7 1087.9 2142.8 1087.9C2144 1087.9 2145.1 1088.3 2146 1089.2L2163.1 1105.9L2191.4 1078.5C2193.2 1076.8 2196 1076.8 2197.7 1078.6L2232.7 1114.4C2234.4 1116.2 2234.4 1119 2232.6 1120.7C2230.8 1122.4 2228 1122.4 2226.3 1120.6L2194.4 1088L2166.2 1115.3C2164.5 1117 2161.7 1117 2160 1115.3L2143 1098.7L2113.4 1129.7C2112.6 1130.6 2111.5 1131.1 2110.3 1131.1Z" fill="white"/>
<path d="M2194 1553.9V1845.7C2194 1868.1 2175.9 1886.2 2153.5 1886.2H1900.3C1877.9 1886.2 1859.8 1868.1 1859.8 1845.7V1473.6C1859.8 1451.2 1877.9 1433.1 1900.3 1433.1H2075.7L2078.2 1435.6L2192.2 1552L2194 1553.9Z" fill="url(#paint14_linear_333_1047)"/>
<path d="M2204 1542.8V1834.6C2204 1857 2185.9 1875.1 2163.5 1875.1H1910.3C1887.9 1875.1 1869.8 1857 1869.8 1834.6V1462.5C1869.8 1440.1 1887.9 1422 1910.3 1422H2085.7L2088.2 1424.5L2202.2 1540.9L2204 1542.8Z" fill="url(#paint15_linear_333_1047)"/>
<path d="M2080.8 1433.7L2192.3 1547.6V1834.7C2192.3 1850.6 2179.4 1863.5 2163.5 1863.5H1910.3C1894.4 1863.5 1881.5 1850.6 1881.5 1834.7V1462.6C1881.5 1446.7 1894.4 1433.8 1910.3 1433.8H2080.8V1433.7ZM2085.7 1422H1910.3C1887.9 1422 1869.8 1440.1 1869.8 1462.5V1834.6C1869.8 1857 1887.9 1875.1 1910.3 1875.1H2163.5C2185.9 1875.1 2204 1857 2204 1834.6V1542.8L2202.2 1541L2088.2 1424.6L2085.7 1422Z" fill="white"/>
<path d="M2202.2 1540.9H2115.7C2100.5 1540.9 2088.2 1528.6 2088.2 1513.4V1424.5L2202.2 1540.9Z" fill="url(#paint16_linear_333_1047)"/>
<path d="M2099.9 1453.1L2174.4 1529.2H2115.7C2107 1529.2 2099.9 1522.1 2099.9 1513.4V1453.1ZM2088.2 1424.5V1513.4C2088.2 1528.6 2100.5 1540.9 2115.7 1540.9H2202.2L2088.2 1424.5Z" fill="white"/>
<path d="M2124.5 1642.1H2066.6C2063.3 1642.1 2060.6 1639.4 2060.6 1636.1C2060.6 1632.8 2063.3 1630.1 2066.6 1630.1H2124.5C2127.8 1630.1 2130.5 1632.8 2130.5 1636.1C2130.5 1639.4 2127.8 1642.1 2124.5 1642.1Z" fill="white"/>
<path d="M2124.5 1686.7H2066.6C2063.3 1686.7 2060.6 1684 2060.6 1680.7C2060.6 1677.4 2063.3 1674.7 2066.6 1674.7H2124.5C2127.8 1674.7 2130.5 1677.4 2130.5 1680.7C2130.5 1684 2127.8 1686.7 2124.5 1686.7Z" fill="white"/>
<path d="M2120.4 1733.8H1948.9C1945.6 1733.8 1942.9 1731.1 1942.9 1727.8C1942.9 1724.5 1945.6 1721.8 1948.9 1721.8H2120.4C2123.7 1721.8 2126.4 1724.5 2126.4 1727.8C2126.4 1731.1 2123.7 1733.8 2120.4 1733.8Z" fill="white"/>
<path d="M2120.4 1779.8H1948.9C1945.6 1779.8 1942.9 1777.1 1942.9 1773.8C1942.9 1770.5 1945.6 1767.8 1948.9 1767.8H2120.4C2123.7 1767.8 2126.4 1770.5 2126.4 1773.8C2126.4 1777.1 2123.7 1779.8 2120.4 1779.8Z" fill="white"/>
<path d="M2033.5 1690.4H1948.3C1945 1690.4 1942.3 1687.7 1942.3 1684.4V1635.9C1942.3 1632.6 1945 1629.9 1948.3 1629.9H2033.5C2036.8 1629.9 2039.5 1632.6 2039.5 1635.9V1684.4C2039.5 1687.7 2036.8 1690.4 2033.5 1690.4ZM1954.2 1678.4H2027.4V1642H1954.2V1678.4Z" fill="white"/>
<path d="M1285.5 2286C1323.5 2289.2 1357.1 2258.4 1360.6 2217.3C1364.1 2176.2 1336.1 2140.2 1298.1 2137C1296.1 2136.8 1294.2 2136.8 1292.2 2136.8C1290.4 2115.6 1287.1 2094.7 1282.3 2074.5C1284.1 2073.8 1285.9 2073 1287.7 2072.1C1322.3 2054.3 1337.4 2009.7 1321.4 1972.5C1305.4 1935.3 1264.4 1919.5 1229.7 1937.3C1227.9 1938.2 1226.2 1939.3 1224.5 1940.3C1213.2 1923.2 1200.7 1907.1 1187 1892.2C1188.3 1890.6 1189.5 1888.9 1190.6 1887.1C1212.6 1853.1 1205.2 1806.6 1174 1783.2C1142.8 1759.9 1099.7 1768.5 1077.7 1802.5C1076.6 1804.2 1075.6 1806 1074.6 1807.8C1057 1799.3 1038.6 1792.3 1019.6 1786.8C1019.9 1784.7 1020.2 1782.6 1020.4 1780.5C1023.9 1739.4 1031.4 1692.9 993.299 1690.3C905.299 1684.3 886.299 1727.8 882.799 1768.9C882.599 1771 882.599 1773.1 882.599 1775.2C862.899 1777.4 843.599 1781.3 824.899 1786.7C824.199 1784.8 823.599 1782.8 822.699 1780.9C806.699 1743.7 809.599 1718.8 773.199 1732.8C693.899 1763.2 681.199 1808.1 697.199 1845.4C697.999 1847.3 698.999 1849.2 699.899 1851C683.999 1863.5 668.899 1877.2 654.899 1892.2C653.399 1890.9 651.899 1889.5 650.199 1888.3C618.999 1865 575.899 1873.6 553.899 1907.7C531.899 1941.7 539.299 1988.2 570.499 2011.6C572.099 2012.8 573.699 2013.9 575.399 2014.9C567.299 2034 560.599 2054 555.199 2074.7C553.299 2074.4 551.399 2074.1 549.399 2073.9C511.399 2070.7 477.799 2101.5 474.299 2142.6C470.799 2183.7 498.799 2219.7 536.799 2222.9C538.799 2223.1 540.699 2223.1 542.699 2223.1C544.499 2244.3 547.799 2265.2 552.599 2285.4C550.799 2286.1 548.999 2286.9 547.199 2287.8C512.599 2305.6 497.499 2350.2 513.499 2387.4C529.499 2424.6 570.499 2440.4 605.199 2422.6C606.999 2421.7 608.699 2420.6 610.399 2419.6C621.699 2436.7 634.199 2452.8 647.899 2467.7C646.599 2469.3 645.399 2471 644.299 2472.8C622.299 2506.8 629.699 2553.3 660.899 2576.7C692.099 2600 759.499 2589.4 781.499 2555.3C782.599 2553.6 759.299 2553.8 760.199 2552C777.799 2560.5 796.199 2567.5 815.199 2573C814.899 2575.1 814.599 2577.2 814.399 2579.3C810.899 2620.4 838.899 2656.4 876.899 2659.6C914.899 2662.8 948.499 2632 951.999 2590.9C952.199 2588.8 952.199 2586.7 952.199 2584.6C971.899 2582.4 991.199 2578.5 1009.9 2573.1C1010.6 2575 1011.2 2577 1012.1 2578.9C1028.1 2616.1 1069.1 2631.9 1103.8 2614.1C1138.4 2596.3 1153.5 2551.7 1137.5 2514.5C1136.7 2512.6 1135.7 2510.7 1134.8 2508.9C1150.7 2496.4 1165.8 2482.7 1179.8 2467.7C1181.3 2469 1182.8 2470.4 1184.5 2471.6C1215.7 2494.9 1258.8 2486.3 1280.8 2452.3C1302.8 2418.3 1295.4 2371.8 1264.2 2348.4C1262.6 2347.2 1261 2346.1 1259.3 2345.1C1267.4 2326 1274.1 2306 1279.5 2285.3C1281.6 2285.5 1283.5 2285.8 1285.5 2286ZM894.899 2450.4C756.999 2438.8 655.299 2308.3 667.899 2158.9C680.499 2009.5 802.499 1897.9 940.399 1909.5C1078.3 1921.1 1180 2051.6 1167.4 2201C1154.8 2350.4 1032.8 2462 894.899 2450.4Z" fill="#BFC6D1"/>
<path d="M1287.7 2072.1C1322.3 2054.3 1337.4 2009.7 1321.4 1972.5C1305.4 1935.3 1264.4 1919.5 1229.7 1937.3C1227.9 1938.2 1226.2 1939.3 1224.5 1940.3C1213.2 1923.2 1200.7 1907.1 1187 1892.2C1188.3 1890.6 1189.5 1888.9 1190.6 1887.1C1212.6 1853.1 1229.5 1785.6 1196.1 1765.6C1132.7 1727.6 1099.7 1768.6 1077.7 1802.6C1076.6 1804.3 1075.6 1806.1 1074.6 1807.9C1057 1799.4 1038.6 1792.4 1019.6 1786.9C1019.9 1784.8 1020.2 1782.7 1020.4 1780.6C1022.3 1758.2 1014.8 1737.4 1001.5 1722.5C992.999 1786.8 985.099 1851.2 977.699 1915.7C1096.1 1945.5 1178.6 2065.4 1167.2 2200.9C1157.5 2315.7 1083.2 2408.2 986.699 2439.6C986.899 2452.1 987.199 2464.7 987.099 2477.3C986.799 2511.4 984.599 2545.6 982.299 2579.7C991.699 2577.8 1000.9 2575.6 1010.1 2572.9C1010.8 2574.8 1011.4 2576.8 1012.3 2578.7C1028.3 2615.9 1064 2638.6 1127.8 2608.7C1163 2592.2 1153.8 2551.5 1137.8 2514.3C1137 2512.4 1136 2510.5 1135.1 2508.7C1151 2496.2 1166.1 2482.5 1180.1 2467.5C1181.6 2468.8 1183.1 2470.2 1184.8 2471.4C1216 2494.7 1285.9 2481.6 1307.9 2447.6C1329.9 2413.6 1295.6 2371.5 1264.5 2348.2C1262.9 2347 1261.3 2345.9 1259.6 2344.9C1267.7 2325.8 1274.4 2305.8 1279.8 2285.1C1281.7 2285.4 1283.6 2285.7 1285.6 2285.9C1323.6 2289.1 1357.2 2258.3 1360.7 2217.2C1364.2 2176.1 1336.2 2140.1 1298.2 2136.9C1296.2 2136.7 1294.3 2136.7 1292.3 2136.7C1290.5 2115.5 1287.2 2094.6 1282.4 2074.4C1284.1 2073.8 1285.9 2073 1287.7 2072.1Z" fill="#BFC6D1"/>
<path d="M1320.9 2276C1358.9 2279.2 1392.5 2248.4 1396 2207.3C1399.5 2166.2 1371.5 2130.2 1333.5 2127C1331.5 2126.8 1329.6 2126.8 1327.6 2126.8C1325.8 2105.6 1322.5 2084.7 1317.7 2064.5C1319.5 2063.8 1321.3 2063 1323.1 2062.1C1357.7 2044.3 1372.8 1999.7 1356.8 1962.5C1340.8 1925.3 1299.8 1909.5 1265.1 1927.3C1263.3 1928.2 1261.6 1929.3 1259.9 1930.3C1248.6 1913.2 1236.1 1897.1 1222.4 1882.2C1223.7 1880.6 1224.9 1878.9 1226 1877.1C1248 1843.1 1240.6 1796.6 1209.4 1773.2C1178.2 1749.9 1135.1 1758.5 1113.1 1792.5C1112 1794.2 1111 1796 1110 1797.8C1092.4 1789.3 1074 1782.3 1055 1776.8C1055.3 1774.7 1055.6 1772.6 1055.8 1770.5C1059.3 1729.4 1031.3 1693.4 993.299 1690.2C955.299 1687 921.699 1717.8 918.199 1758.9C917.999 1761 917.999 1763.1 917.999 1765.2C898.299 1767.4 878.999 1771.3 860.299 1776.7C859.599 1774.8 858.999 1772.8 858.099 1770.9C842.099 1733.7 801.099 1717.9 766.399 1735.7C731.799 1753.5 716.699 1798.1 732.699 1835.3C733.499 1837.2 734.499 1839.1 735.399 1840.9C719.499 1853.4 704.399 1867.1 690.399 1882.1C688.899 1880.8 687.399 1879.4 685.699 1878.2C654.499 1854.9 611.399 1863.5 589.399 1897.6C567.399 1931.6 574.799 1978.1 605.999 2001.5C607.599 2002.7 609.199 2003.8 610.899 2004.8C602.799 2023.9 596.099 2043.9 590.699 2064.6C588.799 2064.3 586.899 2064 584.899 2063.8C546.899 2060.6 513.299 2091.4 509.799 2132.5C506.299 2173.6 534.299 2209.6 572.299 2212.8C574.299 2213 576.199 2213 578.199 2213C579.999 2234.2 583.299 2255.1 588.099 2275.3C586.299 2276 584.499 2276.8 582.699 2277.7C548.099 2295.5 532.999 2340.1 548.999 2377.3C564.999 2414.5 605.999 2430.3 640.699 2412.5C642.499 2411.6 644.199 2410.5 645.899 2409.5C657.199 2426.6 669.699 2442.7 683.399 2457.6C682.099 2459.2 680.899 2460.9 679.799 2462.7C657.799 2496.7 665.199 2543.2 696.399 2566.6C727.599 2589.9 770.699 2581.3 792.699 2547.3C793.799 2545.6 794.799 2543.8 795.799 2542C813.399 2550.5 831.799 2557.5 850.799 2563C850.499 2565.1 850.199 2567.2 849.999 2569.3C846.499 2610.4 874.499 2646.4 912.499 2649.6C950.499 2652.8 984.099 2622 987.599 2580.9C987.799 2578.8 987.799 2576.7 987.799 2574.6C1007.5 2572.4 1026.8 2568.5 1045.5 2563.1C1046.2 2565 1046.8 2567 1047.7 2568.9C1063.7 2606.1 1104.7 2621.9 1139.4 2604.1C1174 2586.3 1189.1 2541.7 1173.1 2504.5C1172.3 2502.6 1171.3 2500.7 1170.4 2498.9C1186.3 2486.4 1201.4 2472.7 1215.4 2457.7C1216.9 2459 1218.4 2460.4 1220.1 2461.6C1251.3 2484.9 1294.4 2476.3 1316.4 2442.3C1338.4 2408.3 1331 2361.8 1299.8 2338.4C1298.2 2337.2 1296.6 2336.2 1294.9 2335.1C1303 2316 1309.7 2296 1315.1 2275.3C1317 2275.6 1319 2275.9 1320.9 2276ZM930.299 2440.5C792.399 2428.9 690.699 2298.4 703.299 2149C715.899 1999.6 837.899 1888 975.799 1899.6C1113.7 1911.2 1215.4 2041.7 1202.8 2191.1C1190.3 2340.4 1068.3 2452.1 930.299 2440.5Z" fill="#D8DEE8"/>
<path d="M1181.6 2707.2C1174.8 2721 1176.7 2726.9 1178.4 2729.5C1183.3 2737.1 1195.2 2729.9 1226.2 2733.6C1229.8 2734 1236.8 2735 1245.4 2732.9C1252.8 2731.2 1261.5 2727.2 1261.2 2725.2C1261.1 2724.5 1259.7 2724.2 1259.2 2724.1C1250.6 2722.3 1196.8 2705.8 1196.8 2705.8L1181.6 2707.2Z" fill="url(#paint17_linear_333_1047)"/>
<path d="M1177.5 2676.9L1182.3 2707.7C1182.3 2707.7 1195.5 2717 1199 2705.7C1201.5 2697.5 1201.4 2675.5 1201.4 2675.5L1177.5 2676.9Z" fill="url(#paint18_linear_333_1047)"/>
<path d="M1333.6 2692.1L1320.7 2727.6L1301.8 2724.6L1306.2 2691.7L1333.6 2692.1Z" fill="url(#paint19_linear_333_1047)"/>
<path d="M1314.8 2747.1C1305.7 2736.3 1297.5 2737.2 1295.9 2729.8C1294.6 2724 1298.2 2716.8 1303.6 2714C1311.2 2710.2 1320.4 2716.2 1322.5 2717.5C1336.6 2726.7 1332.8 2741 1346.1 2747.3C1348.8 2748.6 1353 2749.9 1357.5 2754.1C1359.4 2755.9 1364.1 2760.3 1363 2763.3C1361.7 2766.8 1353.3 2766.7 1345.3 2766.6C1335.7 2766.5 1330.9 2766.4 1326.3 2763.5C1319.9 2759.5 1321.8 2755.4 1314.8 2747.1Z" fill="url(#paint20_linear_333_1047)"/>
<path d="M1076.6 1940.6C1080.1 2012.2 1090.3 2073.3 1102 2123.1C1114.5 2176.7 1121.4 2185.9 1125.7 2223C1135.2 2303.9 1109.3 2316 1106.5 2407.7C1103.4 2508.9 1132 2588.7 1143.2 2619.2C1153 2645.8 1163.2 2667.2 1170.8 2682.1C1180.2 2690 1194.4 2686.6 1209.2 2683.2C1212.7 2591.4 1217.8 2504.9 1221.3 2413.1C1236.1 2274.7 1250.9 2136.4 1265.7 1998C1202.6 1978.9 1139.6 1959.8 1076.6 1940.6Z" fill="url(#paint21_linear_333_1047)"/>
<path opacity="0.3" d="M1209.2 2683.2C1212.7 2591.4 1217.8 2504.9 1221.3 2413.1C1236.1 2274.7 1250.9 2136.4 1265.7 1998C1202.7 1978.9 1139.6 1959.7 1076.6 1940.6C1076.8 1945.3 1077.2 1949.9 1077.5 1954.6C1166.9 2029 1185.4 2089 1185.5 2130.2C1185.5 2180.2 1158.7 2205.6 1165.6 2277.9C1170.5 2329.6 1186.3 2338.4 1187.3 2385.2C1188.6 2445.4 1163.5 2479.8 1151.6 2514.9C1140.2 2548.8 1136.9 2596.5 1161.8 2663.7C1165 2670.6 1168.1 2676.8 1170.8 2682.1C1180.2 2690 1194.3 2686.6 1209.2 2683.2Z" fill="url(#paint22_linear_333_1047)"/>
<path d="M1188.9 2007.2C1236.6 2083.9 1263.5 2144.5 1278.1 2182C1287.1 2204.9 1295.2 2228.7 1297.7 2260.1C1300.7 2298.6 1293.7 2330.5 1287.5 2350.9C1278.4 2377.1 1270.3 2407.6 1265.5 2441.9C1250.1 2553.3 1278.1 2645.7 1299.6 2698.7C1310.8 2702.6 1322 2706.5 1333.2 2710.3C1356.9 2639.3 1385.6 2538.6 1405.1 2414.8C1415.8 2347.2 1423.9 2294.2 1422.5 2227.1C1421.1 2156.3 1408.6 2044.6 1347.8 1912.1C1295 1943.9 1241.9 1975.6 1188.9 2007.2Z" fill="url(#paint23_linear_333_1047)"/>
<path d="M1201.5 1394.1C1272.5 1404.7 1326.6 1416.2 1351.5 1452.8C1377.7 1491.4 1338 1521.7 1328.9 1607.8C1314.9 1739.6 1391.5 1787.1 1372.6 1919.9C1366.2 1964.7 1351.8 1999.5 1341.8 2020.2C1319.3 2039.3 1283.6 2065.6 1234.6 2083.9C1163.4 2110.5 1127.7 2096.7 1031.3 2104.3C873.6 2116.7 851 2163 779.1 2136.4C706.4 2109.5 652.6 2033.7 667.2 2000.5C675.9 1980.6 705.1 1992.3 746 1967.3C798.7 1935 788.8 1892.7 831.4 1855.3C892.5 1801.6 953.5 1853.2 1005.7 1806.5C1058.5 1759.3 1062.6 1647.2 1038.2 1581C1022.3 1537.8 1021 1490.4 1009 1446C1008 1442.3 1007.1 1436.4 1009.3 1429.6C1017.6 1403.7 1064.5 1397.8 1099.9 1393.6C1153.9 1387.3 1195.6 1393.3 1201.5 1394.1Z" fill="url(#paint24_linear_333_1047)"/>
<path opacity="0.3" d="M786.3 2086.3C807.8 2071.3 795.1 2030.2 827 2007.6C856.6 1986.6 880.6 2012.7 924.6 1998.2C981 1979.6 976.9 1925 1030.9 1906.3C1069.8 1892.9 1082.1 1917.6 1138.6 1917.5C1195 1917.4 1268.3 1892.5 1313.8 1831.8C1333.1 1806 1343.7 1778.7 1349.2 1753.5C1365.3 1801.9 1382.7 1848.6 1372.5 1919.9C1366.1 1964.7 1351.7 1999.5 1341.7 2020.2C1319.2 2039.3 1283.5 2065.6 1234.5 2083.9C1163.3 2110.5 1127.6 2096.7 1031.2 2104.3C873.5 2116.7 850.9 2163 779 2136.4C732.5 2119.2 693.9 2082.1 675.8 2048.8C739.2 2092.8 770.6 2097.2 786.3 2086.3Z" fill="url(#paint25_linear_333_1047)"/>
<path d="M1239.7 1270.8C1239.7 1270.8 1260 1307 1261.8 1332.6C1263.6 1358.3 1234.6 1357 1234.6 1357L1236 1373.2C1237.2 1387 1246.5 1398.8 1259.6 1403.3L1271.1 1407.3C1271.1 1407.3 1196.8 1424.9 1155.4 1397L1167.1 1395.6C1183.7 1393.6 1196.6 1380.2 1197.9 1363.5L1198.5 1356.6C1198.5 1356.6 1183.8 1276.8 1239.7 1270.8Z" fill="url(#paint26_linear_333_1047)"/>
<path d="M1358.4 1676.5L1450.7 1470.5C1451.8 1468 1454.5 1466.5 1457.3 1466.8L1618.7 1487.1C1623 1487.6 1625.5 1492.3 1623.6 1496.2L1514.8 1718.8C1513.5 1721.5 1510.5 1722.9 1507.6 1722.2L1363.9 1686.7L1358.4 1676.5Z" fill="url(#paint27_linear_333_1047)"/>
<path d="M1383.8 1651.5L1458.5 1484.7C1459.4 1482.6 1461.6 1481.4 1463.8 1481.7L1594.5 1498.2C1598 1498.6 1600 1502.4 1598.5 1505.5L1510.4 1685.7C1509.3 1687.9 1506.9 1689 1504.6 1688.4L1388.3 1659.6L1383.8 1651.5Z" fill="#F4F7FA"/>
<path d="M1485.6 1483.7L1491.5 1470.3C1492.3 1468.4 1494.3 1467.3 1496.3 1467.6L1563.5 1475.5C1566.6 1475.9 1568.5 1479.2 1567.2 1482L1560.6 1496.6C1559.8 1498.5 1557.8 1499.6 1555.8 1499.3L1489.3 1490.2C1486.1 1489.8 1484.3 1486.6 1485.6 1483.7Z" fill="url(#paint28_linear_333_1047)"/>
<path d="M1577.2 1528.8C1577.1 1528.8 1577 1528.8 1576.9 1528.8L1458.5 1513.6C1457 1513.4 1456 1512.1 1456.2 1510.6C1456.4 1509.1 1457.8 1508.1 1459.2 1508.3L1577.6 1523.5C1579.1 1523.7 1580.1 1525 1579.9 1526.5C1579.7 1527.9 1578.5 1528.9 1577.2 1528.8Z" fill="#D8DEE8"/>
<path d="M1571.1 1540.8C1571 1540.8 1570.9 1540.8 1570.8 1540.8L1453 1524.5C1451.5 1524.3 1450.5 1523 1450.7 1521.5C1450.9 1520 1452.2 1519 1453.7 1519.2L1571.5 1535.5C1573 1535.7 1574 1537 1573.8 1538.5C1573.6 1539.8 1572.4 1540.8 1571.1 1540.8Z" fill="#D8DEE8"/>
<path d="M1511.9 1559.6C1511.8 1559.6 1511.6 1559.6 1511.5 1559.6L1447.3 1548.9C1445.8 1548.7 1444.9 1547.3 1445.1 1545.8C1445.3 1544.4 1446.7 1543.4 1448.2 1543.6L1512.4 1554.3C1513.9 1554.5 1514.8 1555.9 1514.6 1557.4C1514.3 1558.7 1513.1 1559.6 1511.9 1559.6Z" fill="#D8DEE8"/>
<path d="M1541.3 1664.3C1541.3 1664.3 1567.6 1646.4 1570.7 1633.8C1573.8 1621.2 1573 1597.5 1573 1597.5L1557.7 1630.9C1557.7 1630.9 1550.3 1628.8 1547.1 1617.8C1543.9 1606.8 1538.5 1616.9 1540.7 1625.2C1542.8 1633.5 1541.3 1664.3 1541.3 1664.3Z" fill="url(#paint29_linear_333_1047)"/>
<path d="M1338.8 1440.4C1352.7 1448.9 1373.6 1463.7 1392.1 1487.7C1444.8 1555.9 1424.2 1628.5 1467.8 1654.2C1480.3 1661.5 1502.1 1667.5 1541.6 1653.5L1556.7 1661.6C1556.7 1661.6 1575.2 1755.6 1461 1759.1C1346.8 1762.6 1289.9 1620.7 1289.9 1620.7L1338.8 1440.4Z" fill="url(#paint30_linear_333_1047)"/>
<path d="M1228.8 1307.5C1224.9 1307.3 1221.6 1302.4 1219 1303.9C1216.3 1305.5 1216.7 1312.6 1219.2 1317.6C1221.3 1321.7 1224.5 1323.9 1226.4 1325C1223.5 1329.2 1219.9 1335.7 1218.5 1344.1C1215.4 1362.7 1225.6 1377.4 1229.9 1386.1C1249.2 1425.1 1221.8 1487.9 1190.9 1520C1165.8 1546.1 1153.6 1536.1 1138.7 1557.3C1109.8 1598.5 1151.9 1642.3 1137.6 1697.3C1115.9 1780.9 985.3 1808.4 979.8 1809.5C977.7 1809.9 976.2 1810.2 974 1810.6C915.3 1821.2 826.4 1837.3 762.6 1790.3C714.8 1755.2 691.9 1692.7 694.3 1637.2C694.9 1622.6 698.2 1567.2 742.3 1521.1C749.3 1513.8 790.8 1470.5 848 1468.8C878.3 1467.9 884.7 1478.4 907.7 1471.3C939.3 1461.6 958.2 1432.3 969.9 1414.1C991.5 1380.7 982.3 1373.8 998 1357.3C1028.8 1324.9 1066.2 1349 1099.2 1320.3C1131.7 1292 1110.9 1255 1142.4 1230.4C1174.9 1205 1238.1 1212.3 1252.2 1241.4C1264.4 1266.2 1240.7 1308.2 1228.8 1307.5Z" fill="url(#paint31_linear_333_1047)"/>
<defs>
<linearGradient id="paint0_linear_333_1047" x1="1473.76" y1="2781.3" x2="1525.81" y2="2278.14" gradientUnits="userSpaceOnUse">
<stop stop-color="#584389"/>
<stop offset="0.9964" stop-color="#26264F"/>
</linearGradient>
<linearGradient id="paint1_linear_333_1047" x1="1112.54" y1="1377.39" x2="563.111" y2="1441.01" gradientUnits="userSpaceOnUse">
<stop stop-color="#584389"/>
<stop offset="0.3946" stop-color="#573872"/>
<stop offset="0.9964" stop-color="#26264F"/>
</linearGradient>
<linearGradient id="paint2_linear_333_1047" x1="286.541" y1="1407.48" x2="2522.43" y2="1407.48" gradientUnits="userSpaceOnUse">
<stop stop-color="#584389"/>
<stop offset="0.9964" stop-color="#26264F"/>
</linearGradient>
<linearGradient id="paint3_linear_333_1047" x1="103.999" y1="600.847" x2="1329.03" y2="2361.83" gradientUnits="userSpaceOnUse">
<stop stop-color="#B183E2"/>
<stop offset="0.9964" stop-color="#927ADD"/>
</linearGradient>
<linearGradient id="paint4_linear_333_1047" x1="390.95" y1="984.01" x2="1525.97" y2="984.01" gradientUnits="userSpaceOnUse">
<stop stop-color="#8356AF"/>
<stop offset="1" stop-color="#7360A0"/>
</linearGradient>
<linearGradient id="paint5_linear_333_1047" x1="1764.6" y1="1510.21" x2="1758.36" y2="1193.85" gradientUnits="userSpaceOnUse">
<stop stop-color="#8356AF"/>
<stop offset="1" stop-color="#7360A0"/>
</linearGradient>
<linearGradient id="paint6_linear_333_1047" x1="1617.24" y1="1242.25" x2="2894.1" y2="483.625" gradientUnits="userSpaceOnUse">
<stop stop-color="#8356AF"/>
<stop offset="1" stop-color="#7360A0"/>
</linearGradient>
<linearGradient id="paint7_linear_333_1047" x1="1815.76" y1="997.915" x2="1922.27" y2="997.915" gradientUnits="userSpaceOnUse">
<stop stop-color="#8356AF"/>
<stop offset="1" stop-color="#7360A0"/>
</linearGradient>
<linearGradient id="paint8_linear_333_1047" x1="2548.28" y1="2489.48" x2="2539.94" y2="2066.54" gradientUnits="userSpaceOnUse">
<stop stop-color="#8356AF"/>
<stop offset="1" stop-color="#7360A0"/>
</linearGradient>
<linearGradient id="paint9_linear_333_1047" x1="2061.19" y1="2775.24" x2="2875.07" y2="1510.6" gradientUnits="userSpaceOnUse">
<stop stop-color="#8356AF"/>
<stop offset="1" stop-color="#7360A0"/>
</linearGradient>
<linearGradient id="paint10_linear_333_1047" x1="2616.68" y1="1804.58" x2="2759.07" y2="1804.58" gradientUnits="userSpaceOnUse">
<stop stop-color="#8356AF"/>
<stop offset="1" stop-color="#7360A0"/>
</linearGradient>
<linearGradient id="paint11_linear_333_1047" x1="2166.16" y1="1302.82" x2="2161.9" y2="1086.86" gradientUnits="userSpaceOnUse">
<stop stop-color="#B183E2"/>
<stop offset="0.9964" stop-color="#927ADD"/>
</linearGradient>
<linearGradient id="paint12_linear_333_1047" x1="2082.8" y1="1109.66" x2="2954.44" y2="591.791" gradientUnits="userSpaceOnUse">
<stop stop-color="#B183E2"/>
<stop offset="0.9964" stop-color="#927ADD"/>
</linearGradient>
<linearGradient id="paint13_linear_333_1047" x1="2092.49" y1="1098.05" x2="2436.5" y2="754.04" gradientUnits="userSpaceOnUse">
<stop stop-color="#B183E2"/>
<stop offset="0.9964" stop-color="#927ADD"/>
</linearGradient>
<linearGradient id="paint14_linear_333_1047" x1="2033.4" y1="2031.25" x2="2026.71" y2="1692.52" gradientUnits="userSpaceOnUse">
<stop stop-color="#AA80F9"/>
<stop offset="0.9964" stop-color="#8A63D6"/>
</linearGradient>
<linearGradient id="paint15_linear_333_1047" x1="1875.62" y1="1744.34" x2="3242.82" y2="932.037" gradientUnits="userSpaceOnUse">
<stop stop-color="#AA80F9"/>
<stop offset="0.9964" stop-color="#8A63D6"/>
</linearGradient>
<linearGradient id="paint16_linear_333_1047" x1="2088.18" y1="1482.72" x2="2202.22" y2="1482.72" gradientUnits="userSpaceOnUse">
<stop stop-color="#AA80F9"/>
<stop offset="0.9964" stop-color="#8A63D6"/>
</linearGradient>
<linearGradient id="paint17_linear_333_1047" x1="1244.47" y1="2813.44" x2="1181.52" y2="2595.06" gradientUnits="userSpaceOnUse">
<stop stop-color="#444B8C"/>
<stop offset="0.9964" stop-color="#26264F"/>
</linearGradient>
<linearGradient id="paint18_linear_333_1047" x1="1188.2" y1="2770.31" x2="1193.02" y2="2420.92" gradientUnits="userSpaceOnUse">
<stop stop-color="#D783E5"/>
<stop offset="0.9964" stop-color="#C664CC"/>
</linearGradient>
<linearGradient id="paint19_linear_333_1047" x1="1316.84" y1="2772.09" x2="1321.66" y2="2422.7" gradientUnits="userSpaceOnUse">
<stop stop-color="#D783E5"/>
<stop offset="0.9964" stop-color="#C664CC"/>
</linearGradient>
<linearGradient id="paint20_linear_333_1047" x1="1340.95" y1="2785.63" x2="1277.99" y2="2567.24" gradientUnits="userSpaceOnUse">
<stop stop-color="#444B8C"/>
<stop offset="0.9964" stop-color="#26264F"/>
</linearGradient>
<linearGradient id="paint21_linear_333_1047" x1="1168.41" y1="2015.99" x2="1126.36" y2="2737.49" gradientUnits="userSpaceOnUse">
<stop stop-color="#311944"/>
<stop offset="1" stop-color="#734EAD"/>
</linearGradient>
<linearGradient id="paint22_linear_333_1047" x1="1168.41" y1="2015.99" x2="1126.36" y2="2737.49" gradientUnits="userSpaceOnUse">
<stop stop-color="#311944"/>
<stop offset="1" stop-color="#734EAD"/>
</linearGradient>
<linearGradient id="paint23_linear_333_1047" x1="1653.3" y1="2329.87" x2="1065.43" y2="2295.01" gradientUnits="userSpaceOnUse">
<stop stop-color="#311944"/>
<stop offset="1" stop-color="#734EAD"/>
</linearGradient>
<linearGradient id="paint24_linear_333_1047" x1="780.551" y1="2471.97" x2="1209.97" y2="1586.44" gradientUnits="userSpaceOnUse">
<stop stop-color="#8356AF"/>
<stop offset="1" stop-color="#7360A0"/>
</linearGradient>
<linearGradient id="paint25_linear_333_1047" x1="1421.03" y1="1482.21" x2="975.296" y2="2079.33" gradientUnits="userSpaceOnUse">
<stop stop-color="#8356AF"/>
<stop offset="1" stop-color="#7360A0"/>
</linearGradient>
<linearGradient id="paint26_linear_333_1047" x1="1256.18" y1="1322.05" x2="1179.25" y2="1442.73" gradientUnits="userSpaceOnUse">
<stop stop-color="#B183E2"/>
<stop offset="0.9964" stop-color="#927ADD"/>
</linearGradient>
<linearGradient id="paint27_linear_333_1047" x1="1533.82" y1="1514.38" x2="1378.76" y2="1757.64" gradientUnits="userSpaceOnUse">
<stop stop-color="#584389"/>
<stop offset="0.9964" stop-color="#26264F"/>
</linearGradient>
<linearGradient id="paint28_linear_333_1047" x1="1518.55" y1="1498.43" x2="1555.68" y2="1424.06" gradientUnits="userSpaceOnUse">
<stop stop-color="#AA80F9"/>
<stop offset="0.9964" stop-color="#8A63D6"/>
</linearGradient>
<linearGradient id="paint29_linear_333_1047" x1="1564.57" y1="1611.79" x2="1527.36" y2="1670.16" gradientUnits="userSpaceOnUse">
<stop stop-color="#B183E2"/>
<stop offset="0.9964" stop-color="#927ADD"/>
</linearGradient>
<linearGradient id="paint30_linear_333_1047" x1="966.55" y1="2562.19" x2="1395.98" y2="1676.65" gradientUnits="userSpaceOnUse">
<stop stop-color="#8356AF"/>
<stop offset="1" stop-color="#7360A0"/>
</linearGradient>
<linearGradient id="paint31_linear_333_1047" x1="831.238" y1="1826.13" x2="1144.42" y2="1180.31" gradientUnits="userSpaceOnUse">
<stop stop-color="#584389"/>
<stop offset="0.9964" stop-color="#26264F"/>
</linearGradient>
</defs>
</svg>
