<?xml version="1.0" encoding="utf-8"?>
<!-- Generator: Adobe Illustrator 22.0.0, SVG Export Plug-In . SVG Version: 6.00 Build 0)  -->
<svg version="1.1" id="Camada_1" xmlns="http://www.w3.org/2000/svg" xmlns:xlink="http://www.w3.org/1999/xlink" x="0px" y="0px"
	 viewBox="0 0 165 165" style="enable-background:new 0 0 165 165;" xml:space="preserve">
<style type="text/css">
	.st0{display:none;fill:url(#SVGID_1_);}
	.st1{fill:#0AC989;}
	.st2{opacity:0.57;fill:#FFFFFF;enable-background:new    ;}
	.st3{opacity:0.52;fill:url(#SVGID_2_);enable-background:new    ;}
	.st4{fill:#0FA78B;}
	.st5{fill:#51A595;}
	.st6{fill:#2A5149;}
	.st7{fill:#2D7F6F;}
	.st8{fill:#BDD0FB;}
	.st9{opacity:0.69;fill:#FFFFFF;enable-background:new    ;}
	.st10{fill:url(#SVGID_3_);}
	.st11{fill:url(#SVGID_4_);}
	.st12{fill:url(#SVGID_5_);}
	.st13{fill:url(#SVGID_6_);}
	.st14{fill:url(#SVGID_7_);}
	.st15{fill:url(#SVGID_8_);}
	.st16{fill:url(#SVGID_9_);}
	.st17{fill:url(#SVGID_10_);}
	.st18{fill:url(#SVGID_11_);}
	.st19{fill:url(#SVGID_12_);}
	.st20{fill:url(#SVGID_13_);}
	.st21{fill:url(#SVGID_14_);}
	.st22{fill:url(#SVGID_15_);}
	.st23{fill:url(#SVGID_16_);}
	.st24{display:none;opacity:0.7;}
	.st25{display:inline;opacity:0.7;fill:url(#SVGID_17_);enable-background:new    ;}
	.st26{display:inline;opacity:0.7;fill:url(#SVGID_18_);enable-background:new    ;}
</style>
<linearGradient id="SVGID_1_" gradientUnits="userSpaceOnUse" x1="183.9103" y1="-43.5635" x2="39.4628" y2="135.8318" gradientTransform="matrix(1 0 0 -1 0 166)">
	<stop  offset="0" style="stop-color:#DAE3FE"/>
	<stop  offset="1" style="stop-color:#E9EFFD"/>
</linearGradient>
<path class="st0" d="M145,138.2c-3.4,3.5-6.5,5.7-9.1,7.5c-29.6,20.7-64.5,14.7-72,13.2c-11-2.2-32.2-6.4-47.5-24
	c-23.2-26.7-19.6-68.7-1.6-96.5c3.3-5.1,20.7-33.2,56-37.8c21.4-2.7,46.3,2.8,64.4,17.6C173.2,49.3,170.5,112,145,138.2z"/>
<path class="st1" d="M89.7,80.2c-2.9-12.5-9.6-22.9-18.1-29.4C64,45,59,36.6,57.6,27.2c-0.1-1-0.3-2-0.6-3C53.6,9.1,41.5-1,30,1.6
	c-11.5,2.6-18,17-14.6,32.1c0.7,3,1.7,5.9,3.1,8.6c4.3,8.3,5.5,17.9,2.8,26.9c-2.3,8-2.7,17.3-0.5,26.7c3.2,14,11.2,25.3,21.1,31.5
	c3.7,2.3,7,5.3,9.7,8.8c4.4,5.8,11,9,17.5,7.5c7-1.6,11.8-8.1,12.8-16.1c0.6-4.5,2-8.8,4.1-12.9C90.9,105.3,92.6,92.9,89.7,80.2z"/>
<path class="st2" d="M37.7,16.8c3.8,9.6,7.2,19.4,10.6,29.2c0.8,2.4,1.6,4.9,2.5,7.4L52,57l1.2,3.7c0.8,2.5,1.6,4.9,2.3,7.4l2.3,7.4
	c1.4,5,2.9,9.9,4.3,14.9c0.7,2.5,1.4,5,2,7.5l1.9,7.5c2.4,10.1,4.6,20.2,6.3,30.4l-0.4,0.1l-1.5-7.6l-0.4-1.9l-0.4-1.9l-0.9-3.8
	l-0.9-3.8c-0.3-1.3-0.6-2.5-0.9-3.8c-0.6-2.5-1.2-5-1.9-7.5c-2.6-10-5.4-19.9-8.4-29.8C55,70.9,53.5,66,52,61l-1.2-3.7l-1.2-3.7
	c-0.8-2.5-1.6-4.9-2.4-7.4c-1.6-4.9-3.2-9.8-4.9-14.7c-1.7-4.9-3.4-9.8-5-14.7L37.7,16.8z"/>
<path class="st1" d="M47.2,92.9c-1.9-1.1-3.5-2.7-4.7-4.6c-1.1-1.9-1.7-4.1-1.7-6.3c0-4.8-1.2-10.1-3.7-15.3
	C30.6,53.2,17.9,45.8,8.7,50.2c-9.2,4.4-11.4,18.9-5,32.5c1.2,2.5,2.7,4.9,4.4,7.1c2.5,3.2,3.3,7.5,2.1,11.3
	c-0.7,2.2-0.9,4.6-0.6,6.9c0.3,2.3,1.2,4.6,2.4,6.5c1.3,2,3,3.6,5,4.9c2,1.2,4.3,2,6.6,2.3c3.1,0.3,6,1.9,8.1,4.2
	c5.9,6.8,14.1,9.6,20.7,6.5c8.4-4,10.9-16.4,5.5-27.6C55.3,99.5,51.4,95.3,47.2,92.9z"/>
<linearGradient id="SVGID_2_" gradientUnits="userSpaceOnUse" x1="60.0365" y1="51.6111" x2="18.0423" y2="51.6111" gradientTransform="matrix(1 0 0 -1 0 166)">
	<stop  offset="0" style="stop-color:#CE1567"/>
	<stop  offset="1" style="stop-color:#0F231F"/>
</linearGradient>
<path class="st3" d="M66,145.3c-0.1,0-0.2,0.1-0.3,0c-0.1,0-0.2-0.1-0.3-0.1c-9.3-8.1-19.9-24.2-27.2-36.3
	c-7.9-13.1-13.6-24.4-13.7-24.5c0-0.1-0.1-0.2-0.1-0.2c0-0.1,0-0.2,0-0.3c0-0.1,0.1-0.2,0.1-0.2c0.1-0.1,0.1-0.1,0.2-0.2
	c0.1,0,0.2-0.1,0.2-0.1c0.1,0,0.2,0,0.2,0c0.1,0,0.2,0.1,0.2,0.1c0.1,0.1,0.1,0.1,0.1,0.2c0.2,0.5,23.1,45.1,40.6,60.4
	c0.1,0.1,0.2,0.3,0.2,0.4c0,0.2,0,0.3-0.1,0.4C66.1,145.2,66.1,145.2,66,145.3z"/>
<path class="st4" d="M143.7,54c0,14-11.4,26.1-25.7,26.8C103.3,81.6,91,70.4,91,55.8S103.3,29,118,28.9
	C132.3,28.7,143.7,39.9,143.7,54z"/>
<path class="st1" d="M145.8,53.9c0,14-11.4,26.1-25.7,26.8c-14.7,0.8-26.8-10.4-26.8-25.1c0-14.7,12.1-26.7,26.8-26.9
	C134.4,28.6,145.8,39.8,145.8,53.9z"/>
<path class="st1" d="M117.6,11.4c-24.7,0-45.4,20.1-45.4,44.9c0,24.8,20.7,43.5,45.4,41.9c23.8-1.6,42.4-21.6,42.4-44.8
	S141.4,11.4,117.6,11.4z M117.6,16.7c7.2,0,13.1,5.7,13.1,12.9s-5.8,13.1-13.1,13.3c-7.2,0.2-13.3-5.6-13.3-12.9
	S110.3,16.7,117.6,16.7z M120.7,54.6c0,1.7-1.4,3.1-3.1,3.2c-1.7,0.1-3.1-1.3-3.1-3c0-1.7,1.4-3.1,3.1-3.2
	C119.3,51.6,120.7,52.9,120.7,54.6z M91.9,68.9C84.2,69.3,78,63.5,78,56.1c0-7.4,6.2-13.6,13.9-13.8c7.6-0.2,13.6,5.6,13.6,12.9
	S99.4,68.6,91.9,68.9z M117.6,92.8c-7.3,0.5-13.3-5.1-13.3-12.4s6-13.5,13.3-13.8c7.3-0.3,13.1,5.2,13.1,12.4
	C130.7,86.2,124.9,92.3,117.6,92.8z M142.4,66.7c-7.1,0.3-12.8-5.2-12.8-12.4s5.8-13.1,12.8-13.2c7.1-0.2,12.6,5.4,12.6,12.4
	C155,60.5,149.4,66.4,142.4,66.7z"/>
<path class="st5" d="M119.7,11.4c-24.7,0-45.4,20.1-45.4,44.9c0,24.8,20.7,43.5,45.4,41.9c23.8-1.6,42.4-21.6,42.4-44.8
	S143.4,11.4,119.7,11.4z M119.7,16.7c7.2,0,13.1,5.7,13.1,12.9s-5.8,13.1-13.1,13.3c-7.2,0.2-13.3-5.6-13.3-12.9
	S112.4,16.7,119.7,16.7z M122.8,54.6c0,1.7-1.4,3.1-3.1,3.2c-1.7,0.1-3.1-1.3-3.1-3c0-1.7,1.4-3.1,3.1-3.2
	C121.4,51.6,122.8,52.9,122.8,54.6z M93.9,68.9c-7.6,0.3-13.9-5.4-13.9-12.9c0-7.4,6.2-13.6,13.9-13.8c7.6-0.2,13.6,5.6,13.6,12.9
	S101.5,68.6,93.9,68.9z M119.7,92.8c-7.3,0.5-13.3-5.1-13.3-12.4s6-13.5,13.3-13.8c7.3-0.3,13.1,5.2,13.1,12.4
	C132.8,86.2,126.9,92.3,119.7,92.8z M144.5,66.7c-7.1,0.3-12.8-5.2-12.8-12.4s5.8-13.1,12.8-13.2c7.1-0.2,12.6,5.4,12.6,12.4
	C157,60.5,151.4,66.4,144.5,66.7z"/>
<path class="st6" d="M153.3,141.3c0,0.7-0.3,1.3-0.7,1.7c-0.5,0.5-1.1,0.7-1.7,0.7H17.7c-0.7,0-1.3-0.3-1.7-0.7
	c-0.5-0.5-0.7-1.1-0.7-1.7l-1.1-76.5c0-1.4,1.6-4,4.5-3.8l130.1-3.4c0.8,0,1.7,0.1,2.5,0.4c0.8,0.3,1.5,0.8,2.1,1.4
	c0.6,0.6,1.1,1.3,1.4,2.1c0.3,0.8,0.5,1.6,0.4,2.5L153.3,141.3z"/>
<path class="st5" d="M150.8,139c0,0.6-0.2,1.2-0.7,1.6c-0.4,0.4-1,0.7-1.6,0.7H20.9c-0.6,0-1.2-0.2-1.6-0.7c-0.4-0.4-0.7-1-0.7-1.6
	l-1.1-69.5c0.1-4.2,3.8-5.7,6-5.6l124.7-3.3c0.6,0,1.2,0.1,1.7,0.3c0.5,0.2,1,0.5,1.5,1c0.4,0.4,0.7,0.9,1,1.5
	c0.2,0.5,0.3,1.1,0.3,1.7L150.8,139z"/>
<path class="st5" d="M22.6,136.9c0.1-6.1,0.1-59.7-0.2-64.4c-0.3-4.6,6.6-5.5,17.2-6s100.4-2.6,102.7-2.8c5.2-0.4,6.3,7.7,5.7,25.2
	c-0.4,13.2-1,34.9-1.3,44.9c-0.1,3-2.4,5.3-5.3,5.3c-21.6,0.1-104.3,0.3-109.9,0.5C25.2,139.9,22.5,139.3,22.6,136.9z"/>
<path class="st6" d="M160.7,150.1H10.5c-0.9,0-1.7-0.4-2.4-1c-0.6-0.6-1-1.5-1-2.4c0-0.9,0.4-1.7,1-2.4c0.6-0.6,1.5-1,2.4-1h150.3
	c0.9,0,1.7,0.4,2.4,1c0.6,0.6,1,1.5,1,2.4c0,0.9-0.4,1.7-1,2.4C162.5,149.8,161.6,150.1,160.7,150.1z"/>
<path class="st7" d="M100,112.8H27.9c-1.3,0-2.3-1-2.3-2.2V73.5c0-2.1,1.8-3.9,4-3.9l70.4-1.5c1.3,0,2.3,1,2.3,2.2v40.4
	C102.3,111.9,101.3,112.8,100,112.8z"/>
<path class="st8" d="M60.6,84.5v13.3c0,0.1,0,0.1,0.1,0.2c0,0.1,0.1,0.1,0.2,0.1c0.1,0,0.1,0,0.2,0c0.1,0,0.1,0,0.2-0.1l9.9-6.9
	c0.1,0,0.1-0.1,0.1-0.1c0-0.1,0-0.1,0-0.2s0-0.1,0-0.2c0-0.1-0.1-0.1-0.1-0.1l-9.9-6.4c-0.1,0-0.1-0.1-0.2-0.1c-0.1,0-0.1,0-0.2,0
	c-0.1,0-0.1,0.1-0.1,0.1S60.6,84.4,60.6,84.5z"/>
<path class="st7" d="M142.6,90.4h-36c-0.6,0-1.1-0.5-1.1-1.1V70.8c0-1.1,0.9-1.9,2-2l35.1-0.7c0.6,0,1.1,0.5,1.1,1.1v20.2
	C143.7,89.9,143.2,90.4,142.6,90.4z"/>
<path class="st9" d="M122.9,76.2v6.6c0,0,0,0.1,0,0.1c0,0,0,0.1,0.1,0.1c0,0,0.1,0,0.1,0c0,0,0.1,0,0.1,0l4.9-3.4c0,0,0,0,0.1-0.1
	s0-0.1,0-0.1c0,0,0-0.1,0-0.1c0,0,0-0.1-0.1-0.1l-4.9-3.2c0,0-0.1,0-0.1,0c0,0-0.1,0-0.1,0C123,76.1,123,76.1,122.9,76.2
	C122.9,76.2,122.9,76.2,122.9,76.2z"/>
<path class="st1" d="M34.2,135c0,1-0.4,2-1.1,2.7c-0.7,0.7-1.7,1.1-2.7,1.1c-2.1,0-4.2-1.6-4.2-3.7c0-2.1,2.1-3.9,4.2-3.9
	c1,0,2,0.4,2.7,1.1C33.8,133,34.2,134,34.2,135z"/>
<path class="st9" d="M29.2,132.6v4.8c0,0,0,0.1,0,0.1c0,0,0,0,0.1,0.1c0,0,0,0,0.1,0c0,0,0.1,0,0.1,0l3.6-2.5c0,0,0,0,0-0.1
	c0,0,0,0,0-0.1c0,0,0,0,0-0.1c0,0,0,0,0-0.1l-3.6-2.3c0,0,0,0-0.1,0c0,0-0.1,0-0.1,0C29.2,132.5,29.2,132.5,29.2,132.6
	C29.2,132.6,29.2,132.6,29.2,132.6z"/>
<path class="st9" d="M134.7,133.6H37.2c-0.1,0-0.2,0.1-0.2,0.2v3.2c0,0.1,0.1,0.2,0.2,0.2h97.5c0.1,0,0.2-0.1,0.2-0.2v-3.2
	C134.9,133.7,134.8,133.6,134.7,133.6z"/>
<path class="st1" d="M73.9,133.6H37.8c-0.4,0-0.7,0.3-0.7,0.6v2.3c0,0.4,0.3,0.6,0.7,0.6h36.1C73.8,136,73.8,134.8,73.9,133.6z"/>
<path class="st9" d="M142,114.4H23c-0.4,0-0.7,0.3-0.7,0.7v13.4c0,0.4,0.3,0.7,0.7,0.7h119c0.4,0,0.7-0.3,0.7-0.7v-13.4
	C142.7,114.7,142.4,114.4,142,114.4z"/>
<path class="st5" d="M44.1,128.1H24.7c-0.2,0-0.3-0.1-0.4-0.2c-0.1-0.1-0.2-0.3-0.2-0.4v-10c0-0.6,0.5-1,1.1-1.1l18.9-0.4
	c0.2,0,0.3,0.1,0.4,0.2c0.1,0.1,0.2,0.3,0.2,0.4v10.9c0,0.2-0.1,0.3-0.2,0.4C44.4,128,44.2,128.1,44.1,128.1z"/>
<path class="st5" d="M66.6,128.1H47.2c-0.2,0-0.3-0.1-0.4-0.2c-0.1-0.1-0.2-0.3-0.2-0.4v-10c0-0.6,0.5-1,1.1-1.1l18.9-0.4
	c0.2,0,0.3,0.1,0.4,0.2c0.1,0.1,0.2,0.3,0.2,0.4v10.9c0,0.2-0.1,0.3-0.2,0.4C67,128,66.8,128.1,66.6,128.1z"/>
<path class="st5" d="M89.4,128.1H70c-0.3,0-0.6-0.3-0.6-0.6v-10c0-0.6,0.5-1,1.1-1.1l18.9-0.4c0.3,0,0.6,0.3,0.6,0.6v10.9
	C90,127.8,89.7,128.1,89.4,128.1z"/>
<path class="st5" d="M111.9,128.1H92.5c-0.2,0-0.3-0.1-0.4-0.2c-0.1-0.1-0.2-0.3-0.2-0.4v-10c0-0.6,0.5-1,1.1-1.1l18.9-0.4
	c0.2,0,0.3,0.1,0.4,0.2s0.2,0.3,0.2,0.4v10.9c0,0.2-0.1,0.3-0.2,0.4C112.2,128,112.1,128.1,111.9,128.1z"/>
<path class="st5" d="M134.3,128.1h-19.4c-0.2,0-0.3-0.1-0.4-0.2c-0.1-0.1-0.2-0.3-0.2-0.4v-10c0-0.6,0.5-1,1.1-1.1l18.9-0.4
	c0.2,0,0.3,0.1,0.4,0.2c0.1,0.1,0.2,0.3,0.2,0.4v10.9c0,0.2-0.1,0.3-0.2,0.4C134.6,128,134.5,128.1,134.3,128.1z"/>
<linearGradient id="SVGID_3_" gradientUnits="userSpaceOnUse" x1="46635.6719" y1="-46619.4023" x2="71652.375" y2="-71717.5" gradientTransform="matrix(1 0 0 -1 0 166)">
	<stop  offset="0" style="stop-color:#0B5144"/>
	<stop  offset="1" style="stop-color:#5F8981"/>
</linearGradient>
<path class="st10" d="M111.5,110.4c0.7,4.1,6,10.1,7.1,12.2c1.5,2.9,1.1,11.7,4.9,15.8c1.8,1.9,4.1,2.4,6.2,2.3
	c1.5-0.1,3.3-0.8,4.7-1.3c2.9-1,6.1-2.1,7.5-5.1c1.4-2.9,1.2-6.4,0-9.4c-1-2.4-2.9-4.4-5.1-5.7c-3.4-2.1-7.4-3.2-10.6-5.6
	c-2.3-1.8-3.5-4.6-5.8-6.4c-1.8-1.3-3.8-1.6-5.8-1c-0.6,0.2-1.2,0.4-1.7,0.7h0c-0.1,0.1-0.2,0.1-0.3,0.2c-0.3,0.2-0.6,0.5-0.8,0.8
	c0,0.1-0.1,0.1-0.1,0.2C111.4,108.8,111.4,109.6,111.5,110.4z"/>
<linearGradient id="SVGID_4_" gradientUnits="userSpaceOnUse" x1="92.1475" y1="27.272" x2="111.102" y2="16.453" gradientTransform="matrix(1 0 0 -1 0 166)">
	<stop  offset="0" style="stop-color:#FEBBBA"/>
	<stop  offset="1" style="stop-color:#B0CDE2"/>
</linearGradient>
<path class="st11" d="M95,156.4c0,0,12-21.1,13.7-23c0.1-0.2,0.3-0.3,0.5-0.4c0.2-0.1,0.4-0.1,0.6-0.1l3.4,0.4l3.9,8.5l-6.6-3.8
	c0.7,4.5-7.8,11.2-10.7,13.6c-0.1,0.1-0.1,0.1-0.2,0.2c0,0.1-0.1,0.2-0.1,0.3c0,0.1,0,0.2,0,0.3c0,0.1,0.1,0.2,0.1,0.2l1.2,1.2
	c-1.9,1.9-4.1,3.2-6.6,3.7L95,156.4z"/>
<linearGradient id="SVGID_5_" gradientUnits="userSpaceOnUse" x1="3788.7083" y1="-8570.7393" x2="4681.9082" y2="-10646.9893" gradientTransform="matrix(1 0 0 -1 0 166)">
	<stop  offset="0" style="stop-color:#5FA392"/>
	<stop  offset="1" style="stop-color:#2F6D61"/>
</linearGradient>
<path class="st12" d="M100.3,153.1c0,0,0.7,0.2,1,0.9c0.1,0.3,0,0.7-0.3,0.9c-1.2,0.9-5.2,3.7-7.1,4.2c0,0-0.1,0-0.1,0
	c0,0-0.1,0-0.1-0.1c0,0,0-0.1-0.1-0.1c0,0,0-0.1,0-0.1c0.1-0.4,0.4-1.3,1.4-2.5l-0.1,0.2c0,0,0,0.1,0,0.2c0,0.1,0,0.1,0.1,0.1
	c0,0,0.1,0.1,0.1,0.1c0.1,0,0.1,0,0.2,0C96.6,156.1,99.1,154.6,100.3,153.1z"/>
<linearGradient id="SVGID_6_" gradientUnits="userSpaceOnUse" x1="87578.7813" y1="37939.3281" x2="111962.7813" y2="48510.4297" gradientTransform="matrix(1 0 0 -1 0 166)">
	<stop  offset="0" style="stop-color:#FEBBBA"/>
	<stop  offset="1" style="stop-color:#B0CDE2"/>
</linearGradient>
<path class="st13" d="M99.7,161.5c0,0,1.8-4.4,1.8-4.4c1.7-10.1,5.7-18.7,6.9-21c0.1-0.2,0.2-0.3,0.4-0.5c0.2-0.1,0.4-0.2,0.6-0.2
	l3.4-0.3l5.6,7.6l-7.2-2.4c1.5,4.3-5.4,12.5-7.7,15.5c-0.1,0.1-0.1,0.2-0.1,0.2c0,0.1,0,0.2,0,0.3c0,0.1,0,0.2,0.1,0.3
	c0,0.1,0.1,0.1,0.2,0.2l1.4,1c-1.5,2.3-3.4,3.9-5.7,5L99.7,161.5z"/>
<linearGradient id="SVGID_7_" gradientUnits="userSpaceOnUse" x1="4446.8203" y1="-6532.9199" x2="5939.1206" y2="-8778.5" gradientTransform="matrix(1 0 0 -1 0 166)">
	<stop  offset="0" style="stop-color:#5FA392"/>
	<stop  offset="1" style="stop-color:#2F6D61"/>
</linearGradient>
<path class="st14" d="M104.2,157.3c0,0,0.8,0.1,1.1,0.7c0.1,0.1,0.1,0.3,0.1,0.5c0,0.2-0.1,0.3-0.2,0.4c-1,1.1-4.4,4.7-6.1,5.6
	c0,0-0.1,0-0.1,0c0,0-0.1,0-0.1,0c0,0-0.1,0-0.1-0.1c0,0,0-0.1,0-0.1c0-0.4,0.1-1.3,0.8-2.8l-0.1,0.2c0,0.1,0,0.1,0,0.2
	c0,0.1,0.1,0.1,0.1,0.1c0,0,0.1,0,0.2,0c0.1,0,0.1,0,0.1-0.1C101.2,161,103.3,159,104.2,157.3z"/>
<linearGradient id="SVGID_8_" gradientUnits="userSpaceOnUse" x1="3491.155" y1="-12462.7744" x2="4270.4351" y2="-15349.9746" gradientTransform="matrix(1 0 0 -1 0 166)">
	<stop  offset="0" style="stop-color:#5FA392"/>
	<stop  offset="1" style="stop-color:#2F6D61"/>
</linearGradient>
<path class="st15" d="M128.6,133.7c0,0,3,4.5,3.3,6.6c0.2,2.1-0.8,2.8-4,3c-9.5,0.8-14.2-2.1-14.2-2.1c-0.6-4.1-1.1-5.2-6.5-7.4
	c0,0,6.9,0.5,8.2,0C116.8,133.3,128.6,133.7,128.6,133.7z"/>
<linearGradient id="SVGID_9_" gradientUnits="userSpaceOnUse" x1="-1795.4967" y1="-3252.8665" x2="-6561.0986" y2="-11433.167" gradientTransform="matrix(1 0 0 -1 0 166)">
	<stop  offset="0" style="stop-color:#B0CDE2"/>
	<stop  offset="1" style="stop-color:#1D90A0"/>
</linearGradient>
<path class="st16" d="M120.3,133.1c0,0-3.6-3.4-5.3-5.6c-0.5-0.6-0.8-1.3-0.9-2c-0.1-0.7-0.1-1.5,0.1-2.2c0.8-2.7,2.2-5.5,2.3-5.9
	c0.2-0.7,4.2-0.6,4.2-0.6s7.8,5.1,10.9,13.7l-3.5,1.1c0,0-2-3.4-4.1-5.6c0,0,3.5,4.6,3.6,6.5L120.3,133.1z"/>
<linearGradient id="SVGID_10_" gradientUnits="userSpaceOnUse" x1="2671.9927" y1="-13934.6523" x2="2540.0327" y2="-13211.9521" gradientTransform="matrix(1 0 0 -1 0 166)">
	<stop  offset="0" style="stop-color:#FEBBBA"/>
	<stop  offset="1" style="stop-color:#B0CDE2"/>
</linearGradient>
<path class="st17" d="M116.1,113.6c0,0.1,1.1,3.6,1.2,3.7c0.1,0.1,2.3,0.2,3.3-0.5l-2.1-4.7L116.1,113.6z"/>
<linearGradient id="SVGID_11_" gradientUnits="userSpaceOnUse" x1="13176.668" y1="3929.5315" x2="14189.9678" y2="4230.2417" gradientTransform="matrix(1 0 0 -1 0 166)">
	<stop  offset="0" style="stop-color:#FEBBBA"/>
	<stop  offset="1" style="stop-color:#B0CDE2"/>
</linearGradient>
<path class="st18" d="M113.2,109.7c0,0-0.7,1.7,0.1,4.3c0.9,2.6,2.3,2.8,3.2,2.2c0.9-0.6,2.1-1.8,2.2-4.1
	C118.9,109.7,114.3,107.5,113.2,109.7z"/>
<linearGradient id="SVGID_12_" gradientUnits="userSpaceOnUse" x1="8149.1831" y1="-11991.4795" x2="12487.8936" y2="-18498.1777" gradientTransform="matrix(1 0 0 -1 0 166)">
	<stop  offset="0" style="stop-color:#0B5144"/>
	<stop  offset="1" style="stop-color:#5F8981"/>
</linearGradient>
<path class="st19" d="M111.5,110.4c0.5,0.8,1.3,1.1,1.3,1.1c0-0.7,0.8-1.3,1.4-1.5c0.3-0.1,0.6-0.1,1,0c0.3,0.1,0.6,0.2,0.9,0.5
	c0.6,0.6,1,1.4,1,1.4l0.2-0.1c0,0,0-1,0.6-0.8c0.7,0.2,0.9,1.6,0.9,1.6s1.4,0.6,1.5-1.2c0.1-1.9-0.7-3.4-3.1-4.7
	c-0.8-0.4-1.7-0.6-2.5-0.5c-0.6,0.1-1.2,0.3-1.7,0.7c-0.5,0.3-0.9,0.8-1.2,1.3C111.4,108.8,111.4,109.6,111.5,110.4z"/>
<linearGradient id="SVGID_13_" gradientUnits="userSpaceOnUse" x1="3208.1511" y1="1353.7462" x2="3445.821" y2="1453.6561" gradientTransform="matrix(1 0 0 -1 0 166)">
	<stop  offset="0" style="stop-color:#FEBBBA"/>
	<stop  offset="1" style="stop-color:#B0CDE2"/>
</linearGradient>
<path class="st20" d="M117.6,111.9c0,0-0.8-1.8,0.3-1.9c1.1-0.1,0.7,1.7,0.4,2.4L117.6,111.9z"/>
<linearGradient id="SVGID_14_" gradientUnits="userSpaceOnUse" x1="32172.9004" y1="33.5096" x2="38175.6992" y2="33.5096" gradientTransform="matrix(1 0 0 -1 0 166)">
	<stop  offset="0" style="stop-color:#FEBBBA"/>
	<stop  offset="1" style="stop-color:#B0CDE2"/>
</linearGradient>
<path class="st21" d="M113.6,134.4l2.7-2.9l3.1,0.8c0,0,3.6,0.6,5.6,0l2.1-0.6l4.6-1.4l0.7,2.1c0.1,0.3,0.1,0.5,0,0.8
	c-0.1,0.3-0.2,0.5-0.5,0.6c-0.4,0.3-0.9,0.6-1.2,0.7c-0.6,0.3-14.1,0.1-14.1,0.1L113.6,134.4z"/>
<linearGradient id="SVGID_15_" gradientUnits="userSpaceOnUse" x1="889.6646" y1="3105.4243" x2="720.5649" y2="2433.2144" gradientTransform="matrix(1 0 0 -1 0 166)">
	<stop  offset="0" style="stop-color:#0B5144"/>
	<stop  offset="1" style="stop-color:#5F8981"/>
</linearGradient>
<path class="st22" d="M122.4,135.5L122.4,135.5l-12.3,0c-0.1,0-0.3-0.1-0.4-0.2c-0.1-0.1-0.1-0.2-0.1-0.4c0-0.1,0.1-0.3,0.1-0.4
	c0.1-0.1,0.2-0.2,0.4-0.2l12.3,0c0.1,0,0.3,0.1,0.4,0.2c0.1,0.1,0.2,0.2,0.2,0.4c0,0.1-0.1,0.3-0.2,0.4
	C122.7,135.5,122.5,135.5,122.4,135.5z"/>
<linearGradient id="SVGID_16_" gradientUnits="userSpaceOnUse" x1="-5760.812" y1="-9727.3203" x2="-6921.812" y2="-11659.0215" gradientTransform="matrix(1 0 0 -1 0 166)">
	<stop  offset="0" style="stop-color:#0B5144"/>
	<stop  offset="1" style="stop-color:#5F8981"/>
</linearGradient>
<path class="st23" d="M99.1,124.4h10.2c0.4,0,0.7,0.1,1,0.3c0.3,0.2,0.6,0.5,0.7,0.8l4.7,10h-12.7c-0.2,0-0.5-0.1-0.7-0.2
	c-0.2-0.1-0.3-0.3-0.4-0.5l-3.7-9.3c0-0.1-0.1-0.3-0.1-0.4c0-0.1,0.1-0.3,0.1-0.4c0.1-0.1,0.2-0.2,0.3-0.3
	C98.8,124.4,99,124.4,99.1,124.4z"/>
<g class="st24">
	
		<linearGradient id="SVGID_17_" gradientUnits="userSpaceOnUse" x1="52540.3984" y1="51.7796" x2="60318" y2="51.7796" gradientTransform="matrix(1 0 0 -1 0 166)">
		<stop  offset="0" style="stop-color:#DAE3FE"/>
		<stop  offset="1" style="stop-color:#E9EFFD"/>
	</linearGradient>
	<path class="st25" d="M138.2,122C138.1,122,138.1,122,138.2,122C138.1,122,138.1,122,138.2,122c-1.6-2.2-4.2-3.1-6.9-4
		c-3.1-1-6.3-2.1-7.8-5.2c-1.4-3-3.1-4.5-4.3-5.3c-1.3-0.8-2.3-0.9-2.3-0.9c0,0,0,0,0,0c0,0,0,0,0,0c0,0,0,0,0,0c0,0,0,0,0,0
		c0,0,0,0,0-0.1c0,0,0,0,0.1,0c0,0,1,0.1,2.3,0.9c1.2,0.8,3,2.3,4.4,5.3c1.4,3,4.7,4.1,7.7,5.1c2.7,0.9,5.4,1.8,6.9,4
		C138.2,121.9,138.2,121.9,138.2,122C138.2,121.9,138.2,122,138.2,122C138.2,122,138.2,122,138.2,122z"/>
	
		<linearGradient id="SVGID_18_" gradientUnits="userSpaceOnUse" x1="11446.7998" y1="32.749" x2="11725.5" y2="32.749" gradientTransform="matrix(1 0 0 -1 0 166)">
		<stop  offset="0" style="stop-color:#DAE3FE"/>
		<stop  offset="1" style="stop-color:#E9EFFD"/>
	</linearGradient>
	<path class="st26" d="M137,137C137,137,137,137,137,137C137,137,137,137,137,137c-0.1-0.1-0.1-0.1-0.1-0.1c0,0,0,0,0,0
		c4.6-1.6,3.8-7.3,3.8-7.4c0,0,0,0,0,0c0,0,0,0,0,0c0,0,0,0,0,0c0,0,0,0,0,0c0,0,0,0,0.1,0s0,0,0,0C141,129.6,141.8,135.4,137,137
		L137,137z"/>
</g>
</svg>
