<?xml version="1.0" encoding="utf-8"?>
<!-- Generator: Adobe Illustrator 22.0.0, SVG Export Plug-In . SVG Version: 6.00 Build 0)  -->
<svg version="1.1" id="Camada_1" xmlns="http://www.w3.org/2000/svg" xmlns:xlink="http://www.w3.org/1999/xlink" x="0px" y="0px"
	 viewBox="0 0 171 142" style="enable-background:new 0 0 171 142;" xml:space="preserve">
<style type="text/css">
	.st0{display:none;fill:#DCEDF9;}
	.st1{fill:#DCEDF9;}
	.st2{fill:#A969ED;}
	.st3{fill:#AB85D3;}
	.st4{fill:#6F3091;}
	.st5{fill:#8D1AF1;}
	.st6{fill:#B047C9;}
	.st7{fill:#F9AF8B;}
	.st8{fill:#FFFFFF;}
	.st9{fill:#452051;}
	.st10{fill:#2D0A4C;}
	.st11{fill:#6D4E82;}
	.st12{fill:#1F2232;}
	.st13{fill:#FC8664;}
	.st14{fill:#FD664D;}
	.st15{fill:#000B29;}
</style>
<path class="st0" d="M152.5,135.1c-8.5-6.5-23.1-22.6-3.9-47.8c23.8-31.2-4.7-44-32-42.7C94.7,45.7,70,18.2,45.3,23.1
	c-32.7,6.5-11.4,34.7-33.6,49.8c-18.9,12.9-10.8,52.4,13.8,62.2H152.5z"/>
<path class="st1" d="M167.8,77.9c-0.1-4.6-4.4-6.4-7.3-3.1c-2,2.3-3.3,5.3-3.5,8.4c-0.6,8.3,6.6,5.9,9.3,1.5
	C167.4,82.8,167.9,80.3,167.8,77.9z"/>
<path class="st1" d="M88.4,21.5c-4.6-0.9-7.2,3-4.6,6.5c1.8,2.5,4.4,4.4,7.4,5.3c7.9,2.4,7.1-5.2,3.4-8.7
	C93,22.9,90.7,21.9,88.4,21.5z"/>
<path class="st1" d="M13.2,63.9c1.8-4.2-1.4-7.7-5.4-5.9c-2.8,1.3-5.2,3.4-6.7,6.1c-4.1,7.2,3.5,8.1,7.8,5.2
	C10.8,68.1,12.3,66,13.2,63.9z"/>
<path class="st1" d="M85.7,141.6c43.1,0,78-2.3,78-5.1c0-2.8-34.9-5.1-78-5.1c-43.1,0-78,2.3-78,5.1
	C7.7,139.3,42.6,141.6,85.7,141.6z"/>
<path class="st2" d="M161.6,94.3c-4.8,4.8,0.6,5.2-2.9,8.8c-3.5,3.6-7.9,0.1-7.6,8.1c0.1,1.8-1.2,3-3,3.7c-1.3,0.5-2.7,0.6-4.1,0.2
	c-1.4-0.3-2.6-1.1-3.5-2.1c-0.1-0.2-0.3-0.3-0.4-0.5c-0.7-1-1.2-2.1-1.3-3.3c-0.2-1.2,0-2.4,0.5-3.5c0.8-2,2.3-4,4.8-4.8
	c6-1.8,2.7-9.8,7.7-10.1c6.1-0.4,6.3-2.7,10.6-5.7C166.6,82.1,168.1,87.8,161.6,94.3z"/>
<path class="st3" d="M159.4,91.7c-0.1,0.2-11.2,11.6-19,21.3c-0.1-0.2-0.3-0.3-0.4-0.5c7.8-9.8,18.8-21.1,19-21.2
	c0.1-0.1,0.1-0.1,0.2-0.1c0.1,0,0.2,0,0.2,0.1C159.5,91.4,159.6,91.6,159.4,91.7z"/>
<path class="st4" d="M162.8,110.2c-7.5,4.4-1,6.6-6.5,10c-5.5,3.3-9.9-2.4-12.1,7.7c-0.4,2.2-2.5,3.4-4.9,3.7
	c-1.8,0.2-3.6-0.2-5.2-1c-1.6-0.9-2.9-2.2-3.7-3.8l-0.3-0.8c-0.6-1.4-0.8-3-0.6-4.5c0.2-1.5,0.8-3,1.7-4.2c1.7-2.2,4.1-4.2,7.5-4.4
	c8-0.4,6.5-11.3,12.8-10.1c7.7,1.5,8.7-1.3,15.1-3.6C173,96.7,172.9,104.2,162.8,110.2z"/>
<path class="st2" d="M161,106.3c-0.2,0.2-17.6,10.8-30.5,20.4l-0.3-0.8c12.9-9.6,30.2-20.2,30.4-20.3c0,0,0.1-0.1,0.2-0.1
	c0.1,0,0.1,0,0.2,0c0.1,0,0.1,0,0.2,0.1c0.1,0,0.1,0.1,0.1,0.1c0,0.1,0.1,0.1,0.1,0.2c0,0.1,0,0.1,0,0.2c0,0.1-0.1,0.1-0.1,0.2
	C161.1,106.2,161,106.3,161,106.3z"/>
<path class="st2" d="M16.9,39.8c2.6,6.3-2.5,4.6-0.6,9.2c1.8,4.7,7.2,3.2,3.9,10.4c-0.8,1.6-0.1,3.3,1.4,4.6c1,1,2.3,1.6,3.7,1.8
	c1.4,0.2,2.8,0,4.1-0.6l0.6-0.3c1-0.6,1.9-1.5,2.5-2.5c0.6-1,0.9-2.2,0.9-3.4c0-2.2-0.5-4.5-2.6-6.3c-4.8-4,1.3-10-3.2-12.3
	c-5.4-2.7-4.8-4.9-7.6-9.3C17,26.6,13.5,31.3,16.9,39.8z"/>
<path class="st3" d="M19.9,38.2c0.1,0.2,5.9,15,9.3,27l0.6-0.3c-3.5-12-9.3-26.7-9.3-26.9c0,0,0-0.1-0.1-0.1c0,0-0.1-0.1-0.1-0.1
	c0,0-0.1,0-0.1,0c0,0-0.1,0-0.1,0c0,0-0.1,0-0.1,0.1c0,0-0.1,0.1-0.1,0.1c0,0,0,0.1,0,0.1C19.9,38.1,19.9,38.2,19.9,38.2z"/>
<path class="st4" d="M9.6,56.1c5.4,6.8-1.5,6.5,2.5,11.6c3.9,5.1,10.1,1.2,8.6,11.4c-0.3,2.3,1.1,4.1,3.3,5.2
	c1.6,0.8,3.4,1.1,5.2,0.9c1.8-0.2,3.5-1,4.8-2.3l0.6-0.6c1.1-1.1,1.8-2.5,2.2-4c0.4-1.5,0.3-3.1-0.1-4.6c-0.8-2.7-2.3-5.4-5.4-6.8
	c-7.4-3.2-2-12.8-8.4-14c-7.7-1.4-7.7-4.3-12.7-8.8S2.3,46.9,9.6,56.1z"/>
<path class="st2" d="M12.7,53.1c0.2,0.2,12.6,16.4,21.2,30l0.6-0.6c-8.6-13.6-21-29.7-21.2-29.8c0,0-0.1-0.1-0.1-0.1
	c0,0-0.1,0-0.2-0.1c-0.1,0-0.1,0-0.2,0c-0.1,0-0.1,0-0.1,0.1c-0.1,0.1-0.1,0.2-0.1,0.3C12.6,52.9,12.7,53,12.7,53.1z"/>
<path class="st4" d="M46.1,50.2c2.2-1.5,7.7,2.2,10.5,6.7l-2.6-7.1c-1.5-1.2-3.2-2.2-5-2.8c-3.9-1.4-7.8-3.5-5.6-5
	c2.2-1.5,7,1.8,9.9,5.9l-3.2-9.1c-0.9-0.7-1.8-1.2-2.9-1.5c-2.4-0.9-4.9-2.3-3.5-3.2c1.4-0.9,3.9,0.8,5.8,3.2l-1.1-3
	c-0.6-1.2-1.4-2.3-2.3-3.2c-2.5-2.6-4.4-5.5-2.5-5.9c1.9-0.4,5.1,4.7,5.6,9.2l0.6,1.5c-0.4-3.3,0.8-7.4,2.4-7.5
	c1.7-0.2,0.6,2.5-0.7,4.7c-0.7,1.1-1.2,2.4-1.4,3.8l2.6,7.2c-0.6-5.3,1.2-11.6,3.9-11.9s1,3.9-1.2,7.5c-1.6,2.7-2.1,4.8-2.2,5.9
	l3.1,8.6c-0.5-5.3,1.3-11.6,3.9-11.6c2,0,1.4,2.8-1,6.8c-1.2,2-2,4.2-2.3,6.5l1.5,4.1C58.3,59.9,58,60,57.8,60l-0.6-1.6
	c-1.6-1.4-3.4-2.5-5.4-3.2C47.8,53.8,43.9,51.7,46.1,50.2z"/>
<path class="st4" d="M26.9,110.3c-2.3,1.4-1,7.9,2,12.3l-5.5-5.1c-0.6-1.9-0.7-3.8-0.6-5.7c0.3-4.1-0.2-8.6-2.4-7.2
	c-2.3,1.4-1.2,7.1,1.4,11.4l-7.1-6.6c-0.3-1-0.4-2.1-0.3-3.2c0.2-2.6-0.1-5.4-1.5-4.5c-1.4,0.9-0.8,3.9,0.5,6.6l-2.3-2.1
	c-0.8-1-1.5-2.1-2-3.3c-1.4-3.3-3.3-6.2-4.5-4.6C3.6,99.7,7,104.7,11,107l1.2,1.1c-2.9-1.7-7.1-2.2-7.9-0.7c-0.8,1.5,2,1.5,4.6,1.2
	c1.3-0.2,2.7-0.2,4,0.2l5.6,5.2c-4.6-2.7-11.2-3.5-12.5-1.2c-1.3,2.3,3.2,2.5,7.3,1.9c3.1-0.4,5.2,0,6.3,0.3l6.7,6.2
	c-4.6-2.6-11.1-3.4-12.2-1c-0.8,1.8,2,2.4,6.6,1.8c2.3-0.3,4.6-0.2,6.9,0.5l3.1,2.9c0.2-0.1,0.4-0.3,0.6-0.6l-1.2-1.2
	c-0.4-1.1-1-3.2-0.8-6.2C29.6,113.4,29.2,108.9,26.9,110.3z"/>
<path class="st5" d="M139.8,52.3H20.5v82.5h119.4V52.3z"/>
<path class="st6" d="M139.8,52.3v5.3l-59.7,52.9L20.5,57.6v-5.3l59.7,53.1L139.8,52.3z"/>
<path class="st6" d="M68.6,95l-44.7,39.8h-3.5v-2.1l45.6-40.6L68.6,95z"/>
<path class="st6" d="M139.8,133v1.8H136L91.3,95l2.6-2.9L139.8,133z"/>
<path class="st5" d="M20.5,52.3l59.7,53.1l59.7-53.1H20.5z"/>
<path class="st7" d="M106.9,44.9l1.5,3.3l-3.2,0l-1.2-3L106.9,44.9z"/>
<path class="st4" d="M107.4,47.9c0,0,0.6-0.9,1.2-0.8c0.5,0,4.6,3.3,6,3.5c1.4,0.3,1.3,1.7,0.7,1.7h-10.9c0,0-0.3-3.3,0.1-4.3
	C104.8,47.1,106.3,48.2,107.4,47.9z"/>
<path class="st8" d="M109.7,50.2C109.6,50.2,109.6,50.2,109.7,50.2c-0.1,0-0.2,0-0.2,0c0,0-0.1-0.1-0.1-0.1c0,0,0-0.1,0-0.1
	c0.2-0.4,0.6-0.8,1-1.1c0.2-0.1,0.4-0.2,0.7-0.2c0.2,0,0.5,0.1,0.7,0.2c0,0,0.1,0.1,0.1,0.1c0,0.1,0,0.1,0,0.2c0,0.1-0.2,0.1-0.3,0
	c-0.1-0.1-0.3-0.2-0.5-0.2c-0.2,0-0.3,0-0.5,0.1c-0.3,0.2-0.6,0.5-0.8,0.9L109.7,50.2z"/>
<path class="st8" d="M109.1,49.6h-0.2c0,0-0.1-0.1-0.1-0.1c0,0,0-0.1,0-0.1c0.3-0.4,0.6-0.8,1-1.1c0.2-0.1,0.5-0.2,0.7-0.2
	c0.2,0,0.5,0.1,0.7,0.2c0,0,0.1,0.1,0.1,0.1c0,0,0,0.1,0,0.1s-0.1,0.1-0.1,0.1c0,0-0.1,0-0.1,0c-0.1-0.1-0.3-0.1-0.5-0.1
	c-0.2,0-0.3,0-0.5,0.1c-0.4,0.2-0.6,0.5-0.9,0.9L109.1,49.6z"/>
<path class="st8" d="M110.4,50.6h-0.2c0,0-0.1-0.1-0.1-0.1c0,0,0-0.1,0-0.1c0.2-0.4,0.6-0.8,1-1.1c0.2-0.1,0.5-0.2,0.7-0.2
	c0.2,0,0.5,0.1,0.7,0.2c0,0,0.1,0.1,0.1,0.1c0,0.1,0,0.1,0,0.2c0,0-0.1,0.1-0.1,0.1c0,0-0.1,0-0.1,0c-0.1-0.1-0.3-0.2-0.5-0.2
	c-0.2,0-0.3,0-0.5,0.1c-0.4,0.2-0.8,0.9-0.9,0.9C110.5,50.5,110.5,50.6,110.4,50.6z"/>
<path class="st9" d="M107.8,45.9l-1.4,0.5h-0.8l-1.4,0.1c-1.8-1.4-6.6-5.7-7.6-8.2c0,0-6.3,14.5-14.9,14.5c-0.6,0,0.9-7.2,2.3-8.7
	c0,0,8-14.8,13.1-13.2C99.5,31.5,101.9,34.9,107.8,45.9z"/>
<path class="st10" d="M106.4,46.4h-0.8c-5.3-4-7.8-7.4-8.9-9.6c0,0,0,0-0.1-0.1c0,0-0.1,0-0.1,0c0,0-0.1,0-0.1,0.1
	c-2.6,6-5.6,9.5-7.7,11.5c-2.1,2-4,2.9-4.1,2.9l-0.1-0.3l-0.1-0.2c0,0,1.7-0.7,3.9-2.8c2.2-2.1,5.1-5.4,7.5-11.3
	c0-0.1,0.1-0.2,0.2-0.3c0.1-0.1,0.2-0.1,0.3-0.1c0.1,0,0.3,0,0.4,0.1c0.1,0.1,0.2,0.2,0.3,0.3C98.3,38.8,100.8,42.3,106.4,46.4z"/>
<path class="st11" d="M102.8,45.5c0.3,0.5,0.6,0.9,1,1.3c0,0,3-0.2,4.5-0.9l-0.6-1.6C106.1,45,104.5,45.4,102.8,45.5z"/>
<path class="st2" d="M106.8,24.7c-4.4,1.8-7.8,2.7-10.8,3l-1,0.1c-1-0.1-2-0.3-3-0.7c-0.8-0.4-1.9-1.3-3-2.4c-1.2-1.1-3-3-4-4.2
	c-1.1-1.2-1.4-1.5-1.4-1.5c0.8-1.1,2.3-2.1,3.7-2.6c0,0,2.9,4.8,7.4,7.2l0.7,0.4c1-0.2,3.7-0.3,4.9-0.4c1.9-0.1,3.9-0.4,5.8-0.8
	L106.8,24.7z"/>
<path class="st7" d="M106,22.5c0,0,0.6-1.5,1.4-2c0.8-0.4,3.2-2,3.7-1.5c0.5,0.5,0.4,2.7-1.7,4.5c-0.7,0.7-1.7,1.1-2.7,1.1L106,22.5
	z"/>
<path class="st10" d="M111.3,20.5l-3.5,3.2c-0.1,0.1-0.2,0.1-0.3,0.1c-0.1,0-0.2,0-0.3,0l-2.1-1l-0.2-0.2l-0.1-0.4l0.6-0.2l5.4-2.1
	l0.3-0.1l0.1,0.4C111.4,20.3,111.4,20.4,111.3,20.5z"/>
<path class="st12" d="M110.9,20l-5.4,2.1l3.1-2.9c0.1-0.1,0.2-0.1,0.3-0.1c0.1,0,0.2,0,0.3,0L110.9,20z"/>
<path class="st9" d="M107.2,23.4l-2.1-1.1c0,0-0.1,0-0.1,0c0,0,0-0.1-0.1-0.1c0,0,0-0.1,0-0.1c0,0,0-0.1,0.1-0.1l3.5-3.2
	c0.1-0.1,0.2-0.1,0.2-0.1c0.1,0,0.2,0,0.3,0.1l2.1,1c0,0,0.1,0,0.1,0.1c0,0,0,0.1,0,0.1c0,0,0,0.1,0,0.1c0,0,0,0.1-0.1,0.1l-3.5,3.2
	c-0.1,0.1-0.1,0.1-0.2,0.1C107.4,23.5,107.3,23.5,107.2,23.4z"/>
<g>
	<g>
		<path class="st9" d="M107.4,22.8l-1.7-0.8c-0.1-0.1-0.2-0.2,0-0.4l2.7-2.5c0.1-0.1,0.2-0.1,0.2-0.1c0.1,0,0.2,0,0.3,0l1.7,0.8
			c0,0,0.1,0,0.1,0c0,0,0,0.1,0.1,0.1c0,0,0,0.1,0,0.1s0,0.1-0.1,0.1l-2.7,2.5c-0.1,0.1-0.2,0.1-0.3,0.1
			C107.6,22.9,107.5,22.9,107.4,22.8z"/>
	</g>
</g>
<path class="st7" d="M107.4,19.8c0.1,0,0.3,0.1,0.3,0.2c0.1,0.1,0.2,0.2,0.2,0.3c0.1,0.4-0.4,0.2-0.7,0.2c-0.1,0-0.2-0.1-0.3-0.1
	c-0.1,0-0.2,0-0.3,0.1C106.5,20.7,106.5,19.7,107.4,19.8z"/>
<path class="st7" d="M109.6,22.1c0.4-0.7,0.9-1.3,1.4-2c0.4-0.5,0.6,0.2,0.3,0.7C111.1,21.3,110.5,22.2,109.6,22.1z"/>
<path class="st4" d="M73.6,45l-1.7-11l-0.1-0.6v-0.5l0.4-15.7l4.4-1.5l0.2-0.1l1-0.3l0.8-0.3l4.6,0.6l0.8,0.1h0.3l3.3,0.5
	c0,10.4-0.9,12.6,1,21C89.3,40.5,85.8,51.7,73.6,45z"/>
<path class="st2" d="M76.1,42.2c3.4-1,5.9-3.3,7.4-5.1c1-1.1,1.8-2.4,2.4-3.8c0,0,0-0.1,0-0.1c0,0,0-0.1-0.1-0.1c0,0,0,0-0.1,0
	c0,0,0,0-0.1,0c0,0,0,0-0.1,0c0,0,0,0,0,0.1c-0.7,1.3-1.5,2.5-2.4,3.7c-1.4,1.8-3.9,4.1-7.2,5c0,0-0.1,0.1-0.1,0.1c0,0,0,0.1,0,0.1
	c0,0,0,0.1,0.1,0.1C76,42.2,76,42.2,76.1,42.2z"/>
<path class="st2" d="M80,42.4c3-0.8,5.5-3.3,5.6-3.5c0.1-0.1,0.1-0.2,0-0.2c0,0-0.1-0.1-0.1-0.1c0,0-0.1,0-0.1,0.1c0,0-3,3-6.2,3.5
	c0,0-0.1,0.1-0.1,0.1c0,0,0,0.1,0,0.1c0,0,0,0.1,0.1,0.1c0,0,0.1,0,0.1,0L80,42.4z"/>
<path class="st2" d="M77.9,20.3c3-0.8,5.4-3.3,5.6-3.5c0.1-0.2,0.1-0.2,0-0.2c-0.1-0.1-0.2-0.1-0.2,0c-0.1,0.1-3,3-6.2,3.5
	c0,0-0.1,0-0.1,0.1c0,0,0,0.1,0,0.1c0,0.1,0.1,0.2,0.2,0.2L77.9,20.3z"/>
<path class="st7" d="M104,73.5l1.2,2.7l-2.5,1.1l-1.4-2.7L104,73.5z"/>
<path class="st4" d="M104.6,76.2c0,0,0.3-1.1,0.8-1.3c0.5-0.2,5.5,1.2,6.9,0.9c1.4-0.3,1.5,0.7,1.5,1.3c0,0.6-10.2,4.2-10.2,4.2
	s-1.5-2.9-1.6-3.9C101.9,76.4,103.7,76.8,104.6,76.2z"/>
<path class="st8" d="M107.6,77.3h-0.2c-0.1,0-0.1,0-0.1-0.1c0,0-0.1-0.1-0.1-0.1c0.1-0.5,0.2-1,0.5-1.4c0.1-0.2,0.3-0.4,0.6-0.4
	c0.2-0.1,0.5-0.1,0.7,0c0,0,0.1,0,0.1,0c0,0,0,0,0.1,0.1c0,0,0,0.1,0,0.1c0,0,0,0.1,0,0.1c0,0,0,0,0,0.1c0,0,0,0-0.1,0.1
	c0,0,0,0-0.1,0c0,0-0.1,0-0.1,0c-0.2,0-0.3,0-0.5,0c-0.2,0.1-0.3,0.2-0.4,0.3c-0.2,0.3-0.4,0.7-0.4,1.2
	C107.6,77.3,107.6,77.3,107.6,77.3z"/>
<path class="st8" d="M106.8,77l-0.2,0.1c-0.1,0-0.1,0-0.1-0.1c0,0-0.1-0.1-0.1-0.1c0.1-0.5,0.2-1,0.5-1.4c0.2-0.2,0.3-0.3,0.6-0.4
	c0.2-0.1,0.5-0.1,0.7-0.1c0.1,0,0.1,0.1,0.1,0.1c0,0,0,0.1,0,0.2c0,0,0,0.1-0.1,0.1c0,0-0.1,0-0.1,0c-0.2,0-0.3,0-0.5,0.1
	c-0.2,0.1-0.3,0.2-0.4,0.3c-0.2,0.3-0.4,0.7-0.4,1.2C106.9,77,106.9,77,106.8,77z"/>
<path class="st8" d="M108.5,77.4c0,0-0.1,0.1-0.2,0c0,0-0.1,0-0.1-0.1c0,0-0.1-0.1-0.1-0.1c0.1-0.5,0.2-1,0.5-1.4
	c0.2-0.2,0.4-0.3,0.6-0.4c0.2-0.1,0.5-0.1,0.7-0.1c0.1,0,0.2,0.1,0.2,0.2c0,0.1-0.2,0.2-0.2,0.2c-0.2,0-0.3,0-0.5,0.1
	c-0.2,0.1-0.3,0.2-0.4,0.3c-0.2,0.3-0.4,0.7-0.4,1.2L108.5,77.4z"/>
<path class="st9" d="M104.6,74.1c-0.6,0.5-1.2,0.8-1.9,1.1l-0.4,0.2l-0.8,0.3c0,0-5.8-10.7-8.1-18.5c0,0-19.7-2.4-20.4-9.3
	c0-0.2,0-0.5,0-0.7c0.1-0.7,0.3-1.5,0.7-2.1c0.5-0.8,7.2,0,10.8,1c0,0,9.9,3.9,13.5,7.8C99.9,55.8,104.6,74.1,104.6,74.1z"/>
<path class="st10" d="M102.7,75.2l-0.4,0.2c-3-4.9-7.1-16.3-8-19c0-0.1-0.1-0.2-0.2-0.2C94,56.1,94,56,93.9,56
	c-9.6-1.8-15.1-4.3-18.1-6.1c-1-0.6-2-1.3-2.9-2.1c0-0.2,0-0.5,0-0.7c1,0.9,2,1.7,3.2,2.4c2.9,1.8,8.4,4.2,17.8,6
	c0.2,0,0.4,0.1,0.5,0.2c0.1,0.1,0.3,0.3,0.3,0.5C95.7,58.9,99.8,70.4,102.7,75.2z"/>
<path class="st11" d="M100.4,74.6l0.9,1.5c0,0,2.3-0.4,3.9-2l-0.6-1.4C103.2,73.4,101.8,74,100.4,74.6z"/>
<path class="st7" d="M68.9,49.1c0,0,1.4,1.8,1.2,2.8c-0.1,1-1.4,2.7-2.3,2.8c-0.9,0.1,1.1-2.3,0.6-2.2c-0.5,0.1-4.6,3.4-5.5,3.4
	c-0.9,0,1-1.5,1.7-1.9c0,0-1.9,0.8-2.3,1.3c-0.4,0.5-0.8-0.5,1.4-1.8c0,0-2,1.2-2.2,1.2c-0.2,0,0.9-1.5,2-2
	c-0.6,0.3-1.2,0.6-1.8,0.8c-0.2,0,0.3-0.5,1.5-1.2c1.2-0.7,2.9-3.4,2.9-3.4L68.9,49.1z"/>
<path class="st2" d="M72.2,17.2c0,0-4.5,8.7-5.6,17.8l-0.5,13.8c0,0,0.5,1,2.8,0.3l2.2-13.8l1.7-6.3C72.9,29,73.7,21.2,72.2,17.2z"
	/>
<path class="st9" d="M86,8.4c0.8-2.6-0.7-5.4-3.4-6.2c-2.6-0.8-5.4,0.7-6.2,3.4s0.7,5.4,3.4,6.2C82.4,12.5,85.2,11,86,8.4z"/>
<path class="st9" d="M86.2,6.9c0,0,1.5-0.2,1.5-1.5c0-1.4-1.4-0.7-1.1-1.6c0.3-0.9,0.7-1.7-0.5-2.1C85,1.3,85,2,83.8,0.8
	c-1.2-1.2-3.1,1.1-4.5,0.9c-2.1-0.2-2.6,0.9-2.9,1.8c-0.1,0.3-0.1,0.6-0.1,0.9c0.1,0.3,0.2,0.6,0.4,0.8L86.2,6.9z"/>
<path class="st13" d="M85,9c0,0,0.9-0.9,1.4,0c0.5,0.9-0.9,3.4-2.2,2.5L85,9z"/>
<path class="st14" d="M84.7,10.8c0.1,0,0.1,0,0.2-0.1c0.1-0.2,0.3-0.4,0.5-0.6c0.2-0.2,0.5-0.3,0.7-0.3c0,0,0.1-0.1,0.1-0.2
	c0-0.1-0.1-0.1-0.2-0.1c-0.3,0.1-0.6,0.2-0.8,0.4c-0.2,0.2-0.4,0.4-0.6,0.7C84.6,10.7,84.6,10.8,84.7,10.8L84.7,10.8z"/>
<path class="st14" d="M85.6,10.6L85.6,10.6c0.1,0,0.2-0.1,0.2-0.2c-0.1-0.2-0.2-0.3-0.4-0.5c0,0-0.1,0-0.2,0c0,0,0,0.2,0,0.2
	C85.4,10.3,85.5,10.4,85.6,10.6C85.5,10.6,85.6,10.6,85.6,10.6z"/>
<path class="st7" d="M78.6,12.8l-0.5,2.5c0,0,0.8,1.3,1.8,1.6c1,0.3,1.8-0.9,1.8-0.9l0.4-2.4L78.6,12.8z"/>
<path class="st13" d="M78.6,12.8l-0.2,1.1c0.6,0.9,1.7,1.3,3.6,1.3l0.3-1.6L78.6,12.8z"/>
<path class="st7" d="M77,5.8c-0.1,1.1-0.2,2.1-0.2,3.2c0,0.2,0,0.5,0,0.7c0.2,2,1,5.4,4.9,4.7c1.8-0.3,2.8-2,3.5-3.8
	c0.4-1.1,0.7-2.3,0.9-3.4c0.1-0.5,0-0.9-0.1-1.4c-0.2-0.4-0.4-0.8-0.8-1.1c-2-1.6-4.4-1.6-6-1.2c-0.6,0.1-1.1,0.4-1.4,0.8
	C77.3,4.8,77.1,5.3,77,5.8z"/>
<path class="st9" d="M83.1,9c0,0.3,0.1,0.5,0.2,0.5c0.2,0,0.3-0.2,0.4-0.4c0.1-0.3-0.1-0.5-0.2-0.6C83.4,8.5,83.1,8.8,83.1,9z"/>
<path class="st9" d="M79.5,8.4c0,0.3,0.1,0.5,0.2,0.5c0.2,0,0.4-0.2,0.4-0.4c0-0.3,0-0.5-0.2-0.6C79.7,7.9,79.5,8.1,79.5,8.4z"/>
<path class="st9" d="M84.7,7.8c0,0-1.2-0.8-2.3-0.5v0.5c0.7,0,1.5,0.2,2.1,0.5C84.6,8.1,84.7,8,84.7,7.8z"/>
<path class="st9" d="M78.8,6.7c0,0,1.4-0.3,2.3,0.3l-0.2,0.5c-0.7-0.3-1.4-0.3-2.2-0.2C78.7,7,78.7,6.9,78.8,6.7z"/>
<path class="st13" d="M81,10.6c-0.1,0-0.3-0.1-0.4-0.2c0,0-0.1-0.1,0-0.2c0,0,0.1-0.1,0.2,0c0.1,0,0.3,0.2,0.5,0.1
	c0.1-0.1,0.1,0,0.1-0.1c0.1-0.6,0.2-1.2,0.3-1.9c0,0,0-0.1,0.1-0.1c0,0,0.1,0,0.1,0c0,0,0.1,0.1,0.1,0.2c0,0.1-0.2,1.5-0.3,1.9
	c-0.1,0.4-0.2,0.3-0.2,0.3L81,10.6z"/>
<path class="st8" d="M82.4,11.6c-0.2,0.5-0.7,1.4-1.8,1.2c-1.1-0.2-1.3-1.1-1.3-1.7L82.4,11.6z"/>
<path class="st13" d="M80.5,13.4c-0.2,0-0.4-0.1-0.5-0.3c0,0,0,0-0.1,0c0,0,0,0,0,0s0,0,0-0.1c0,0,0,0,0,0c0.1-0.1,0.2-0.1,0.2,0
	c0.1,0.1,0.3,0.2,0.5,0.2c0.2,0,0.3,0,0.5,0c0,0,0.1,0,0.2,0c0,0,0,0.1,0,0.1c0,0,0,0.1-0.1,0.1C80.9,13.4,80.7,13.4,80.5,13.4z"/>
<path class="st9" d="M85,9.9c0.2-0.5,0.3-1,0.4-1.5c0-0.6-0.5-1-0.2-1.5c0.3-0.5-0.2-1.2-0.6-1.4c-0.4-0.2-1.5-0.1-2.4-0.8
	c-0.9-0.7-2.6-0.6-3,0s0,0.9-1.1,1.5C77.7,6.4,78,7.3,78,7.8c0,0.2-0.1,0.4-0.1,0.6v0.2l-1.1-0.2c0-0.9,0.2-1.8,0.2-2.6
	c0.1-0.6,0.3-1.1,0.7-1.5c0.4-0.4,0.9-0.7,1.4-0.8c1.7-0.3,4-0.4,6,1.2c0.4,0.3,0.6,0.7,0.8,1.1c0.2,0.4,0.2,0.9,0.1,1.4
	c-0.1,0.9-0.3,1.8-0.6,2.7L85,9.9z"/>
<path class="st7" d="M77.2,9c0-0.3,0.1-0.6,0.1-0.9c0-0.2,0-0.4-0.1-0.5c-0.1-0.2-0.2-0.3-0.3-0.4C76.8,7.1,76.7,7,76.6,7
	c-0.1,0-0.2,0-0.2,0c-0.1,0-0.2,0-0.2,0.1c-0.1,0-0.1,0.1-0.2,0.2c-0.8,0.8-0.6,3.5,0.9,3.2L77.2,9z"/>
<path class="st13" d="M76.8,9.5c0,0-0.1,0-0.1-0.1c0-0.3,0-0.5-0.1-0.8c-0.1-0.2-0.3-0.5-0.5-0.6c0,0,0-0.1,0-0.1c0,0,0-0.1,0-0.1
	h0.2c0.2,0.2,0.4,0.5,0.5,0.8c0.1,0.3,0.2,0.6,0.1,0.9c0,0,0,0,0,0.1C76.9,9.5,76.8,9.5,76.8,9.5L76.8,9.5z"/>
<path class="st13" d="M76.1,8.8L76.1,8.8C76.1,8.8,76.1,8.8,76.1,8.8c-0.1-0.1-0.1-0.1,0-0.2c0.2-0.1,0.4-0.2,0.6-0.2
	c0.1,0,0.2,0,0.2,0.1c0,0,0,0.1,0,0.1c0,0,0,0-0.1,0c-0.2,0-0.3,0.1-0.5,0.2C76.3,8.9,76.2,8.9,76.1,8.8C76.2,8.9,76.2,8.9,76.1,8.8
	C76.2,8.9,76.2,8.9,76.1,8.8C76.2,8.9,76.2,8.9,76.1,8.8z"/>
<path class="st7" d="M133.6,66.6c-1.1,1.9-2.2,3.8-3.6,5.6c-0.5,0.7-1.1,1.3-1.8,1.9c-0.9,0.8-1.9,1.3-2.6,0.9
	c-2.8-1.4-9.1-12.4-9.1-12.4l1.6-1.8c0,0,2.8,3.2,4.8,5l3.3,3c0.3-0.4,0.6-0.8,0.8-1.3c0.3-0.5,0.6-1,0.9-1.5
	c2.4-3.8,5.2-7.9,5.2-7.9L133.6,66.6z"/>
<path class="st7" d="M118.5,61.9c0,0,0.6-1,0.4-2c-0.2-0.9-0.5-3-1.5-3c-0.4,0,0.1,0.9-0.1,1.7c-0.6-0.3-1.3-0.7-1.8-1.1
	c-0.6-0.5-2-1.2-2.6-1.6c-0.6-0.4-0.4,0.1-0.3,0.3c0.1,0.2,0.5,0.7,1.4,1.2c0,0-2.2-1.3-2.6-1c-0.4,0.3,2.4,1.8,2.4,1.8
	s-2.3-0.9-2.4-0.6c-0.2,0.3,2.1,1.5,2.1,1.5s-2.2-0.7-1.8-0.2c0.4,0.5,4.3,2.1,5.2,4.2C117,63.3,118.2,62.7,118.5,61.9z"/>
<path class="st13" d="M130,72.2c-0.5,0.7-1.1,1.3-1.8,1.9l-1.2-6.5c0.3-0.5,0.6-1,0.9-1.5L130,72.2z"/>
<path class="st4" d="M133.2,58l-5.9,8.6l1.9,7.6l4.7-7.4C133.9,66.7,134.7,61.8,133.2,58z"/>
<path class="st7" d="M136.3,131.1v2.7l2.6,0l0.2-2.9L136.3,131.1z"/>
<path class="st9" d="M142.7,91.7c0,0.3-0.1,1.9-0.2,4c-0.4,5.9-1.1,16.4-1.4,18.7c-0.4,2.4-0.2,10.4-0.1,14.5c0,0.7-0.2,1.3-0.7,1.8
	c-0.2,0.2-0.4,0.3-0.6,0.4c-0.4,0.2-0.8,0.3-1.3,0.3h-1.9c-0.3,0-0.7-0.1-1-0.2c-0.3-0.1-0.6-0.3-0.8-0.6c-0.2-0.2-0.4-0.5-0.6-0.8
	c-0.1-0.3-0.2-0.6-0.2-1c0.1-3.5,0.2-9.9,0-14.8c-0.2-4.9,0.1-13,0.4-18.2c0.1-2.1,0.2-3.6,0.2-4.3L142.7,91.7z"/>
<path class="st10" d="M134.5,91.6l8.2,0.1c0,0.3-0.1,1.9-0.2,4c-2.8,0.3-5.7,0.5-8.2,0.2C134.4,93.8,134.5,92.2,134.5,91.6z"/>
<path class="st10" d="M140.2,121.5c0.1,2.7,0.2,5.4,0.1,7.6c0,0.6,0,1.1,0,1.6c-0.2,0.2-0.4,0.3-0.6,0.4c0-0.5,0.1-1.2,0.1-2.1
	c0-2.2,0-4.9-0.1-7.5c-0.1-3.3-0.1-6.3,0-7.6c0.4-2.8,1.3-18.2,1.5-22.4h0.6c-0.2,4.1-1.1,19.6-1.5,22.4
	C140,115.3,140.1,118.3,140.2,121.5z"/>
<path class="st4" d="M136.9,133.7c0,0-0.5-0.7-1-0.7s-3.8,2.5-4.9,2.7c-1.2,0.2-0.9,1-0.7,1.4c0.2,0.4,9,0,9,0s0.3-2.6,0-3.3
	C139.1,133,137.8,133.9,136.9,133.7z"/>
<path class="st8" d="M135.1,135.5h0.1c0,0,0.1,0,0.1-0.1c0,0,0-0.1,0-0.1c-0.2-0.4-0.4-0.7-0.8-0.9c-0.2-0.1-0.4-0.2-0.6-0.2
	c-0.2,0-0.4,0.1-0.6,0.2c-0.1,0-0.1,0.1,0,0.2c0,0,0,0,0,0c0,0,0,0,0.1,0c0,0,0,0,0.1,0c0,0,0,0,0.1,0c0.1-0.1,0.3-0.1,0.4-0.1
	c0.1,0,0.3,0,0.4,0.1C134.6,134.9,134.8,135.1,135.1,135.5L135.1,135.5z"/>
<path class="st8" d="M135.6,135h0.1c0,0,0.1-0.1,0.1-0.1c0,0,0-0.1,0-0.1c-0.2-0.3-0.5-0.6-0.8-0.9c-0.2-0.1-0.4-0.1-0.5-0.1
	c-0.2,0-0.4,0.1-0.5,0.2c-0.1,0.1-0.1,0.1,0,0.2c0,0,0,0,0,0c0,0,0,0,0.1,0c0,0,0,0,0.1,0c0,0,0,0,0,0c0.1-0.1,0.3-0.1,0.4-0.1
	c0.1,0,0.3,0,0.4,0.1c0.3,0.2,0.5,0.4,0.7,0.7L135.6,135z"/>
<path class="st8" d="M134.4,135.8h0.1c0,0,0.1,0,0.1-0.1c0,0,0-0.1,0-0.1c-0.2-0.4-0.5-0.7-0.8-0.9c-0.2-0.1-0.4-0.2-0.6-0.2
	c-0.2,0-0.4,0.1-0.5,0.2c-0.1,0-0.1,0.2,0,0.2c0.1,0,0.1,0.1,0.2,0c0.1-0.1,0.3-0.1,0.4-0.1c0.1,0,0.3,0,0.4,0.1
	c0.3,0.2,0.5,0.4,0.7,0.8L134.4,135.8z"/>
<path class="st7" d="M148.5,131.1l0.3,2.7l2.3,0l0.2-2.9L148.5,131.1z"/>
<path class="st9" d="M153.2,114.1c-0.3,4.9-0.2,11.3,0,14.8c0,0.3,0,0.7-0.2,1c-0.1,0.3-0.3,0.6-0.6,0.8c-0.2,0.2-0.5,0.4-0.8,0.6
	c-0.3,0.1-0.7,0.2-1,0.2h-1.9c-0.4,0-0.8-0.1-1.2-0.3l-0.6-0.4c-0.3-0.2-0.5-0.5-0.6-0.9c-0.1-0.3-0.2-0.7-0.2-1
	c0.1-4.1,0.3-12-0.1-14.5c-0.4-2.4-1.1-13.2-1.4-19c-0.1-2-0.2-3.3-0.2-3.7l8.2,0.1c0,0.4,0.1,1.1,0.1,1.8
	C152.9,98.4,153.5,108.6,153.2,114.1z"/>
<path class="st10" d="M152.7,93.7c-1.5,0.4-4.6,1.2-8.1,1.7c-0.1-2-0.2-3.3-0.2-3.7l8.2,0.1C152.6,92.2,152.6,92.9,152.7,93.7z"/>
<path class="st10" d="M147.4,129.1c0,0.9,0,1.6,0.1,2.1l-0.6-0.4c0-0.5-0.1-1.1-0.1-1.7c0-2.2,0-5,0.1-7.6c0.1-2.7,0.2-6.2,0-7.5
	c-0.4-2.9-1.2-18.3-1.5-22.4h0.6c0.2,4.1,1.1,19.5,1.5,22.4c0.2,1.3,0.1,4.4,0,7.6C147.4,124.2,147.3,126.9,147.4,129.1z"/>
<path class="st4" d="M149.7,133.4c0.5-0.1,1-0.2,1.5-0.3c0.3,0,2.4,2.3,3.2,2.4c1.3,0.3,1.3,2.3,0.5,2.4c-2.3,0.3-6.2-0.7-6.2-0.7
	s-0.4-2.6-0.2-3.3C148.6,133.1,149.1,133.6,149.7,133.4z"/>
<path class="st8" d="M151.6,135.6c0,0-0.1,0-0.1,0c0,0-0.1-0.1-0.1-0.1c0,0,0-0.1,0-0.1c0.2-0.3,0.5-0.6,0.9-0.8
	c0.2-0.1,0.4-0.1,0.6-0.1c0.2,0,0.4,0.1,0.5,0.2c0.1,0,0.1,0.1,0,0.2c0,0-0.1,0-0.1,0c0,0-0.1,0-0.1,0c-0.1-0.1-0.2-0.1-0.4-0.1
	c-0.1,0-0.3,0-0.4,0.1c-0.3,0.1-0.6,0.4-0.8,0.7L151.6,135.6z"/>
<path class="st8" d="M151.2,135.1H151c0,0,0,0,0,0c0,0,0,0,0-0.1c0,0,0,0,0-0.1c0,0,0,0,0,0c0.2-0.3,0.5-0.6,0.9-0.8
	c0.2-0.1,0.4-0.1,0.6-0.1c0.2,0,0.4,0.1,0.5,0.2c0,0,0,0,0,0c0,0,0,0,0,0.1c0,0,0,0,0,0.1c0,0,0,0,0,0.1c0,0,0,0,0,0c0,0,0,0-0.1,0
	c0,0,0,0-0.1,0c0,0,0,0-0.1,0c-0.1-0.1-0.2-0.2-0.4-0.2c-0.1,0-0.3,0-0.4,0.1C151.7,134.6,151.4,134.8,151.2,135.1L151.2,135.1z"/>
<path class="st8" d="M152.2,136h-0.1c-0.1,0-0.1-0.1,0-0.2c0.2-0.3,0.5-0.6,0.9-0.8c0.2-0.1,0.4-0.1,0.6-0.1c0.2,0,0.4,0.1,0.5,0.2
	c0,0,0.1,0.1,0.1,0.1c0,0,0,0.1,0,0.1c0,0-0.1,0.1-0.1,0.1c0,0-0.1,0-0.1,0c-0.1-0.1-0.2-0.1-0.4-0.1c-0.1,0-0.3,0-0.4,0.1
	c-0.3,0.1-0.6,0.4-0.8,0.6L152.2,136z"/>
<path class="st4" d="M154.4,92.5c-7.3,1.8-14.9,1.8-22.1,0c-0.1-2.7-0.1-13.5,0.1-22.4v-0.5c0-0.1,0-0.2,0-0.3v-0.3
	c0.1-5.9,0.4-10.6,0.9-11.3c1.1-1.5,6.6-3.9,8.2-4.9c0.1,0.2,0.9,1.3,1.8,1.4c1,0.1,2.1-1.2,2.1-1.2v-0.2c1.5,1.1,6.5,3.3,7.7,4.7
	C154.2,59.1,154.5,87.9,154.4,92.5z"/>
<path class="st2" d="M134.7,66c-0.6,0.9-1.5,2.8-2,3.6l-0.1,0.3c0,0.1,0,0.1-0.1,0.2l-0.1,0.1v-0.5c0-0.1,0-0.2,0-0.3l0.3-0.6
	c0.5-1,1-2,1.7-3c0-0.1,0.2-0.1,0.2,0C134.7,65.8,134.7,65.9,134.7,66z"/>
<path class="st2" d="M148.8,59.5c-2.4-0.1-4.6-0.9-6.6-2.3c-0.9-0.6-1.6-1.3-2.3-2.1c0,0,0-0.1,0-0.1c0,0,0-0.1,0.1-0.1
	c0.1,0,0.2,0,0.2,0c0,0.1,3.2,4.1,8.7,4.3c0,0,0,0,0.1,0c0,0,0,0,0,0c0,0,0,0,0,0c0,0,0,0,0,0.1c0,0,0,0.1-0.1,0.1
	C148.9,59.5,148.9,59.5,148.8,59.5z"/>
<path class="st2" d="M138.9,86.9C138.9,86.9,138.9,86.9,138.9,86.9c-0.1,0-0.2,0-0.2,0c0,0-0.1,0-0.1-0.1c0,0,0-0.1,0-0.1
	c0,0,0-0.1,0-0.1c0,0,0-0.1,0.1-0.1c0,0,0.1,0,0.1,0c0,0,0.1,0,0.1,0c4.8-0.3,7.7-2.7,9.3-4.7c1-1.3,1.8-2.7,2.3-4.2
	c0-0.1,0.1-0.2,0.2-0.2c0,0,0,0,0.1,0c0,0,0,0,0,0.1c0,0,0,0,0,0.1c0,0,0,0,0,0.1c-0.5,1.6-1.2,3-2.3,4.3
	C146.9,84.1,143.9,86.6,138.9,86.9z"/>
<path class="st2" d="M141.5,83.9c0,0-0.1,0-0.1,0c0,0-0.1-0.1-0.1-0.1c0,0,0-0.1,0-0.1c0,0,0.1-0.1,0.1-0.1c4.2-1.1,5-4.5,5-4.5
	c0,0,0.1-0.2,0.2-0.2c0,0,0.1,0,0.1,0.1c0,0,0,0.1,0,0.1c-0.2,0.7-0.5,1.4-1,2C144.8,82.5,143.3,83.5,141.5,83.9L141.5,83.9z"/>
<path class="st7" d="M159.9,92.2c-0.1,1.5-1,2.6-1,3.5s-1.2,0.3-0.6-1.6c0.5-1.9-0.3-3.8-0.7-3.7c-0.4,0,0.2,2.1-0.3,2.9
	c-0.5,0.7-0.8-0.8-1.2-1.7c-0.4-0.9-0.2-3,0.2-4.4c0.3-1.4-1.4-10.2-1.2-12.8l-0.6-3.2l-0.4-1.9l-0.1-2l3.4-1.3
	c0.1,0.6,0.3,1.3,0.4,2c0.2,0.7,0.1,0.6,0.2,0.9c0.5,2.4,0.9,4.7,1.1,6.2c0.4,4.1-0.3,12.5-0.3,12.5S160,90.9,159.9,92.2z"/>
<path class="st13" d="M158,68.9c-0.9,1.1-2.1,1.9-3.5,2.4l-0.4-1.9l-0.1-2l3.4-1.3c0.1,0.6,0.3,1.3,0.4,2
	C158,68.7,158,68.6,158,68.9z"/>
<path class="st4" d="M158.9,67c-0.3,0.4-0.7,0.7-1.1,1c-1.1,0.8-2.4,1.3-3.8,1.4c-0.2-5.5-0.5-10.1-0.9-11.4
	C154,58.8,157.4,63.1,158.9,67z"/>
<path class="st2" d="M151.7,65.4c0.8,1.2,1.4,2.4,2,3.6c0,0.1,0.1,0.2,0.1,0.3l0.1,0.2c0,0.1,0.1,0.1,0.2,0.1v-0.3h0.1
	c0-0.1-0.1-0.2-0.2-0.3c-0.1-0.2-0.2-0.5-0.4-0.9c-0.5-1-1-2-1.7-2.9c0,0,0,0-0.1,0c0,0,0,0-0.1,0c0,0,0,0-0.1,0c0,0,0,0-0.1,0
	C151.7,65.3,151.7,65.4,151.7,65.4z"/>
<path class="st9" d="M148.7,44.1c0,3-1.9,5-4.9,5c-3,0-5.1-2.2-5.1-5.1c0-3,1.8-5.2,4.8-5.2C147.1,38.7,148.7,41.1,148.7,44.1z"/>
<path class="st13" d="M148,45.4c0,0,0.8-1.1,1.5-0.2c0.6,0.9-0.3,3.6-1.8,2.9L148,45.4z"/>
<path class="st14" d="M148,47.3C148,47.3,148,47.3,148,47.3c0.1-0.1,0.1-0.1,0.1-0.1c0.3-0.8,1.1-1.1,1.1-1.2c0,0,0.1-0.1,0.1-0.2
	c0-0.1-0.1-0.1-0.2-0.1c-0.3,0.1-0.6,0.3-0.8,0.5c-0.2,0.2-0.4,0.5-0.5,0.8C147.8,47.2,147.9,47.2,148,47.3L148,47.3z"/>
<path class="st14" d="M148.8,46.9L148.8,46.9c0.1,0,0.1,0,0.1,0c0,0,0,0,0,0c0,0,0,0,0-0.1c0,0,0,0,0,0c-0.1-0.2-0.3-0.3-0.5-0.4
	c0,0-0.1,0-0.1,0c0,0,0,0-0.1,0.1c0,0,0,0.1,0,0.1c0,0,0,0.1,0.1,0.1C148.5,46.6,148.7,46.7,148.8,46.9
	C148.8,46.8,148.8,46.8,148.8,46.9C148.8,46.9,148.8,46.9,148.8,46.9z"/>
<path class="st13" d="M139.3,45.4c0,0-0.8-1.1-1.5-0.2c-0.6,0.9,0.3,3.6,1.8,2.9L139.3,45.4z"/>
<path class="st14" d="M139.3,47.3c-0.1,0-0.1,0-0.1-0.1c-0.2-0.8-1.1-1.1-1.1-1.2c0,0-0.1-0.1-0.1-0.2c0-0.1,0.1-0.1,0.1-0.1
	c0.3,0.1,0.6,0.3,0.8,0.5c0.2,0.2,0.4,0.5,0.5,0.8C139.5,47.2,139.4,47.2,139.3,47.3L139.3,47.3z"/>
<path class="st14" d="M138.4,46.9L138.4,46.9c-0.1,0-0.2-0.1-0.1-0.2c0.1-0.2,0.3-0.3,0.5-0.4c0.1,0,0.1,0,0.2,0.1c0,0,0,0.1,0,0.1
	c0,0,0,0.1-0.1,0.1c-0.1,0.1-0.3,0.1-0.4,0.3C138.5,46.8,138.5,46.9,138.4,46.9z"/>
<path class="st7" d="M141.6,50.4v2.7c0,0,0.8,1.4,1.9,1.4c1.1,0.1,2.1-1.2,2.1-1.2v-2.7L141.6,50.4z"/>
<path class="st13" d="M141.6,50.4v1.2c0.8,0.8,2.1,1,4,0.7v-1.7L141.6,50.4z"/>
<path class="st7" d="M148.4,45.3c-0.1,0.6-0.1,1.2-0.2,1.7c-0.4,2-1.2,3.9-3,4.5c-4,1.4-5.4-2-6-3.9c-0.1-0.2-0.1-0.5-0.2-0.7
	c-0.1-0.3-0.2-1-0.2-1.5c0-0.5-0.1-1.3-0.1-1.9c0-0.6,0.1-1.2,0.4-1.7c0.3-0.5,0.8-0.9,1.4-1.1c1.7-0.6,4.1-1.1,6.5,0.2
	c0.4,0.2,0.8,0.6,1,1c0.3,0.4,0.4,0.9,0.4,1.4C148.5,43.9,148.5,44.6,148.4,45.3z"/>
<path class="st9" d="M147.9,45.4c-0.1,0.2-0.9,2.5-1.1,2.8c-0.5-1-2.7-0.3-2.7-0.3c-0.1,0.1-0.3,0.1-0.4,0.1h-0.5
	c0,0-2.3-0.7-2.8,0.4c-0.2-0.3-0.9-2.6-1-2.9h-0.6c0,0.5,0.1,1,0.2,1.5s0.1,0.5,0.2,0.7c0.6,2,2,5.3,6,3.9c1.8-0.6,2.6-2.6,3-4.5
	c0.1-0.6,0.1-1.2,0.2-1.7L147.9,45.4z M145.8,49.5c-0.2,0.2-0.3,0.3-0.5,0.4c-1,0.5-1.1,0.5-1.5,0.5c-0.5,0-1.1-0.1-1.5-0.4
	c-0.3-0.1-0.5-0.3-0.8-0.5c0,0-0.4-1.4,2.2-1.1C146.3,48,145.8,49.3,145.8,49.5z"/>
<path class="st9" d="M145.4,45.7c0,0.3,0.2,0.5,0.3,0.5c0.2,0,0.3-0.2,0.3-0.5c0-0.3-0.2-0.5-0.3-0.5
	C145.5,45.2,145.4,45.4,145.4,45.7z"/>
<path class="st9" d="M141.4,45.7c0,0.3,0.1,0.5,0.3,0.5s0.3-0.2,0.3-0.5c0-0.3-0.1-0.5-0.3-0.5S141.4,45.4,141.4,45.7z"/>
<path class="st9" d="M147,44.2c0,0-1.3-0.5-2.3-0.1l0.1,0.6c0,0,1.4-0.1,2.2,0.2C147.1,44.7,147.1,44.4,147,44.2z"/>
<path class="st9" d="M140.7,44.2c0,0,1.3-0.5,2.3-0.1l-0.1,0.6c0,0-1.4-0.1-2.1,0.2C140.6,44.7,140.6,44.4,140.7,44.2z"/>
<path class="st13" d="M143.6,47.7l-0.4-0.1c0,0-0.1,0-0.1-0.1c0,0,0-0.1,0-0.1l0.2-0.1c0.1,0,0.2,0.1,0.3,0.1c0.1,0,0.2,0,0.3,0
	c0,0,0.1,0,0.1-0.1c0-0.1-0.1-2-0.1-2s0-0.1,0.1-0.2c0.1,0,0.1,0.1,0.1,0.1c0,0,0.1,1.5,0.1,2c0,0.1-0.1,0.3-0.2,0.3L143.6,47.7z"/>
<path class="st8" d="M145.4,48.6c-0.1,0.5-0.4,1.5-1.7,1.5c-1.2,0-1.5-0.9-1.6-1.5H145.4z"/>
<path class="st9" d="M138.9,45.4h0.6c-0.1-0.6-0.2-1.6,0.3-1.8c1.5-0.5-0.5-1.5,0.2-2c0.7-0.5,2.4-0.3,3.6-0.3
	c1.2-0.1,2.4,0,3.6,0.1c0.4,0.1,0.2,0.9,0,1.5c-0.2,0.6,0.6,1.2,0.7,1.8c0,0.2,0,0.5,0,0.8h0.5c0.1-0.7,0.1-1.4,0.1-2
	c0-0.5-0.2-1-0.4-1.4c-0.3-0.4-0.6-0.8-1-1c-2.4-1.3-4.8-0.8-6.5-0.2c-0.6,0.2-1,0.6-1.4,1.1c-0.3,0.5-0.5,1.1-0.4,1.7
	C138.8,44.1,138.8,44.8,138.9,45.4z"/>
<path class="st8" d="M53,110.2H23.3c0.5-3,2.9-5.1,5.6-5.1h18.5C50.2,105.1,52.5,107.2,53,110.2z"/>
<path class="st8" d="M27.3,109.8h-1.6v27.7h1.6V109.8z"/>
<path class="st8" d="M50.7,109.8h-1.6v27.7h1.6V109.8z"/>
<path class="st1" d="M49.1,117.5H27.3v1.6h21.8V117.5z"/>
<path class="st2" d="M30.9,72.9c0,0-5,6.6-5.6,12.4c-0.5,4.1,5.6,10.2,5.6,10.2l2.1-1.1l-2.1-4.7c-0.7-2.3-1.7-3.2-1-5.5l1.5-3.3
	L30.9,72.9z"/>
<path class="st2" d="M46.5,72.8c0,0,4.9,7.1,5.3,12.9c0.3,5-5.6,9.8-5.6,9.8l-1.7-0.9l2.4-4.8c0.8-2.3,1.1-3.7,0.1-6.2l-1.3-2.7
	L46.5,72.8z"/>
<path class="st4" d="M31.9,88l-3.3,10.4c0,0,14.3,1.8,18.6,0.6L45,87.7l1.5-14.9c-2.1-0.9-4.4-1.5-6.7-1.6c-3.3-0.3-5.5,0.3-8.9,1.7
	L31.9,88z"/>
<path class="st2" d="M35.5,76.1c3.2-0.4,6.1-2.5,6.2-2.6c0,0,0,0,0,0c0,0,0,0,0-0.1c0,0,0,0,0-0.1c0,0,0,0,0-0.1
	c0,0-0.1-0.1-0.1-0.1c0,0-0.1,0-0.1,0c0,0-3.5,2.6-6.8,2.6c0,0-0.1,0-0.1,0.1c0,0-0.1,0.1-0.1,0.1c0,0,0,0,0,0.1c0,0,0,0,0,0.1
	c0,0,0,0,0.1,0c0,0,0,0,0.1,0L35.5,76.1z"/>
<path class="st7" d="M38,132.1l0.3,2.3l2.5,0l0.2-1.9L38,132.1z"/>
<path class="st10" d="M37.6,95.5c0,0-6.3-0.4-8.5,1.4s-1.7,6.8,0.5,8.2c2.2,1.4,5.9,4.1,5.9,4.1l2.4,23.7L41,133
	c0,0,2.9-23.8,1.4-28.4C41,100,37.6,95.5,37.6,95.5z"/>
<path class="st9" d="M41.3,131.8c0.1,0.5,0.1,1.1-0.1,1.7l-3.6-0.1c-0.1-0.5-0.1-1.1,0-1.6L41.3,131.8z"/>
<path class="st8" d="M46.6,95.3H29.9l-1.5-9c0-0.2,0-0.4,0-0.6c0-0.2,0.1-0.4,0.3-0.5s0.3-0.3,0.4-0.3c0.2-0.1,0.4-0.1,0.5-0.1h17.3
	c0.2,0,0.4,0,0.5,0.1c0.2,0.1,0.3,0.2,0.4,0.3c0.1,0.1,0.2,0.3,0.3,0.5c0,0.2,0.1,0.4,0,0.5L46.6,95.3z"/>
<path class="st1" d="M45.3,97.3h-14c-0.4,0-0.7-0.1-1-0.4c-0.3-0.3-0.4-0.6-0.4-1v-0.6h16.7v0.6c0,0.4-0.1,0.7-0.4,1
	C46,97.1,45.6,97.3,45.3,97.3z"/>
<path class="st1" d="M39.7,90.4c-0.1,0.3-0.2,0.7-0.5,0.9c-0.3,0.2-0.6,0.3-0.9,0.3c-0.3,0-0.7-0.1-0.9-0.3
	c-0.3-0.2-0.4-0.5-0.5-0.9c0-0.2,0-0.4,0-0.6c0.1-0.2,0.2-0.4,0.3-0.6s0.3-0.3,0.5-0.4c0.2-0.1,0.4-0.1,0.6-0.1c0.2,0,0.4,0,0.6,0.1
	c0.2,0.1,0.4,0.2,0.5,0.4c0.1,0.2,0.2,0.4,0.3,0.6C39.8,90,39.8,90.2,39.7,90.4z"/>
<path class="st7" d="M27.5,125.6l-0.5,2.3l2.2,0.4l0.9-2L27.5,125.6z"/>
<path class="st9" d="M40.8,95.1c0,0-4.2-1.5-6.8,1.6c-2.5,3.1-6.7,29.2-6.7,29.2l2.9,1.2l9.2-23.1c0,0,7.5,4.3,8.4-1.8
	C48.6,97.3,40.8,95.1,40.8,95.1z"/>
<path class="st11" d="M30.9,125.8c0,0.6-0.2,1.1-0.6,1.6l-3.5-1.2c0-0.6,0.2-1.1,0.5-1.6L30.9,125.8z"/>
<path class="st4" d="M28.7,127.6c-0.6-0.3-1.1-0.6-1.7-0.8c-0.4-0.1-3.7,2.3-4.6,2.2c-1.7,0-2.2,2.4-1.2,2.7c2.7,1,7.8,0.9,7.8,0.9
	s1.1-3,1.2-4.1C30.2,127.4,29.4,128,28.7,127.6z"/>
<path class="st8" d="M25.8,129.7h0.2c0,0,0,0,0.1,0c0,0,0,0,0-0.1c0,0,0-0.1,0-0.1c0,0,0-0.1,0-0.1c-0.2-0.5-0.5-0.9-0.9-1.2
	c-0.2-0.1-0.4-0.2-0.7-0.3c-0.2,0-0.5,0-0.7,0.1c-0.1,0.1-0.2,0.2-0.1,0.3c0,0,0,0,0,0.1c0,0,0,0,0.1,0c0,0,0.1,0,0.1,0
	c0,0,0.1,0,0.1,0c0.2-0.1,0.3-0.1,0.5-0.1c0.2,0,0.3,0.1,0.5,0.2c0.3,0.3,0.6,0.6,0.8,1L25.8,129.7z"/>
<path class="st8" d="M26.5,129.2c0,0,0.1,0,0.2,0c0,0,0,0,0.1,0c0,0,0,0,0-0.1c0,0,0,0,0-0.1c0,0,0,0,0-0.1c0,0-0.3-0.9-0.9-1.2
	c-0.2-0.2-0.4-0.2-0.7-0.3c-0.2,0-0.5,0-0.7,0.1c0,0-0.1,0-0.1,0c0,0,0,0,0,0.1c0,0,0,0.1,0,0.1c0,0,0,0.1,0,0.1c0,0,0,0.1,0,0.1
	c0,0,0,0,0.1,0s0.1,0,0.1,0c0,0,0.1,0,0.1,0c0.2-0.1,0.3-0.1,0.5-0.1c0.2,0,0.3,0.1,0.5,0.2c0.3,0.3,0.6,0.6,0.8,1
	C26.3,129.2,26.4,129.2,26.5,129.2C26.4,129.2,26.4,129.2,26.5,129.2z"/>
<path class="st8" d="M24.9,130C24.9,130.1,25,130.1,24.9,130c0.1,0,0.1,0,0.2,0c0,0,0,0,0.1,0c0,0,0,0,0-0.1s0,0,0-0.1
	c0,0,0-0.1,0-0.1c-0.2-0.5-0.5-0.9-0.9-1.2c-0.2-0.1-0.4-0.2-0.7-0.3c-0.2,0-0.5,0-0.7,0.1c0,0-0.1,0.1-0.1,0.1c0,0,0,0.1,0,0.1
	c0,0,0.1,0.1,0.1,0.1c0,0,0.1,0,0.1,0c0.2-0.1,0.3-0.1,0.5-0.1c0.2,0,0.3,0.1,0.5,0.2c0.3,0.3,0.6,0.6,0.8,1
	C24.9,130,24.9,130,24.9,130z"/>
<path class="st4" d="M39.2,134.4c0,0,1.4-0.4,1.8-0.5c0.4,0,3,2.7,3.9,2.9c1.6,0.2,1.7,2.6,0.7,2.8c-2.7,0.5-7.5-0.5-7.5-0.5
	s-0.5-3.1-0.4-4.1C37.9,134,38.4,134.6,39.2,134.4z"/>
<path class="st8" d="M41.6,136.9h-0.2c0,0-0.1-0.1-0.1-0.1c0,0,0-0.1,0-0.1c0.3-0.4,0.6-0.7,1.1-1c0.2-0.1,0.4-0.2,0.7-0.1
	c0.2,0,0.5,0.1,0.7,0.2c0,0,0.1,0.1,0.1,0.1c0,0,0,0.1-0.1,0.1c0,0,0,0,0,0.1c0,0,0,0-0.1,0c0,0-0.1,0-0.1,0c0,0,0,0-0.1,0
	c-0.1-0.1-0.3-0.1-0.5-0.1c-0.2,0-0.3,0-0.5,0.1c-0.3,0.2-0.6,0.5-0.9,0.8L41.6,136.9z"/>
<path class="st8" d="M41,136.3h-0.2c0,0-0.1-0.1-0.1-0.1c0,0,0-0.1,0-0.1c0.2-0.4,0.6-0.7,1-1c0.2-0.1,0.5-0.2,0.7-0.1
	c0.2,0,0.5,0.1,0.7,0.2c0,0,0,0,0,0.1c0,0,0,0,0,0.1c0,0,0,0,0,0.1s0,0,0,0.1c0,0,0,0-0.1,0c0,0,0,0-0.1,0c0,0,0,0-0.1,0
	c0,0,0,0-0.1,0c-0.1-0.1-0.3-0.2-0.5-0.2c-0.2,0-0.3,0-0.5,0.1c-0.3,0.2-0.6,0.5-0.9,0.8C41.1,136.3,41.1,136.3,41,136.3z"/>
<path class="st8" d="M42.3,137.3c0,0-0.1,0-0.2,0c0,0-0.1-0.1-0.1-0.1c0,0,0-0.1,0-0.1c0.3-0.4,0.6-0.7,1.1-1
	c0.2-0.1,0.4-0.2,0.7-0.1c0.2,0,0.5,0.1,0.7,0.2c0,0,0.1,0.1,0.1,0.1c0,0,0,0.1-0.1,0.1c0,0.1-0.2,0.1-0.3,0
	c-0.1-0.1-0.3-0.1-0.5-0.1c-0.2,0-0.3,0-0.5,0.1c-0.3,0.2-0.6,0.5-0.9,0.8L42.3,137.3z"/>
<path class="st9" d="M42.9,58c0,0,2,3.2,1.8,6.4c-0.2,3.3,0.3,7.1-2.6,6.9c-2.9-0.2-8.1,1.2-9.8-1.4C30.7,67.4,42.9,58,42.9,58z"/>
<path class="st15" d="M43.6,63.8c0,0,0.5,4.7-1.7,6c-2.2,1.3-3.9-0.2-3.9-0.2S42.8,63,43.6,63.8z"/>
<path class="st13" d="M34.3,63.7c0,0-0.8-1.1-1.4-0.2c-0.6,0.9,0.3,3.5,1.7,2.9L34.3,63.7z"/>
<path class="st14" d="M34.3,65.6c-0.1,0-0.1,0-0.1-0.1c-0.1-0.3-0.2-0.5-0.4-0.7c-0.2-0.2-0.4-0.3-0.7-0.4c0,0-0.1,0-0.1-0.1
	c0,0,0-0.1,0-0.1l0.2-0.1c0.3,0.1,0.5,0.3,0.8,0.5c0.2,0.2,0.4,0.5,0.5,0.8C34.4,65.5,34.4,65.6,34.3,65.6L34.3,65.6z"/>
<path class="st14" d="M33.5,65.2L33.5,65.2c-0.1,0-0.2-0.1-0.1-0.2c0.1-0.1,0.1-0.2,0.2-0.2c0.1-0.1,0.2-0.1,0.3-0.1
	c0,0,0.1,0,0.2,0c0,0,0,0.1,0,0.1c0,0,0,0.1-0.1,0.1c-0.1,0-0.3,0.1-0.3,0.3L33.5,65.2z"/>
<path class="st13" d="M42.6,63.7c0,0,0.8-1.1,1.4-0.2c0.6,0.9-0.3,3.5-1.7,2.9L42.6,63.7z"/>
<path class="st14" d="M42.7,65.6c0.1,0,0.1,0,0.1-0.1c0.1-0.3,0.2-0.5,0.4-0.7c0.2-0.2,0.4-0.3,0.7-0.4c0,0,0.1,0,0.1-0.1
	c0,0,0-0.1,0-0.1l-0.2-0.1c-0.3,0.1-0.5,0.3-0.8,0.5c-0.2,0.2-0.4,0.5-0.5,0.8C42.5,65.5,42.6,65.6,42.7,65.6L42.7,65.6z"/>
<path class="st14" d="M43.5,65.2L43.5,65.2c0.1,0,0.1,0,0.1,0c0,0,0,0,0,0c0,0,0,0,0-0.1c0,0,0,0,0,0c-0.1-0.2-0.3-0.3-0.5-0.4
	c0,0-0.1,0-0.1,0c0,0-0.1,0-0.1,0.1c0,0,0,0.1,0,0.1c0,0,0,0.1,0.1,0.1c0.1,0,0.3,0.1,0.3,0.3L43.5,65.2z"/>
<path class="st7" d="M40.5,68.7v2.6c0,0-0.8,1.4-1.8,1.4c-1.1,0.1-2-1.2-2-1.2v-2.7L40.5,68.7z"/>
<path class="st13" d="M40.5,68.7v1.1c-0.7,0.8-2,1.1-3.8,0.8v-1.8L40.5,68.7z"/>
<path class="st7" d="M43.2,62c0,1.1-0.2,2.2-0.3,3.3c0,0.2-0.1,0.5-0.2,0.7c-0.5,2-1.9,5.3-5.7,3.9c-1.7-0.6-2.5-2.5-2.9-4.4
	c-0.2-1.2-0.3-2.4-0.3-3.6c0-0.5,0.2-0.9,0.4-1.3c0.2-0.4,0.6-0.7,1-1c2.3-1.3,4.7-0.8,6.2-0.2c0.5,0.2,1,0.6,1.3,1
	C43.1,60.8,43.3,61.4,43.2,62z"/>
<path class="st9" d="M36.8,64.1c0,0.3-0.1,0.5-0.3,0.5c-0.2,0-0.3-0.2-0.3-0.5c0-0.3,0.2-0.5,0.3-0.5C36.7,63.6,36.8,63.9,36.8,64.1
	z"/>
<path class="st9" d="M40.8,64.1c0,0.3-0.2,0.5-0.3,0.5c-0.2,0-0.3-0.2-0.3-0.5c0-0.3,0.2-0.5,0.3-0.5S40.8,63.9,40.8,64.1z"/>
<path class="st9" d="M35.8,62.4c0.4-0.1,0.9-0.2,1.4-0.2c0.1,0,0.1,0,0.2,0.1c0,0,0.1,0.1,0.1,0.2c0,0.1-0.1,0.1-0.1,0.1
	c0,0-0.1,0.1-0.2,0.1c-0.6,0-1.3,0-1.9,0.2c0-0.1,0-0.2,0.1-0.3C35.6,62.6,35.7,62.5,35.8,62.4z"/>
<path class="st9" d="M41,62.5c-0.5-0.1-0.9-0.2-1.4-0.2c0,0-0.1,0-0.1,0c0,0-0.1,0-0.1,0.1c0,0,0,0.1,0,0.1c0,0,0,0.1,0,0.1
	c0,0.1,0.1,0.1,0.1,0.1c0,0,0.1,0.1,0.2,0.1c0.6,0,1.3,0.1,1.9,0.2c0-0.1,0-0.2-0.1-0.3C41.3,62.6,41.2,62.5,41,62.5z"/>
<path class="st13" d="M38.5,66.2c-0.1,0-0.2,0-0.3-0.1c0,0-0.1-0.1-0.1-0.1c0-0.1,0-0.1,0-0.2c0-0.7,0-1.3,0.1-2c0,0,0-0.1,0-0.1
	c0,0,0,0,0.1,0c0.1,0,0.1,0.1,0.1,0.2c0,0.1-0.1,1.5-0.1,1.9c0,0,0,0.1,0,0.1s0,0,0.1,0.1c0.2,0,0.3,0,0.5-0.1c0.1,0,0.2,0,0.2,0.1
	c0,0.1,0,0.2,0,0.2C38.9,66.2,38.7,66.2,38.5,66.2z"/>
<path class="st8" d="M37,67c0,0.4,0.2,0.7,0.5,1c0.3,0.2,0.6,0.4,1,0.4c1.1,0,1.4-0.8,1.5-1.4H37z"/>
<path class="st13" d="M38.4,69c-0.2,0-0.4-0.1-0.6-0.2c0,0,0,0-0.1-0.1c0,0,0-0.1,0-0.1c0-0.1,0.1-0.1,0.2,0
	c0.1,0.1,0.3,0.1,0.5,0.1c0.2,0,0.3,0,0.5-0.1c0,0,0,0,0,0c0,0,0,0,0.1,0c0,0,0,0,0,0c0,0,0,0,0,0c0,0,0,0,0,0c0,0,0,0,0,0
	c0,0,0,0,0,0c0,0,0,0,0,0C38.8,69,38.6,69.1,38.4,69z"/>
<path class="st9" d="M43.7,61.7c0,0.1-0.1,0.1-0.1,0.2c-0.1,0-0.1,0.1-0.2,0.1c0,0.3,0,0.6,0,0.9c-0.2,1.8-0.6,2.1-0.7,1.7
	c-0.1-0.8-0.1-1.7,0-2.5L42,62l-0.4-1.8l-0.2,1.7c-0.6,0.2-2.1-0.2-2.1-0.2l-0.5-1.7l-0.3,1.7c-0.7,0.3-1.4,0.3-2.1,0.2l-0.3-1.8
	l-0.6,1.8c0,0-2,0.7-2,0c0-0.7,0.3-1.6,0.5-2.5c0.1-0.5,0.4-0.9,0.7-1.3c0.3-0.4,0.7-0.7,1.2-1c2.5-1.4,5.1-0.6,6-0.1
	C43.8,58.1,43.7,61.7,43.7,61.7z"/>
<path class="st9" d="M34.6,58.1c0,0-1.7,2-2.2,5.4c-0.5,3.5-1.3,6.1,0.8,7.2c2.1,1.2,2.1-1.3,2-2c0-0.7-2-2.6-0.7-8
	C35.1,59.1,34.6,58.1,34.6,58.1z"/>
<path class="st15" d="M34.3,65.3v0.4c0,0.2,0,0.3,0,0.5c0.1,1.2,0.3,3.2,1,3.9c0.4,0.3,0.9,0.5,1.4,0.5v-0.9
	c-0.6-0.3-1.2-0.8-1.5-1.4c-0.4-0.8-0.7-1.7-0.8-2.6L34.3,65.3z"/>
<path class="st8" d="M43.3,66.5c0,0.1,0,0.2-0.1,0.2c-0.1,0.1-0.1,0.1-0.2,0.1s-0.2,0-0.2-0.1c-0.1-0.1-0.1-0.1-0.1-0.2
	c0,0,0-0.1,0-0.1c0,0,0-0.1,0.1-0.1s0.1,0,0.1-0.1c0,0,0.1,0,0.1,0c0,0,0.1,0,0.1,0c0,0,0.1,0,0.1,0.1s0,0.1,0.1,0.1
	C43.3,66.4,43.3,66.5,43.3,66.5z"/>
<path class="st5" d="M130.9,32.3h-7.2c-0.5,0-1,0.4-1,1v7.2c0,0.5,0.4,1,1,1h7.2c0.5,0,1-0.4,1-1v-7.2
	C131.9,32.8,131.4,32.3,130.9,32.3z"/>
<path class="st5" d="M130.4,36.9c0,0.8-0.3,1.6-0.9,2.2c-0.6,0.6-1.4,0.9-2.2,0.9c-0.5,0-0.9-0.1-1.3-0.3c-0.4-0.2-0.8-0.5-1.1-0.8
	c-0.5-0.6-0.7-1.3-0.7-2c0-0.4,0-0.9,0.1-1.3c0.1-0.4,0.4-0.8,0.6-1.1c0.3-0.3,0.6-0.6,1-0.8s0.8-0.3,1.3-0.3c0.4,0,0.9,0.1,1.3,0.3
	c0.4,0.2,0.8,0.4,1,0.8c0.3,0.3,0.5,0.7,0.6,1.1C130.4,36,130.5,36.4,130.4,36.9z"/>
<path class="st8" d="M129.7,38.9c-0.3,0.4-0.7,0.6-1.1,0.8c-0.4,0.2-0.9,0.3-1.3,0.3s-0.9-0.1-1.3-0.3c-0.4-0.2-0.8-0.5-1.1-0.8
	v-0.1l0.3-0.3l0.4-0.2c0.2,0,0.5-0.1,0.7-0.3c0.2-0.1,0.4-0.3,0.5-0.5c-0.3-0.1-0.5-0.4-0.6-0.6c-0.4,0.1-0.6-0.6-0.4-0.8
	c0.2-0.2,0.1-0.1,0.2-0.1c0-0.3,0.2-0.6,0.4-0.9c0.2-0.2,0.5-0.4,0.9-0.4c0.3,0,0.7,0.2,0.9,0.4c0.2,0.2,0.4,0.5,0.4,0.9
	c0,0,0.1,0,0.1,0c0,0,0.1,0,0.1,0.1c0.2,0.2,0,0.8-0.4,0.8c-0.1,0.3-0.3,0.5-0.6,0.6c0.1,0.2,0.3,0.4,0.5,0.5
	c0.2,0.1,0.4,0.2,0.7,0.3l0.4,0.2l0.3,0.3L129.7,38.9z"/>
<path class="st5" d="M12.5,80.8H5.3c-0.5,0-1,0.4-1,1v7.2c0,0.5,0.4,1,1,1h7.2c0.5,0,1-0.4,1-1v-7.2C13.4,81.2,13,80.8,12.5,80.8z"
	/>
<path class="st8" d="M9,82.3c-0.3,0-0.5,0-0.8,0.1c-0.3,0.1-0.5,0.2-0.7,0.4c-0.2,0.2-0.4,0.4-0.5,0.7c-0.1,0.2-0.2,0.5-0.2,0.8
	c0,0.4,0.1,0.7,0.3,1c0.3,0.4,0.6,0.9,0.8,1.4l1,1.7l1.4-2.6l0.3-0.5c0.2-0.3,0.3-0.7,0.3-1.1c0-0.5-0.2-1-0.5-1.3
	C10,82.6,9.5,82.4,9,82.3z M8.9,84.9c-0.2,0-0.4-0.1-0.6-0.2C8.1,84.5,8,84.3,8,84.1c0-0.2,0-0.3,0.1-0.5c0.1-0.1,0.2-0.3,0.4-0.3
	c0.2-0.1,0.3-0.1,0.5-0.1c0.2,0,0.3,0.1,0.5,0.2c0.1,0.1,0.2,0.3,0.2,0.5c0,0.2,0,0.3-0.1,0.5c-0.1,0.2-0.2,0.3-0.3,0.4
	C9.2,84.9,9,84.9,8.9,84.9z"/>
<path class="st4" d="M162.2,44.4c0.5,0,1.1,0.2,1.4,0.6c0.4,0.4,0.6,0.9,0.6,1.4c0,0.5-0.2,1.1-0.6,1.4c-0.4,0.4-0.9,0.6-1.4,0.6
	c-0.5,0-1.1-0.2-1.4-0.6c-0.4-0.4-0.6-0.9-0.6-1.4c0-0.5,0.2-1.1,0.6-1.5C161.2,44.6,161.7,44.4,162.2,44.4z M162.2,47.9
	c0.3-0.1,0.6-0.2,0.9-0.5c0.2-0.3,0.3-0.6,0.3-0.9c0-0.3-0.1-0.7-0.3-0.9c-0.2-0.3-0.5-0.4-0.9-0.5c-0.2,0-0.4,0-0.6,0
	c-0.2,0.1-0.4,0.2-0.5,0.3c-0.2,0.1-0.3,0.3-0.4,0.5c-0.1,0.2-0.1,0.4-0.1,0.6c0,0.2,0,0.4,0.1,0.6c0.1,0.2,0.2,0.4,0.4,0.5
	c0.2,0.1,0.3,0.2,0.5,0.3C161.8,47.9,162,47.9,162.2,47.9z"/>
<path class="st5" d="M154.9,37.3c0.5,0,1.1,0.2,1.4,0.6c0.4,0.4,0.6,0.9,0.6,1.4c0,0.3,0,0.6-0.1,0.9c-0.1,0.3-0.2,0.5-0.4,0.8
	c-0.2,0.2-0.4,0.4-0.7,0.5c-0.3,0.1-0.6,0.2-0.9,0.2c-0.3,0-0.6-0.1-0.9-0.2c-0.3-0.1-0.5-0.3-0.7-0.5c-0.2-0.2-0.3-0.5-0.4-0.8
	c-0.1-0.3-0.1-0.6-0.1-0.9c0-0.5,0.2-1.1,0.6-1.4C153.8,37.5,154.4,37.3,154.9,37.3z M154.9,40.7c0.2,0,0.4,0,0.6,0
	c0.2-0.1,0.4-0.2,0.5-0.3c0.2-0.1,0.3-0.3,0.4-0.5c0.1-0.2,0.1-0.4,0.1-0.6c0-0.2,0-0.4-0.1-0.6c-0.1-0.2-0.2-0.4-0.4-0.5
	c-0.2-0.1-0.3-0.2-0.5-0.3c-0.2-0.1-0.4-0.1-0.6,0c-0.3,0.1-0.6,0.2-0.9,0.5c-0.2,0.3-0.3,0.6-0.3,0.9c0,0.3,0.1,0.7,0.3,0.9
	C154.3,40.5,154.6,40.7,154.9,40.7z"/>
<path class="st4" d="M152.4,30.7c0.1,0,0.2,0,0.2,0.1c0.1,0.1,0.1,0.1,0.1,0.2v1.4c0,0,0,0.1,0,0.1c0,0,0,0.1-0.1,0.1
	c0,0-0.1,0-0.1,0.1c0,0-0.1,0-0.1,0c-0.1,0-0.2,0-0.2-0.1c-0.1-0.1-0.1-0.1-0.1-0.2V31c0-0.1,0-0.1,0.1-0.2
	C152.2,30.7,152.3,30.7,152.4,30.7z"/>
<path class="st4" d="M152.4,28.2c0.1,0,0.2,0,0.2,0.1c0.1,0.1,0.1,0.1,0.1,0.2v1.4c0,0.1,0,0.2-0.1,0.2c-0.1,0.1-0.1,0.1-0.2,0.1
	c-0.1,0-0.2,0-0.2-0.1c-0.1-0.1-0.1-0.1-0.1-0.2v-1.4c0-0.1,0-0.2,0.1-0.2C152.2,28.3,152.3,28.2,152.4,28.2z"/>
<path class="st4" d="M150.4,30.2h1.2c0.1,0,0.2,0,0.2,0.1c0.1,0.1,0.1,0.1,0.1,0.2c0,0.1,0,0.2-0.1,0.2c-0.1,0.1-0.1,0.1-0.2,0.1
	h-1.2c-0.1,0-0.2,0-0.2-0.1c-0.1-0.1-0.1-0.1-0.1-0.2c0-0.1,0-0.2,0.1-0.2C150.3,30.2,150.3,30.2,150.4,30.2z"/>
<path class="st4" d="M153.1,30.2h1.3c0.1,0,0.2,0,0.2,0.1c0.1,0.1,0.1,0.1,0.1,0.2c0,0.1,0,0.2-0.1,0.2c-0.1,0.1-0.2,0.1-0.2,0.1
	h-1.3c-0.1,0-0.2,0-0.2-0.1c-0.1-0.1-0.1-0.1-0.1-0.2c0-0.1,0-0.1,0.1-0.2C152.9,30.2,153,30.2,153.1,30.2z"/>
<path class="st5" d="M163.6,38.6c0,0,0.1,0,0.1,0s0.1,0,0.1,0.1c0,0,0.1,0.1,0.1,0.1c0,0,0,0.1,0,0.1v1.4c0,0,0,0.1,0,0.1
	c0,0,0,0.1-0.1,0.1c0,0-0.1,0.1-0.1,0.1c0,0-0.1,0-0.1,0c-0.1,0-0.2,0-0.2-0.1c-0.1-0.1-0.1-0.1-0.1-0.2v-1.4c0-0.1,0-0.2,0.1-0.2
	C163.5,38.6,163.5,38.6,163.6,38.6z"/>
<path class="st5" d="M163.6,36.1c0,0,0.1,0,0.1,0s0.1,0,0.1,0.1c0,0,0.1,0.1,0.1,0.1c0,0,0,0.1,0,0.1v1.4c0,0,0,0.1,0,0.1
	c0,0,0,0.1-0.1,0.1c0,0-0.1,0.1-0.1,0.1c0,0-0.1,0-0.1,0c-0.1,0-0.2,0-0.2-0.1c-0.1-0.1-0.1-0.1-0.1-0.2v-1.4c0-0.1,0-0.2,0.1-0.2
	C163.5,36.1,163.5,36.1,163.6,36.1z"/>
<path class="st5" d="M161.6,38h1.3c0,0,0.1,0,0.1,0c0,0,0.1,0,0.1,0.1c0,0,0,0.1,0.1,0.1c0,0,0,0.1,0,0.1c0,0.1,0,0.2-0.1,0.2
	c-0.1,0.1-0.1,0.1-0.2,0.1h-1.3c-0.1,0-0.1,0-0.2-0.1c-0.1-0.1-0.1-0.1-0.1-0.2c0-0.1,0-0.2,0.1-0.2C161.5,38.1,161.6,38.1,161.6,38
	z"/>
<path class="st5" d="M164.3,38h1.3c0.1,0,0.2,0,0.2,0.1c0.1,0.1,0.1,0.1,0.1,0.2c0,0.1,0,0.1-0.1,0.2c-0.1,0.1-0.1,0.1-0.2,0.1h-1.3
	c-0.1,0-0.2,0-0.2-0.1c-0.1-0.1-0.1-0.1-0.1-0.2c0-0.1,0-0.2,0.1-0.2C164.2,38.1,164.3,38,164.3,38z"/>
<path class="st4" d="M36.2,18.5c0.4,0,0.8,0.1,1.1,0.4c0.3,0.2,0.6,0.5,0.7,0.9c0.1,0.4,0.2,0.8,0.1,1.2c-0.1,0.4-0.3,0.7-0.6,1
	c-0.3,0.3-0.6,0.5-1,0.5c-0.4,0.1-0.8,0-1.2-0.1c-0.4-0.2-0.7-0.4-0.9-0.7c-0.2-0.3-0.3-0.7-0.3-1.1c0-0.3,0.1-0.5,0.2-0.8
	c0.1-0.2,0.3-0.5,0.4-0.7c0.2-0.2,0.4-0.3,0.7-0.4C35.7,18.5,35.9,18.4,36.2,18.5z M36.2,19.1c-0.4,0-0.7,0.1-1,0.4
	c-0.3,0.3-0.4,0.6-0.4,1c0.1,0.3,0.2,0.6,0.5,0.9c0.3,0.2,0.6,0.3,0.9,0.3c0.3,0,0.7-0.1,0.9-0.3c0.3-0.2,0.4-0.5,0.5-0.9
	c0-0.4-0.2-0.7-0.4-1C36.9,19.2,36.6,19.1,36.2,19.1z"/>
<path class="st5" d="M28.8,11.7c0.4,0,0.8,0.1,1.1,0.3c0.3,0.2,0.6,0.5,0.7,0.9c0.2,0.4,0.2,0.8,0.1,1.2c-0.1,0.4-0.3,0.8-0.6,1
	c-0.3,0.3-0.6,0.5-1,0.6c-0.4,0.1-0.8,0-1.2-0.1c-0.4-0.2-0.7-0.4-0.9-0.7c-0.2-0.3-0.3-0.7-0.3-1.1c0-0.5,0.2-1.1,0.6-1.4
	S28.2,11.7,28.8,11.7z M28.8,12.4c-0.4,0-0.7,0.2-1,0.4s-0.4,0.6-0.4,1c0,0.2,0,0.4,0.1,0.5c0.1,0.2,0.2,0.3,0.3,0.5
	c0.1,0.1,0.3,0.2,0.5,0.3c0.2,0.1,0.3,0.1,0.5,0.1c0.2,0,0.4,0,0.5-0.1c0.2-0.1,0.3-0.2,0.5-0.3c0.1-0.1,0.2-0.3,0.3-0.5
	c0.1-0.2,0.1-0.4,0.1-0.5c0-0.4-0.1-0.7-0.4-1C29.5,12.5,29.2,12.4,28.8,12.4z"/>
<path class="st4" d="M26.1,23.4c0,0,0,0.1,0,0.1c0,0,0,0.1,0.1,0.1c0,0,0.1,0.1,0.1,0.1c0,0,0.1,0,0.1,0h1.4c0.1,0,0.2,0,0.2-0.1
	c0.1-0.1,0.1-0.1,0.1-0.2c0-0.1,0-0.2-0.1-0.2C28,23.1,27.9,23,27.8,23h-1.4c0,0-0.1,0-0.1,0c0,0-0.1,0-0.1,0.1c0,0,0,0.1-0.1,0.1
	C26.1,23.3,26.1,23.3,26.1,23.4z"/>
<path class="st4" d="M23.6,23.4c0,0.1,0,0.2,0.1,0.2c0.1,0.1,0.1,0.1,0.2,0.1h1.4c0,0,0.1,0,0.1,0c0,0,0.1,0,0.1-0.1
	c0,0,0.1-0.1,0.1-0.1c0,0,0-0.1,0-0.1c0,0,0-0.1,0-0.1c0,0,0-0.1-0.1-0.1c0,0-0.1-0.1-0.1-0.1c0,0-0.1,0-0.1,0h-1.4
	c-0.1,0-0.2,0-0.2,0.1C23.7,23.2,23.6,23.3,23.6,23.4z"/>
<path class="st4" d="M25.6,21.4v1.3c0,0,0,0.1,0,0.1c0,0,0,0.1,0.1,0.1c0,0,0.1,0,0.1,0.1c0,0,0.1,0,0.1,0c0,0,0.1,0,0.1,0
	c0,0,0.1,0,0.1-0.1c0,0,0.1-0.1,0.1-0.1c0,0,0-0.1,0-0.1v-1.3c0,0,0-0.1,0-0.1c0,0,0-0.1-0.1-0.1c0,0-0.1-0.1-0.1-0.1
	c0,0-0.1,0-0.1,0c0,0-0.1,0-0.1,0c0,0-0.1,0-0.1,0.1c0,0-0.1,0.1-0.1,0.1C25.6,21.3,25.6,21.3,25.6,21.4z"/>
<path class="st4" d="M25.6,24.1v1.2c0,0.1,0,0.2,0.1,0.2c0.1,0.1,0.1,0.1,0.2,0.1c0,0,0.1,0,0.1,0c0,0,0.1,0,0.1-0.1
	c0,0,0-0.1,0.1-0.1c0,0,0-0.1,0-0.1v-1.2c0,0,0-0.1,0-0.1c0,0,0-0.1-0.1-0.1c0,0-0.1-0.1-0.1-0.1c0,0-0.1,0-0.1,0
	c-0.1,0-0.2,0-0.2,0.1C25.6,23.9,25.6,24,25.6,24.1z"/>
<path class="st5" d="M41,12.4c0,0,0,0.1,0,0.1c0,0,0,0.1,0.1,0.1c0,0,0.1,0.1,0.1,0.1c0,0,0.1,0,0.1,0h1.4c0.1,0,0.2,0,0.2-0.1
	c0.1-0.1,0.1-0.1,0.1-0.2c0-0.1,0-0.2-0.1-0.2c-0.1-0.1-0.1-0.1-0.2-0.1h-1.4c-0.1,0-0.2,0-0.2,0.1C41,12.2,41,12.3,41,12.4z"/>
<path class="st5" d="M38.5,12.4c0,0,0,0.1,0,0.1c0,0,0,0.1,0.1,0.1c0,0,0.1,0,0.1,0.1c0,0,0.1,0,0.1,0h1.4c0,0,0.1,0,0.1,0
	c0,0,0.1,0,0.1-0.1c0,0,0.1-0.1,0.1-0.1c0,0,0-0.1,0-0.1c0-0.1,0-0.2-0.1-0.2c-0.1-0.1-0.1-0.1-0.2-0.1h-1.4c-0.1,0-0.2,0-0.2,0.1
	C38.6,12.2,38.5,12.3,38.5,12.4z"/>
<path class="st5" d="M40.5,10.4v1.3c0,0,0,0.1,0,0.1c0,0,0,0.1,0.1,0.1c0,0,0.1,0.1,0.1,0.1c0,0,0.1,0,0.1,0c0,0,0.1,0,0.1,0
	c0,0,0.1,0,0.1-0.1c0,0,0.1-0.1,0.1-0.1c0,0,0-0.1,0-0.1v-1.3c0-0.1,0-0.2-0.1-0.2c-0.1-0.1-0.1-0.1-0.2-0.1c0,0-0.1,0-0.1,0
	c0,0-0.1,0-0.1,0.1c0,0,0,0.1-0.1,0.1C40.5,10.3,40.5,10.3,40.5,10.4z"/>
<path class="st5" d="M40.5,13.1v1.3c0,0,0,0.1,0,0.1c0,0,0,0.1,0.1,0.1c0,0,0.1,0,0.1,0.1c0,0,0.1,0,0.1,0c0.1,0,0.2,0,0.2-0.1
	c0.1-0.1,0.1-0.1,0.1-0.2v-1.3c0-0.1,0-0.2-0.1-0.2c-0.1-0.1-0.1-0.1-0.2-0.1c0,0-0.1,0-0.1,0c0,0-0.1,0-0.1,0.1c0,0,0,0.1-0.1,0.1
	C40.5,13,40.5,13,40.5,13.1z"/>
<path class="st1" d="M125.9,22.2h0.1l0.8-0.2c0.2,0,0.2-0.2,0.2-0.3c0-0.1-0.1-0.1-0.1-0.2c-0.1,0-0.1,0-0.2,0l-0.8,0.2
	c0,0-0.1,0-0.1,0c0,0-0.1,0-0.1,0.1s0,0.1,0,0.1c0,0,0,0.1,0,0.1C125.7,22.1,125.8,22.2,125.9,22.2z"/>
<path class="st1" d="M110.2,33.8c-0.3,0.5-0.5,0.9-0.7,1.4c0,0-0.1,0.1-0.1,0.1c-0.1,0-0.1,0-0.2,0h-0.1c-0.1,0-0.1-0.1-0.1-0.1
	c0-0.1,0-0.1,0-0.2l0.7-1.4c0-0.1,0.1-0.1,0.2-0.1c0.1,0,0.1,0,0.2,0c0,0,0.1,0,0.1,0.1c0,0,0,0.1,0.1,0.1
	C110.3,33.6,110.3,33.6,110.2,33.8C110.3,33.7,110.2,33.7,110.2,33.8z"/>
<path class="st1" d="M108.9,36.5l-0.6,1.4c0,0.1-0.1,0.1-0.1,0.1c-0.1,0-0.1,0-0.2,0h0c-0.1,0-0.1-0.1-0.1-0.1c0-0.1,0-0.1,0-0.2
	c0.1-0.5,0.3-1,0.6-1.4c0-0.2,0.2-0.2,0.3-0.2c0,0,0.1,0,0.1,0c0,0,0.1,0.1,0.1,0.1c0,0,0,0.1,0,0.1
	C108.9,36.4,108.9,36.4,108.9,36.5z"/>
<path class="st1" d="M106.6,43.9c-0.1,0-0.2-0.2-0.2-0.3l0.2-1.5c0-0.1,0.1-0.1,0.1-0.2c0.1,0,0.1-0.1,0.2-0.1
	c0.1,0,0.1,0.1,0.2,0.1c0,0.1,0,0.1,0,0.2l-0.2,1.5c0,0,0,0.1,0,0.1c0,0,0,0.1-0.1,0.1c0,0-0.1,0-0.1,0
	C106.7,43.9,106.7,43.9,106.6,43.9L106.6,43.9z"/>
<path class="st1" d="M107.7,39C107.7,39,107.7,39,107.7,39c0.1,0.1,0.1,0.1,0.2,0.1c0,0,0,0.1,0,0.1c0,0,0,0.1,0,0.1
	c-0.1,0.2-0.1,0.5-0.2,0.7c-0.1,0.2-0.1,0.5-0.2,0.8c0,0,0,0.1,0,0.1c0,0-0.1,0.1-0.1,0.1c0,0-0.1,0-0.1,0c0,0-0.1,0-0.1,0
	c0,0-0.1,0-0.1,0s-0.1,0-0.1-0.1c0,0,0-0.1,0-0.1c0,0,0-0.1,0-0.1c0-0.3,0.1-0.5,0.2-0.8c0.1-0.2,0.1-0.5,0.2-0.7
	c0-0.1,0.1-0.1,0.1-0.1C107.5,39,107.6,39,107.7,39z"/>
<path class="st1" d="M111,32.5C111,32.5,111,32.5,111,32.5c-0.1,0.1-0.1,0.1-0.1,0.1c0,0-0.1,0-0.1,0c0,0-0.1,0-0.1,0h-0.1
	c0,0-0.1,0-0.1-0.1c0,0,0-0.1-0.1-0.1s0-0.1,0-0.1c0,0,0-0.1,0-0.1c0.3-0.4,0.6-0.9,0.9-1.2c0-0.1,0.1-0.1,0.2-0.1
	c0.1,0,0.1,0,0.2,0c0,0,0.1,0,0.1,0.1c0,0,0,0.1,0,0.1c0,0,0,0.1,0,0.1c0,0,0,0.1,0,0.1L111,32.5z"/>
<path class="st1" d="M124.5,22.6l-1.5,0.5c0,0-0.1,0-0.1,0s-0.1,0-0.1,0c0,0-0.1,0-0.1-0.1c0,0-0.1-0.1-0.1-0.1c0-0.1,0-0.1,0-0.2
	c0-0.1,0.1-0.1,0.1-0.1l1.5-0.6c0.1,0,0.1,0,0.2,0c0.1,0,0.1,0.1,0.1,0.2c0,0.1,0,0.1,0,0.2C124.6,22.6,124.6,22.6,124.5,22.6z"/>
<path class="st1" d="M120.2,24.5c-0.1,0-0.1,0-0.2,0c0,0-0.1,0-0.1,0c0,0,0,0-0.1-0.1c0,0,0-0.1,0-0.1c0,0,0-0.1,0-0.1
	c0,0,0-0.1,0.1-0.1c0,0,0.1,0,0.1-0.1l1.4-0.7c0.1,0,0.3,0,0.3,0.1c0,0.1,0,0.3-0.1,0.3L120.2,24.5z"/>
<path class="st1" d="M115.1,27.9c0,0-0.1,0-0.1,0c0,0-0.1,0-0.1,0l-0.2-0.1c0,0,0-0.1,0-0.1c0,0,0-0.1,0-0.1c0,0,0-0.1,0-0.1
	c0,0,0-0.1,0.1-0.1l1.2-1c0.1,0,0.1-0.1,0.2,0c0.1,0,0.1,0,0.2,0.1c0,0,0,0.1,0,0.1s0,0.1,0,0.1c0,0,0,0.1,0,0.1c0,0,0,0.1-0.1,0.1
	L115.1,27.9z"/>
<path class="st1" d="M117.5,26c0,0-0.1,0-0.1,0s-0.1,0-0.1,0l-0.1-0.1c0,0,0-0.1-0.1-0.1c0,0,0-0.1,0-0.1c0,0,0-0.1,0-0.1
	c0,0,0-0.1,0.1-0.1l1.4-0.8c0,0,0.1,0,0.1,0c0,0,0.1,0,0.1,0c0,0,0.1,0,0.1,0c0,0,0.1,0,0.1,0.1c0,0,0,0.1,0,0.1c0,0,0,0.1,0,0.1
	c0,0,0,0.1-0.1,0.1c0,0-0.1,0-0.1,0.1L117.5,26z"/>
<path class="st1" d="M112.9,30.1c0,0-0.1,0.1-0.1,0.1c0,0-0.1,0-0.1,0h-0.1c-0.1-0.1-0.2-0.3,0-0.3c0.1-0.1,0.7-0.8,1.1-1.2
	c0.3-0.4,0.3-0.1,0.4,0c0,0,0.1,0.1,0.1,0.2c0,0.1,0,0.1,0,0.2C113.6,29.4,113.2,29.7,112.9,30.1z"/>
<path class="st4" d="M126.1,20.5l-0.5-4.2l14.3,2.1L126.1,20.5z"/>
<path class="st2" d="M139.9,18.3l-13.2,3.2h0l-0.7,0.8l0.2-1.8L139.9,18.3z"/>
<path class="st3" d="M126,22.3h1.2l-0.5-0.8L126,22.3z"/>
<path class="st4" d="M128.3,21.2l-1.7,0.4l2.7,3.9l10.5-7.1L128.3,21.2z"/>
</svg>
